M48
; DRILL file KiCad 10.0.5 date 2026-08-19T02:20:23
; FORMAT={-:-/ absolute / metric / decimal}
; #@! TF.CreationDate,2026-08-19T02:20:23-07:00
; #@! TF.GenerationSoftware,Kicad,Pcbnew,10.0.5
; #@! TF.FileFunction,Plated,1,2,PTH
FMAT,2
METRIC
; #@! TA.AperFunction,Plated,PTH,ViaDrill
T1C0.300
; #@! TA.AperFunction,Plated,PTH,ComponentDrill
T2C0.600
; #@! TA.AperFunction,Plated,PTH,ComponentDrill
T3C0.950
; #@! TA.AperFunction,Plated,PTH,ComponentDrill
T4C1.000
; #@! TA.AperFunction,Plated,PTH,ComponentDrill
T5C3.200
%
G90
G05
T1
X54.25Y-37.5
X57.5Y-35.75
X58.775Y-63.5
X59.65Y-51.9
X66.5Y-35.99
X66.75Y-52.5
X66.75Y-55.0
X69.45Y-38.95
X69.75Y-63.5
X70.25Y-49.0
X72.75Y-44.5
X73.25Y-56.75
X74.5Y-56.75
X75.5Y-44.5
X78.0Y-63.5
X78.5Y-41.25
X78.5Y-46.75
X79.75Y-37.25
X80.0Y-44.05
X81.0Y-38.0
X81.0Y-47.0
X84.0Y-36.0
X84.0Y-38.0
X84.619Y-39.619
X85.184Y-40.184
X85.619Y-38.619
X85.7Y-47.25
X85.7Y-50.2
X85.75Y-40.75
X86.184Y-39.184
X86.75Y-39.75
X87.25Y-45.0
X87.25Y-46.0
X87.25Y-55.0
X88.75Y-45.0
X88.75Y-46.0
X90.25Y-53.0
X91.75Y-53.0
X92.0Y-51.5
T3
X82.25Y-59.725
X84.75Y-59.725
X87.25Y-59.725
T4
X54.7Y-48.06
X54.7Y-50.6
X54.7Y-53.14
T5
X54.25Y-42.25
X54.25Y-60.75
X94.25Y-38.75
X94.25Y-60.75
T2
X69.555Y-57.92G85X69.555Y-56.92
G05
X78.195Y-57.92G85X78.195Y-56.92
G05
M30
