%TF.GenerationSoftware,KiCad,Pcbnew,10.0.5*%
%TF.CreationDate,2026-08-19T02:20:16-07:00*%
%TF.ProjectId,controller,636f6e74-726f-46c6-9c65-722e6b696361,rev?*%
%TF.SameCoordinates,Original*%
%TF.FileFunction,Copper,L2,Bot*%
%TF.FilePolarity,Positive*%
%FSLAX46Y46*%
G04 Gerber Fmt 4.6, Leading zero omitted, Abs format (unit mm)*
G04 Created by KiCad (PCBNEW 10.0.5) date 2026-08-19 02:20:16*
%MOMM*%
%LPD*%
G01*
G04 APERTURE LIST*
G04 Aperture macros list*
%AMRoundRect*
0 Rectangle with rounded corners*
0 $1 Rounding radius*
0 $2 $3 $4 $5 $6 $7 $8 $9 X,Y pos of 4 corners*
0 Add a 4 corners polygon primitive as box body*
4,1,4,$2,$3,$4,$5,$6,$7,$8,$9,$2,$3,0*
0 Add four circle primitives for the rounded corners*
1,1,$1+$1,$2,$3*
1,1,$1+$1,$4,$5*
1,1,$1+$1,$6,$7*
1,1,$1+$1,$8,$9*
0 Add four rect primitives between the rounded corners*
20,1,$1+$1,$2,$3,$4,$5,0*
20,1,$1+$1,$4,$5,$6,$7,0*
20,1,$1+$1,$6,$7,$8,$9,0*
20,1,$1+$1,$8,$9,$2,$3,0*%
G04 Aperture macros list end*
%TA.AperFunction,ComponentPad*%
%ADD10C,3.600000*%
%TD*%
%TA.AperFunction,ComponentPad*%
%ADD11RoundRect,0.250000X-0.600000X-0.725000X0.600000X-0.725000X0.600000X0.725000X-0.600000X0.725000X0*%
%TD*%
%TA.AperFunction,ComponentPad*%
%ADD12O,1.700000X1.950000*%
%TD*%
%TA.AperFunction,ComponentPad*%
%ADD13R,1.700000X1.700000*%
%TD*%
%TA.AperFunction,ComponentPad*%
%ADD14C,1.700000*%
%TD*%
%TA.AperFunction,SMDPad,CuDef*%
%ADD15RoundRect,0.250000X-0.750000X0.275000X-0.750000X-0.275000X0.750000X-0.275000X0.750000X0.275000X0*%
%TD*%
%TA.AperFunction,SMDPad,CuDef*%
%ADD16RoundRect,0.250000X0.475000X-0.250000X0.475000X0.250000X-0.475000X0.250000X-0.475000X-0.250000X0*%
%TD*%
%TA.AperFunction,SMDPad,CuDef*%
%ADD17RoundRect,0.250000X-0.262500X-0.450000X0.262500X-0.450000X0.262500X0.450000X-0.262500X0.450000X0*%
%TD*%
%TA.AperFunction,SMDPad,CuDef*%
%ADD18C,1.500000*%
%TD*%
%TA.AperFunction,SMDPad,CuDef*%
%ADD19RoundRect,0.250000X0.275000X0.750000X-0.275000X0.750000X-0.275000X-0.750000X0.275000X-0.750000X0*%
%TD*%
%TA.AperFunction,SMDPad,CuDef*%
%ADD20RoundRect,0.250000X-1.000000X-0.650000X1.000000X-0.650000X1.000000X0.650000X-1.000000X0.650000X0*%
%TD*%
%TA.AperFunction,SMDPad,CuDef*%
%ADD21RoundRect,0.250000X0.262500X0.450000X-0.262500X0.450000X-0.262500X-0.450000X0.262500X-0.450000X0*%
%TD*%
%TA.AperFunction,SMDPad,CuDef*%
%ADD22R,0.720000X1.850000*%
%TD*%
%TA.AperFunction,SMDPad,CuDef*%
%ADD23R,0.760000X1.850000*%
%TD*%
%TA.AperFunction,SMDPad,CuDef*%
%ADD24R,0.800000X1.850000*%
%TD*%
%TA.AperFunction,ComponentPad*%
%ADD25RoundRect,0.500000X0.000010X0.600000X-0.000010X0.600000X-0.000010X-0.600000X0.000010X-0.600000X0*%
%TD*%
%TA.AperFunction,ViaPad*%
%ADD26C,0.600000*%
%TD*%
%TA.AperFunction,Conductor*%
%ADD27C,0.200000*%
%TD*%
%TA.AperFunction,Conductor*%
%ADD28C,0.700000*%
%TD*%
%TA.AperFunction,Conductor*%
%ADD29C,0.400000*%
%TD*%
%TA.AperFunction,Conductor*%
%ADD30C,0.300000*%
%TD*%
%TA.AperFunction,Conductor*%
%ADD31C,1.400000*%
%TD*%
G04 APERTURE END LIST*
D10*
%TO.P,H4,1*%
%TO.N,N/C*%
X54250000Y-42250000D03*
%TD*%
%TO.P,H3,1*%
%TO.N,N/C*%
X94250000Y-60750000D03*
%TD*%
%TO.P,H2,1*%
%TO.N,N/C*%
X54250000Y-60750000D03*
%TD*%
D11*
%TO.P,LEDS1,1,Pin_1_1*%
%TO.N,+5V*%
X82250000Y-59725000D03*
D12*
%TO.P,LEDS1,2,Pin_2_2*%
%TO.N,/LED_SIG*%
X84750000Y-59725000D03*
%TO.P,LEDS1,3,Pin_3_3*%
%TO.N,GND*%
X87250000Y-59725000D03*
%TD*%
D10*
%TO.P,H1,1*%
%TO.N,N/C*%
X94250000Y-38750000D03*
%TD*%
D13*
%TO.P,PRGM1,1,Pin_1_1*%
%TO.N,/IN_D+*%
X54700000Y-53140000D03*
D14*
%TO.P,PRGM1,2,Pin_2_2*%
%TO.N,/IN_D-*%
X54700000Y-50600000D03*
%TO.P,PRGM1,3,Pin_3_3*%
%TO.N,GND*%
X54700000Y-48060000D03*
%TD*%
D15*
%TO.P,SW2,1,1_1*%
%TO.N,GND*%
X78500000Y-35775000D03*
%TO.P,SW2,2,2_2*%
%TO.N,/IO0*%
X78500000Y-40225000D03*
%TD*%
D16*
%TO.P,C5,1*%
%TO.N,/EN*%
X70750000Y-38950000D03*
%TO.P,C5,2*%
%TO.N,GND*%
X70750000Y-37050000D03*
%TD*%
D17*
%TO.P,R5,1*%
%TO.N,+3V3*%
X75087500Y-45750000D03*
%TO.P,R5,2*%
%TO.N,/IO0*%
X76912500Y-45750000D03*
%TD*%
D18*
%TO.P,TXD0,1,1_1*%
%TO.N,Net-(U1-TXD0)*%
X79750000Y-45500000D03*
%TD*%
D19*
%TO.P,SW3,1,1_1*%
%TO.N,GND*%
X76100000Y-49000000D03*
%TO.P,SW3,2,2_2*%
%TO.N,/SWITCH*%
X71650000Y-49000000D03*
%TD*%
D18*
%TO.P,RXD0,1,1_1*%
%TO.N,Net-(U1-RXD0)*%
X79750000Y-48250000D03*
%TD*%
D20*
%TO.P,D1,1,A1_1*%
%TO.N,GND*%
X69250000Y-61250000D03*
%TO.P,D1,2,A2_2*%
%TO.N,+5V*%
X73250000Y-61250000D03*
%TD*%
D21*
%TO.P,R4,1*%
%TO.N,+3V3*%
X72412500Y-45725000D03*
%TO.P,R4,2*%
%TO.N,/SWITCH*%
X70587500Y-45725000D03*
%TD*%
D22*
%TO.P,J2,A5,CC1_A5*%
%TO.N,Net-(J2-CC1)*%
X74375000Y-58150000D03*
D23*
%TO.P,J2,A9,VBUS_A9*%
%TO.N,+5V*%
X72365000Y-58150000D03*
D24*
%TO.P,J2,A12,GND_A12*%
%TO.N,GND*%
X71125000Y-58150000D03*
D22*
%TO.P,J2,B5,CC2_B5*%
%TO.N,Net-(J2-CC2)*%
X73375000Y-58150000D03*
D23*
%TO.P,J2,B9,VBUS_B9*%
%TO.N,+5V*%
X75385000Y-58150000D03*
D24*
%TO.P,J2,B12,GND_B12*%
%TO.N,GND*%
X76625000Y-58150000D03*
D25*
%TO.P,J2,SH,SHIELD_SH*%
X78195000Y-57420000D03*
X69555000Y-57420000D03*
%TD*%
D15*
%TO.P,SW1,1,1_1*%
%TO.N,GND*%
X73750000Y-35775000D03*
%TO.P,SW1,2,2_2*%
%TO.N,/EN*%
X73750000Y-40225000D03*
%TD*%
D26*
%TO.N,Net-(U1-IO41)*%
X85184313Y-40184313D03*
X86184313Y-39184313D03*
%TO.N,Net-(U1-IO39)*%
X87250000Y-45000000D03*
X88750000Y-45000000D03*
%TO.N,GND*%
X79750000Y-37250000D03*
X85700000Y-47250000D03*
X69750000Y-63500000D03*
X84000000Y-36000000D03*
X54250000Y-37500000D03*
X58775000Y-63500000D03*
X85700000Y-50200000D03*
X66500000Y-35990000D03*
X57500000Y-35750000D03*
X92000000Y-51500000D03*
X87250000Y-55000000D03*
X78000000Y-63500000D03*
X59650000Y-51900000D03*
%TO.N,+3V3*%
X81000000Y-38000000D03*
X84000000Y-38000000D03*
X72750000Y-44500000D03*
X75500000Y-44500000D03*
X91750000Y-53000000D03*
X90250000Y-53000000D03*
%TO.N,Net-(U1-IO40)*%
X86750000Y-39750000D03*
X85750000Y-40750000D03*
%TO.N,Net-(J2-CC1)*%
X74500000Y-56750000D03*
%TO.N,Net-(J2-CC2)*%
X73250000Y-56750000D03*
%TO.N,Net-(U1-IO17)*%
X66750000Y-52500000D03*
X66750000Y-55000000D03*
%TO.N,/EN*%
X69450000Y-38950000D03*
%TO.N,/SWITCH*%
X70250000Y-49000000D03*
%TO.N,/IO0*%
X78500000Y-46750000D03*
X78500000Y-41250000D03*
%TO.N,Net-(U1-IO38)*%
X88750000Y-46000000D03*
X87250000Y-46000000D03*
%TO.N,Net-(U1-IO42)*%
X84618626Y-39618626D03*
X85618626Y-38618626D03*
%TO.N,Net-(U1-RXD0)*%
X81000000Y-47000000D03*
%TO.N,Net-(U1-TXD0)*%
X80000000Y-44050000D03*
%TD*%
%TO.N,Net-(U1-IO41)*%
D27*
X85184313Y-40184313D02*
X86184313Y-39184313D01*
%TO.N,Net-(U1-IO39)*%
X87250000Y-45000000D02*
X88750000Y-45000000D01*
%TO.N,GND*%
D28*
X76625000Y-58000000D02*
X77615000Y-58000000D01*
D29*
X69250000Y-61250000D02*
X70500000Y-61250000D01*
D28*
X70135000Y-58000000D02*
X69555000Y-57420000D01*
X77615000Y-58000000D02*
X78195000Y-57420000D01*
X71125000Y-58000000D02*
X70135000Y-58000000D01*
D27*
X73975000Y-38525000D02*
X74000000Y-38550000D01*
D29*
X71125000Y-60625000D02*
X71125000Y-58000000D01*
X70500000Y-61250000D02*
X71125000Y-60625000D01*
%TO.N,+3V3*%
D27*
X75500000Y-44500000D02*
X75000000Y-45000000D01*
X72412500Y-45725000D02*
X72412500Y-44837500D01*
X75000000Y-45000000D02*
X75000000Y-45662500D01*
X75000000Y-45662500D02*
X75087500Y-45750000D01*
X91750000Y-53000000D02*
X90250000Y-53000000D01*
X72412500Y-44837500D02*
X72750000Y-44500000D01*
X75062500Y-45725000D02*
X75087500Y-45750000D01*
D30*
X84000000Y-38000000D02*
X81000000Y-38000000D01*
%TO.N,+5V*%
D31*
X75500000Y-60000000D02*
X72500000Y-60000000D01*
D28*
X75385000Y-59885000D02*
X75500000Y-60000000D01*
X75385000Y-58000000D02*
X75385000Y-59885000D01*
D27*
X72365000Y-59865000D02*
X72500000Y-60000000D01*
D28*
X72365000Y-58000000D02*
X72365000Y-59865000D01*
D31*
X75500000Y-60000000D02*
X81975000Y-60000000D01*
X81975000Y-60000000D02*
X82250000Y-59725000D01*
%TO.N,Net-(U1-IO40)*%
D27*
X85750000Y-40750000D02*
X86750000Y-39750000D01*
%TO.N,Net-(J2-CC1)*%
X74375000Y-58000000D02*
X74375000Y-56875000D01*
X74375000Y-56875000D02*
X74500000Y-56750000D01*
%TO.N,Net-(J2-CC2)*%
X73375000Y-58000000D02*
X73375000Y-56875000D01*
X73375000Y-56875000D02*
X73250000Y-56750000D01*
%TO.N,Net-(U1-IO17)*%
X66750000Y-52500000D02*
X66750000Y-55000000D01*
%TO.N,/EN*%
X72225000Y-40225000D02*
X73750000Y-40225000D01*
X70950000Y-38950000D02*
X72225000Y-40225000D01*
X70750000Y-38950000D02*
X70950000Y-38950000D01*
X69450000Y-38950000D02*
X70750000Y-38950000D01*
%TO.N,/SWITCH*%
X71650000Y-48650000D02*
X70587500Y-47587500D01*
X71650000Y-49000000D02*
X71650000Y-48650000D01*
X70587500Y-47587500D02*
X70587500Y-45725000D01*
X70250000Y-49000000D02*
X71650000Y-49000000D01*
%TO.N,/IO0*%
X77500000Y-45750000D02*
X78500000Y-46750000D01*
X78500000Y-41250000D02*
X78500000Y-40225000D01*
X76912500Y-45750000D02*
X77500000Y-45750000D01*
%TO.N,Net-(U1-IO38)*%
X87250000Y-46000000D02*
X88750000Y-46000000D01*
%TO.N,Net-(U1-IO42)*%
X84618626Y-39618626D02*
X85618626Y-38618626D01*
%TO.N,Net-(U1-RXD0)*%
X81000000Y-47000000D02*
X79750000Y-48250000D01*
%TO.N,Net-(U1-TXD0)*%
X80000000Y-44050000D02*
X80000000Y-45250000D01*
X80000000Y-45250000D02*
X79750000Y-45500000D01*
%TD*%
%TA.AperFunction,Conductor*%
%TO.N,GND*%
G36*
X72200109Y-35270185D02*
G01*
X72245864Y-35322989D01*
X72256428Y-35387103D01*
X72250000Y-35450013D01*
X72250000Y-35525000D01*
X75249999Y-35525000D01*
X75249999Y-35450028D01*
X75249998Y-35450010D01*
X75243572Y-35387101D01*
X75256342Y-35318408D01*
X75304223Y-35267524D01*
X75366930Y-35250500D01*
X76883070Y-35250500D01*
X76950109Y-35270185D01*
X76995864Y-35322989D01*
X77006428Y-35387103D01*
X77000000Y-35450013D01*
X77000000Y-35525000D01*
X79999999Y-35525000D01*
X79999999Y-35450028D01*
X79999998Y-35450010D01*
X79993572Y-35387101D01*
X80006342Y-35318408D01*
X80054223Y-35267524D01*
X80116930Y-35250500D01*
X97184108Y-35250500D01*
X97243040Y-35250500D01*
X97256922Y-35251280D01*
X97273878Y-35253190D01*
X97347266Y-35261458D01*
X97358636Y-35265437D01*
X97367102Y-35265351D01*
X97374324Y-35267633D01*
X97453539Y-35295351D01*
X97478549Y-35307395D01*
X97549606Y-35352043D01*
X97571313Y-35369355D01*
X97630644Y-35428686D01*
X97647957Y-35450395D01*
X97692602Y-35521447D01*
X97704649Y-35546464D01*
X97732362Y-35625662D01*
X97738541Y-35652734D01*
X97748720Y-35743076D01*
X97749500Y-35756959D01*
X97749500Y-63743040D01*
X97748720Y-63756923D01*
X97738541Y-63847265D01*
X97734561Y-63858637D01*
X97734648Y-63867102D01*
X97732362Y-63874337D01*
X97704649Y-63953535D01*
X97692602Y-63978552D01*
X97647957Y-64049604D01*
X97630644Y-64071313D01*
X97571313Y-64130644D01*
X97549604Y-64147957D01*
X97478552Y-64192602D01*
X97453535Y-64204649D01*
X97374337Y-64232362D01*
X97347265Y-64238541D01*
X97256923Y-64248720D01*
X97243040Y-64249500D01*
X51256960Y-64249500D01*
X51243077Y-64248720D01*
X51152734Y-64238541D01*
X51141361Y-64234561D01*
X51132897Y-64234648D01*
X51125662Y-64232362D01*
X51046464Y-64204649D01*
X51021447Y-64192602D01*
X50950395Y-64147957D01*
X50928686Y-64130644D01*
X50869355Y-64071313D01*
X50852042Y-64049604D01*
X50807397Y-63978552D01*
X50795351Y-63953539D01*
X50767636Y-63874333D01*
X50761458Y-63847268D01*
X50751280Y-63756922D01*
X50750500Y-63743040D01*
X50750500Y-60599223D01*
X51949500Y-60599223D01*
X51949500Y-60900776D01*
X51949501Y-60900793D01*
X51988861Y-61199766D01*
X52066913Y-61491060D01*
X52182314Y-61769661D01*
X52182318Y-61769671D01*
X52333099Y-62030831D01*
X52516679Y-62270078D01*
X52516685Y-62270085D01*
X52729914Y-62483314D01*
X52729921Y-62483320D01*
X52969168Y-62666900D01*
X53230328Y-62817681D01*
X53230329Y-62817681D01*
X53230332Y-62817683D01*
X53416072Y-62894619D01*
X53508939Y-62933086D01*
X53508940Y-62933086D01*
X53508942Y-62933087D01*
X53800232Y-63011138D01*
X54099217Y-63050500D01*
X54099224Y-63050500D01*
X54400776Y-63050500D01*
X54400783Y-63050500D01*
X54699768Y-63011138D01*
X54991058Y-62933087D01*
X55269668Y-62817683D01*
X55530832Y-62666900D01*
X55770080Y-62483319D01*
X55983319Y-62270080D01*
X56166900Y-62030832D01*
X56213576Y-61949986D01*
X67500001Y-61949986D01*
X67510494Y-62052697D01*
X67565641Y-62219119D01*
X67565643Y-62219124D01*
X67657684Y-62368345D01*
X67781654Y-62492315D01*
X67930875Y-62584356D01*
X67930880Y-62584358D01*
X68097302Y-62639505D01*
X68097309Y-62639506D01*
X68200019Y-62649999D01*
X68999999Y-62649999D01*
X69500000Y-62649999D01*
X70299972Y-62649999D01*
X70299986Y-62649998D01*
X70402697Y-62639505D01*
X70569119Y-62584358D01*
X70569124Y-62584356D01*
X70718345Y-62492315D01*
X70842315Y-62368345D01*
X70934356Y-62219124D01*
X70934358Y-62219119D01*
X70989505Y-62052697D01*
X70989506Y-62052690D01*
X70999999Y-61949986D01*
X71000000Y-61949973D01*
X71000000Y-61500000D01*
X69500000Y-61500000D01*
X69500000Y-62649999D01*
X68999999Y-62649999D01*
X69000000Y-62649998D01*
X69000000Y-61500000D01*
X67500001Y-61500000D01*
X67500001Y-61949986D01*
X56213576Y-61949986D01*
X56317683Y-61769668D01*
X56433087Y-61491058D01*
X56511138Y-61199768D01*
X56550500Y-60900783D01*
X56550500Y-60599217D01*
X56549142Y-60588905D01*
X56545739Y-60563048D01*
X56544023Y-60550013D01*
X67500000Y-60550013D01*
X67500000Y-61000000D01*
X69000000Y-61000000D01*
X69500000Y-61000000D01*
X70999999Y-61000000D01*
X70999999Y-60550028D01*
X70999998Y-60550013D01*
X70989505Y-60447302D01*
X70934358Y-60280880D01*
X70934356Y-60280875D01*
X70842315Y-60131654D01*
X70718343Y-60007682D01*
X70715917Y-60006186D01*
X70715916Y-60006186D01*
X70569124Y-59915643D01*
X70569119Y-59915641D01*
X70538555Y-59905513D01*
X71299500Y-59905513D01*
X71299500Y-60094486D01*
X71329059Y-60281118D01*
X71387454Y-60460836D01*
X71473239Y-60629198D01*
X71473240Y-60629199D01*
X71475814Y-60632742D01*
X71499297Y-60698546D01*
X71499500Y-60705632D01*
X71499500Y-61950001D01*
X71499501Y-61950018D01*
X71510000Y-62052796D01*
X71510001Y-62052799D01*
X71534874Y-62127860D01*
X71565186Y-62219334D01*
X71657288Y-62368656D01*
X71781344Y-62492712D01*
X71930666Y-62584814D01*
X72097203Y-62639999D01*
X72199991Y-62650500D01*
X74300008Y-62650499D01*
X74402797Y-62639999D01*
X74569334Y-62584814D01*
X74718656Y-62492712D01*
X74842712Y-62368656D01*
X74934814Y-62219334D01*
X74989999Y-62052797D01*
X75000500Y-61950009D01*
X75000499Y-61324499D01*
X75020183Y-61257461D01*
X75072987Y-61211706D01*
X75124499Y-61200500D01*
X75405519Y-61200500D01*
X79761101Y-61200500D01*
X79828140Y-61220185D01*
X79873895Y-61272989D01*
X79883839Y-61342147D01*
X79875662Y-61371953D01*
X79832184Y-61476917D01*
X79832182Y-61476925D01*
X79799500Y-61641228D01*
X79799500Y-61808771D01*
X79832182Y-61973074D01*
X79832184Y-61973082D01*
X79896295Y-62127860D01*
X79989373Y-62267162D01*
X80107837Y-62385626D01*
X80200494Y-62447537D01*
X80247137Y-62478703D01*
X80401918Y-62542816D01*
X80566228Y-62575499D01*
X80566232Y-62575500D01*
X80566233Y-62575500D01*
X80733768Y-62575500D01*
X80733769Y-62575499D01*
X80898082Y-62542816D01*
X81052863Y-62478703D01*
X81192162Y-62385626D01*
X81310626Y-62267162D01*
X81403703Y-62127863D01*
X81467816Y-61973082D01*
X81500500Y-61808767D01*
X81500500Y-61641233D01*
X81467816Y-61476918D01*
X81424338Y-61371953D01*
X81416869Y-61302483D01*
X81448144Y-61240004D01*
X81508233Y-61204352D01*
X81538899Y-61200500D01*
X82083915Y-61200500D01*
X82083923Y-61200499D01*
X82900002Y-61200499D01*
X82900008Y-61200499D01*
X83002797Y-61189999D01*
X83169334Y-61134814D01*
X83318656Y-61042712D01*
X83442712Y-60918656D01*
X83534814Y-60769334D01*
X83534814Y-60769331D01*
X83538178Y-60763879D01*
X83590126Y-60717154D01*
X83659088Y-60705931D01*
X83723170Y-60733774D01*
X83731398Y-60741294D01*
X83870213Y-60880109D01*
X84042179Y-61005048D01*
X84042181Y-61005049D01*
X84042184Y-61005051D01*
X84231588Y-61101557D01*
X84433757Y-61167246D01*
X84643713Y-61200500D01*
X84643714Y-61200500D01*
X84856286Y-61200500D01*
X84856287Y-61200500D01*
X85066243Y-61167246D01*
X85268412Y-61101557D01*
X85457816Y-61005051D01*
X85479789Y-60989086D01*
X85629786Y-60880109D01*
X85629788Y-60880106D01*
X85629792Y-60880104D01*
X85780104Y-60729792D01*
X85899991Y-60564779D01*
X85955320Y-60522115D01*
X86024933Y-60516136D01*
X86086729Y-60548741D01*
X86100627Y-60564781D01*
X86220272Y-60729459D01*
X86220276Y-60729464D01*
X86370535Y-60879723D01*
X86370540Y-60879727D01*
X86542442Y-61004620D01*
X86731782Y-61101095D01*
X86933871Y-61166757D01*
X87000000Y-61177231D01*
X87000000Y-60129145D01*
X87066657Y-60167630D01*
X87187465Y-60200000D01*
X87312535Y-60200000D01*
X87433343Y-60167630D01*
X87500000Y-60129145D01*
X87500000Y-61177230D01*
X87566126Y-61166757D01*
X87566129Y-61166757D01*
X87768217Y-61101095D01*
X87957557Y-61004620D01*
X88129459Y-60879727D01*
X88129464Y-60879723D01*
X88279723Y-60729464D01*
X88279727Y-60729459D01*
X88374349Y-60599223D01*
X91949500Y-60599223D01*
X91949500Y-60900776D01*
X91949501Y-60900793D01*
X91988861Y-61199766D01*
X92066913Y-61491060D01*
X92182314Y-61769661D01*
X92182318Y-61769671D01*
X92333099Y-62030831D01*
X92516679Y-62270078D01*
X92516685Y-62270085D01*
X92729914Y-62483314D01*
X92729921Y-62483320D01*
X92969168Y-62666900D01*
X93230328Y-62817681D01*
X93230329Y-62817681D01*
X93230332Y-62817683D01*
X93416072Y-62894619D01*
X93508939Y-62933086D01*
X93508940Y-62933086D01*
X93508942Y-62933087D01*
X93800232Y-63011138D01*
X94099217Y-63050500D01*
X94099224Y-63050500D01*
X94400776Y-63050500D01*
X94400783Y-63050500D01*
X94699768Y-63011138D01*
X94991058Y-62933087D01*
X95269668Y-62817683D01*
X95530832Y-62666900D01*
X95770080Y-62483319D01*
X95983319Y-62270080D01*
X96166900Y-62030832D01*
X96317683Y-61769668D01*
X96433087Y-61491058D01*
X96511138Y-61199768D01*
X96550500Y-60900783D01*
X96550500Y-60599217D01*
X96511138Y-60300232D01*
X96433087Y-60008942D01*
X96431945Y-60006186D01*
X96371597Y-59860493D01*
X96317683Y-59730332D01*
X96311072Y-59718882D01*
X96166900Y-59469168D01*
X95983320Y-59229921D01*
X95983314Y-59229914D01*
X95770085Y-59016685D01*
X95770078Y-59016679D01*
X95530831Y-58833099D01*
X95269671Y-58682318D01*
X95269661Y-58682314D01*
X94991060Y-58566913D01*
X94699766Y-58488861D01*
X94400793Y-58449501D01*
X94400788Y-58449500D01*
X94400783Y-58449500D01*
X94099217Y-58449500D01*
X94099211Y-58449500D01*
X94099206Y-58449501D01*
X93800233Y-58488861D01*
X93508939Y-58566913D01*
X93230338Y-58682314D01*
X93230328Y-58682318D01*
X92969168Y-58833099D01*
X92729921Y-59016679D01*
X92729914Y-59016685D01*
X92516685Y-59229914D01*
X92516679Y-59229921D01*
X92333099Y-59469168D01*
X92182318Y-59730328D01*
X92182314Y-59730338D01*
X92066913Y-60008939D01*
X91988861Y-60300233D01*
X91949501Y-60599206D01*
X91949500Y-60599223D01*
X88374349Y-60599223D01*
X88404620Y-60557558D01*
X88414145Y-60538865D01*
X88414145Y-60538864D01*
X88414146Y-60538863D01*
X88501095Y-60368217D01*
X88566757Y-60166130D01*
X88566757Y-60166127D01*
X88597030Y-59975000D01*
X87654146Y-59975000D01*
X87692630Y-59908343D01*
X87725000Y-59787535D01*
X87725000Y-59662465D01*
X87692630Y-59541657D01*
X87654146Y-59475000D01*
X88597030Y-59475000D01*
X88566757Y-59283872D01*
X88566757Y-59283869D01*
X88501095Y-59081782D01*
X88404620Y-58892442D01*
X88279727Y-58720540D01*
X88279723Y-58720535D01*
X88129464Y-58570276D01*
X88129459Y-58570272D01*
X87957557Y-58445379D01*
X87768215Y-58348903D01*
X87566124Y-58283241D01*
X87500000Y-58272768D01*
X87500000Y-59320854D01*
X87433343Y-59282370D01*
X87312535Y-59250000D01*
X87187465Y-59250000D01*
X87066657Y-59282370D01*
X87000000Y-59320854D01*
X87000000Y-58272768D01*
X86999999Y-58272768D01*
X86933875Y-58283241D01*
X86731784Y-58348903D01*
X86542442Y-58445379D01*
X86370540Y-58570272D01*
X86370535Y-58570276D01*
X86220276Y-58720535D01*
X86220272Y-58720540D01*
X86100627Y-58885218D01*
X86045297Y-58927884D01*
X85975684Y-58933863D01*
X85913889Y-58901257D01*
X85899991Y-58885218D01*
X85780109Y-58720214D01*
X85780105Y-58720209D01*
X85629786Y-58569890D01*
X85457820Y-58444951D01*
X85268414Y-58348444D01*
X85268413Y-58348443D01*
X85268412Y-58348443D01*
X85066243Y-58282754D01*
X85066241Y-58282753D01*
X85066240Y-58282753D01*
X84904957Y-58257208D01*
X84856287Y-58249500D01*
X84643713Y-58249500D01*
X84595042Y-58257208D01*
X84433760Y-58282753D01*
X84231585Y-58348444D01*
X84042179Y-58444951D01*
X83870215Y-58569889D01*
X83731398Y-58708706D01*
X83670075Y-58742190D01*
X83600383Y-58737206D01*
X83544450Y-58695334D01*
X83538178Y-58686120D01*
X83442712Y-58531344D01*
X83318657Y-58407289D01*
X83318656Y-58407288D01*
X83169334Y-58315186D01*
X83002797Y-58260001D01*
X83002795Y-58260000D01*
X82900010Y-58249500D01*
X81599998Y-58249500D01*
X81599981Y-58249501D01*
X81497203Y-58260000D01*
X81497200Y-58260001D01*
X81330668Y-58315185D01*
X81330663Y-58315187D01*
X81181342Y-58407289D01*
X81057289Y-58531342D01*
X80965187Y-58680663D01*
X80965184Y-58680671D01*
X80953972Y-58714506D01*
X80914199Y-58771950D01*
X80849683Y-58798772D01*
X80836267Y-58799500D01*
X79110804Y-58799500D01*
X79043765Y-58779815D01*
X78998010Y-58727011D01*
X78988066Y-58657853D01*
X79014702Y-58597140D01*
X79034277Y-58573132D01*
X79128442Y-58392861D01*
X79184390Y-58197328D01*
X79184391Y-58197325D01*
X79194999Y-58078000D01*
X79195000Y-58077998D01*
X79195000Y-57670000D01*
X78495000Y-57670000D01*
X78495000Y-57170000D01*
X79195000Y-57170000D01*
X79195000Y-56762002D01*
X79194999Y-56761999D01*
X79184391Y-56642674D01*
X79184390Y-56642671D01*
X79128442Y-56447138D01*
X79034278Y-56266870D01*
X78905753Y-56109246D01*
X78748129Y-55980721D01*
X78567862Y-55886557D01*
X78445000Y-55851402D01*
X78445000Y-56753011D01*
X78435060Y-56735795D01*
X78379205Y-56679940D01*
X78310796Y-56640444D01*
X78234496Y-56620000D01*
X78155504Y-56620000D01*
X78079204Y-56640444D01*
X78010795Y-56679940D01*
X77954940Y-56735795D01*
X77945000Y-56753011D01*
X77945000Y-55851402D01*
X77822137Y-55886557D01*
X77641870Y-55980721D01*
X77484246Y-56109246D01*
X77355721Y-56266870D01*
X77261557Y-56447137D01*
X77207501Y-56636058D01*
X77170133Y-56695096D01*
X77106780Y-56724559D01*
X77075046Y-56725237D01*
X77072849Y-56725001D01*
X77072828Y-56725000D01*
X76875000Y-56725000D01*
X76875000Y-58026000D01*
X76855315Y-58093039D01*
X76802511Y-58138794D01*
X76751000Y-58150000D01*
X76499000Y-58150000D01*
X76431961Y-58130315D01*
X76386206Y-58077511D01*
X76375000Y-58026000D01*
X76375000Y-56725000D01*
X76177155Y-56725000D01*
X76117627Y-56731401D01*
X76117616Y-56731404D01*
X76039046Y-56760708D01*
X75969354Y-56765692D01*
X75952382Y-56760708D01*
X75872485Y-56730909D01*
X75872483Y-56730908D01*
X75812883Y-56724501D01*
X75812881Y-56724500D01*
X75812873Y-56724500D01*
X75812865Y-56724500D01*
X75412875Y-56724500D01*
X75345836Y-56704815D01*
X75300081Y-56652011D01*
X75291258Y-56624692D01*
X75269738Y-56516508D01*
X75269737Y-56516507D01*
X75269737Y-56516503D01*
X75269735Y-56516498D01*
X75209397Y-56370827D01*
X75209390Y-56370814D01*
X75121789Y-56239711D01*
X75121786Y-56239707D01*
X75010292Y-56128213D01*
X75010288Y-56128210D01*
X74879185Y-56040609D01*
X74879172Y-56040602D01*
X74733501Y-55980264D01*
X74733489Y-55980261D01*
X74578845Y-55949500D01*
X74578842Y-55949500D01*
X74421158Y-55949500D01*
X74421155Y-55949500D01*
X74266510Y-55980261D01*
X74266498Y-55980264D01*
X74120827Y-56040602D01*
X74120814Y-56040609D01*
X73989711Y-56128210D01*
X73989707Y-56128213D01*
X73962681Y-56155240D01*
X73901358Y-56188725D01*
X73831666Y-56183741D01*
X73787319Y-56155240D01*
X73760292Y-56128213D01*
X73760288Y-56128210D01*
X73629185Y-56040609D01*
X73629172Y-56040602D01*
X73483501Y-55980264D01*
X73483489Y-55980261D01*
X73328845Y-55949500D01*
X73328842Y-55949500D01*
X73171158Y-55949500D01*
X73171155Y-55949500D01*
X73016510Y-55980261D01*
X73016498Y-55980264D01*
X72870827Y-56040602D01*
X72870814Y-56040609D01*
X72739711Y-56128210D01*
X72739707Y-56128213D01*
X72628213Y-56239707D01*
X72628210Y-56239711D01*
X72540609Y-56370814D01*
X72540602Y-56370827D01*
X72480264Y-56516498D01*
X72480261Y-56516508D01*
X72458742Y-56624692D01*
X72426357Y-56686603D01*
X72365641Y-56721177D01*
X72337125Y-56724500D01*
X71937129Y-56724500D01*
X71937123Y-56724501D01*
X71877514Y-56730909D01*
X71797617Y-56760708D01*
X71727925Y-56765692D01*
X71710953Y-56760708D01*
X71632383Y-56731403D01*
X71632372Y-56731401D01*
X71572844Y-56725000D01*
X71375000Y-56725000D01*
X71375000Y-59557853D01*
X71368931Y-59596171D01*
X71329060Y-59718881D01*
X71299500Y-59905513D01*
X70538555Y-59905513D01*
X70402697Y-59860494D01*
X70402690Y-59860493D01*
X70299986Y-59850000D01*
X69500000Y-59850000D01*
X69500000Y-61000000D01*
X69000000Y-61000000D01*
X69000000Y-59850000D01*
X68200028Y-59850000D01*
X68200012Y-59850001D01*
X68097302Y-59860494D01*
X67930880Y-59915641D01*
X67930875Y-59915643D01*
X67781654Y-60007684D01*
X67657684Y-60131654D01*
X67565643Y-60280875D01*
X67565641Y-60280880D01*
X67510494Y-60447302D01*
X67510493Y-60447309D01*
X67500000Y-60550013D01*
X56544023Y-60550013D01*
X56530500Y-60447302D01*
X56511138Y-60300232D01*
X56433087Y-60008942D01*
X56431945Y-60006186D01*
X56371597Y-59860493D01*
X56317683Y-59730332D01*
X56311072Y-59718882D01*
X56166900Y-59469168D01*
X55983320Y-59229921D01*
X55983314Y-59229914D01*
X55770085Y-59016685D01*
X55770078Y-59016679D01*
X55530831Y-58833099D01*
X55269671Y-58682318D01*
X55269661Y-58682314D01*
X54991060Y-58566913D01*
X54699766Y-58488861D01*
X54400793Y-58449501D01*
X54400788Y-58449500D01*
X54400783Y-58449500D01*
X54099217Y-58449500D01*
X54099211Y-58449500D01*
X54099206Y-58449501D01*
X53800233Y-58488861D01*
X53508939Y-58566913D01*
X53230338Y-58682314D01*
X53230328Y-58682318D01*
X52969168Y-58833099D01*
X52729921Y-59016679D01*
X52729914Y-59016685D01*
X52516685Y-59229914D01*
X52516679Y-59229921D01*
X52333099Y-59469168D01*
X52182318Y-59730328D01*
X52182314Y-59730338D01*
X52066913Y-60008939D01*
X51988861Y-60300233D01*
X51949501Y-60599206D01*
X51949500Y-60599223D01*
X50750500Y-60599223D01*
X50750500Y-56761999D01*
X68555000Y-56761999D01*
X68555000Y-57170000D01*
X69255000Y-57170000D01*
X69255000Y-57670000D01*
X68555000Y-57670000D01*
X68555000Y-58078000D01*
X68565608Y-58197325D01*
X68565609Y-58197328D01*
X68621557Y-58392861D01*
X68715721Y-58573129D01*
X68844246Y-58730753D01*
X69001870Y-58859278D01*
X69182139Y-58953442D01*
X69304999Y-58988596D01*
X69305000Y-58988596D01*
X69305000Y-58086988D01*
X69314940Y-58104205D01*
X69370795Y-58160060D01*
X69439204Y-58199556D01*
X69515504Y-58220000D01*
X69594496Y-58220000D01*
X69670796Y-58199556D01*
X69739205Y-58160060D01*
X69795060Y-58104205D01*
X69805000Y-58086988D01*
X69805000Y-58988596D01*
X69927858Y-58953443D01*
X70043588Y-58892991D01*
X70112123Y-58879400D01*
X70177127Y-58905019D01*
X70217960Y-58961714D01*
X70225000Y-59002900D01*
X70225000Y-59122844D01*
X70231401Y-59182372D01*
X70231403Y-59182379D01*
X70281645Y-59317086D01*
X70281649Y-59317093D01*
X70367809Y-59432187D01*
X70367812Y-59432190D01*
X70482906Y-59518350D01*
X70482913Y-59518354D01*
X70617620Y-59568596D01*
X70617627Y-59568598D01*
X70677155Y-59574999D01*
X70677172Y-59575000D01*
X70875000Y-59575000D01*
X70875000Y-56725000D01*
X70677161Y-56725000D01*
X70674950Y-56725238D01*
X70674441Y-56725146D01*
X70673847Y-56725178D01*
X70673839Y-56725037D01*
X70606193Y-56712821D01*
X70555063Y-56665203D01*
X70542498Y-56636057D01*
X70488442Y-56447138D01*
X70394278Y-56266870D01*
X70265753Y-56109246D01*
X70108129Y-55980721D01*
X69927862Y-55886557D01*
X69805000Y-55851402D01*
X69805000Y-56753011D01*
X69795060Y-56735795D01*
X69739205Y-56679940D01*
X69670796Y-56640444D01*
X69594496Y-56620000D01*
X69515504Y-56620000D01*
X69439204Y-56640444D01*
X69370795Y-56679940D01*
X69314940Y-56735795D01*
X69305000Y-56753011D01*
X69305000Y-55851402D01*
X69182137Y-55886557D01*
X69001870Y-55980721D01*
X68844246Y-56109246D01*
X68715721Y-56266870D01*
X68621557Y-56447138D01*
X68565609Y-56642671D01*
X68565608Y-56642674D01*
X68555000Y-56761999D01*
X50750500Y-56761999D01*
X50750500Y-50493713D01*
X53349500Y-50493713D01*
X53349500Y-50706286D01*
X53382753Y-50916239D01*
X53448444Y-51118414D01*
X53544951Y-51307820D01*
X53669890Y-51479786D01*
X53783430Y-51593326D01*
X53816915Y-51654649D01*
X53811931Y-51724341D01*
X53770059Y-51780274D01*
X53739083Y-51797189D01*
X53607669Y-51846203D01*
X53607664Y-51846206D01*
X53492455Y-51932452D01*
X53492452Y-51932455D01*
X53406206Y-52047664D01*
X53406202Y-52047671D01*
X53355908Y-52182517D01*
X53350775Y-52230264D01*
X53349501Y-52242123D01*
X53349500Y-52242135D01*
X53349500Y-54037870D01*
X53349501Y-54037876D01*
X53355908Y-54097483D01*
X53406202Y-54232328D01*
X53406206Y-54232335D01*
X53492452Y-54347544D01*
X53492455Y-54347547D01*
X53607664Y-54433793D01*
X53607671Y-54433797D01*
X53742517Y-54484091D01*
X53742516Y-54484091D01*
X53749444Y-54484835D01*
X53802127Y-54490500D01*
X55597872Y-54490499D01*
X55657483Y-54484091D01*
X55792331Y-54433796D01*
X55907546Y-54347546D01*
X55993796Y-54232331D01*
X56044091Y-54097483D01*
X56050500Y-54037873D01*
X56050499Y-52421153D01*
X65949500Y-52421153D01*
X65949500Y-52578846D01*
X65980261Y-52733489D01*
X65980264Y-52733501D01*
X66040602Y-52879172D01*
X66040609Y-52879185D01*
X66128602Y-53010874D01*
X66149480Y-53077551D01*
X66149500Y-53079765D01*
X66149500Y-54420234D01*
X66129815Y-54487273D01*
X66128602Y-54489125D01*
X66040609Y-54620814D01*
X66040602Y-54620827D01*
X65980264Y-54766498D01*
X65980261Y-54766510D01*
X65949500Y-54921153D01*
X65949500Y-55078846D01*
X65980261Y-55233489D01*
X65980264Y-55233501D01*
X66040602Y-55379172D01*
X66040609Y-55379185D01*
X66128210Y-55510288D01*
X66128213Y-55510292D01*
X66239707Y-55621786D01*
X66239711Y-55621789D01*
X66370814Y-55709390D01*
X66370827Y-55709397D01*
X66516498Y-55769735D01*
X66516503Y-55769737D01*
X66671153Y-55800499D01*
X66671156Y-55800500D01*
X66671158Y-55800500D01*
X66828844Y-55800500D01*
X66828845Y-55800499D01*
X66983497Y-55769737D01*
X67129179Y-55709394D01*
X67260289Y-55621789D01*
X67371789Y-55510289D01*
X67459394Y-55379179D01*
X67519737Y-55233497D01*
X67550500Y-55078842D01*
X67550500Y-54921158D01*
X67550500Y-54921155D01*
X67550499Y-54921153D01*
X67519738Y-54766510D01*
X67519737Y-54766503D01*
X67519735Y-54766498D01*
X67459397Y-54620827D01*
X67459390Y-54620814D01*
X67371398Y-54489125D01*
X67350520Y-54422447D01*
X67350500Y-54420234D01*
X67350500Y-53079765D01*
X67355403Y-53062848D01*
X67355285Y-53045652D01*
X67368918Y-53016225D01*
X67369724Y-53013447D01*
X67371608Y-53010469D01*
X67371789Y-53010289D01*
X67431348Y-52921153D01*
X89449500Y-52921153D01*
X89449500Y-53078846D01*
X89480261Y-53233489D01*
X89480264Y-53233501D01*
X89540602Y-53379172D01*
X89540609Y-53379185D01*
X89628210Y-53510288D01*
X89628213Y-53510292D01*
X89739707Y-53621786D01*
X89739711Y-53621789D01*
X89870814Y-53709390D01*
X89870827Y-53709397D01*
X90016498Y-53769735D01*
X90016503Y-53769737D01*
X90171153Y-53800499D01*
X90171156Y-53800500D01*
X90171158Y-53800500D01*
X90328844Y-53800500D01*
X90328845Y-53800499D01*
X90483497Y-53769737D01*
X90629179Y-53709394D01*
X90629185Y-53709390D01*
X90760875Y-53621398D01*
X90827553Y-53600520D01*
X90829766Y-53600500D01*
X91170234Y-53600500D01*
X91237273Y-53620185D01*
X91239125Y-53621398D01*
X91370814Y-53709390D01*
X91370827Y-53709397D01*
X91516498Y-53769735D01*
X91516503Y-53769737D01*
X91671153Y-53800499D01*
X91671156Y-53800500D01*
X91671158Y-53800500D01*
X91828844Y-53800500D01*
X91828845Y-53800499D01*
X91983497Y-53769737D01*
X92129179Y-53709394D01*
X92260289Y-53621789D01*
X92371789Y-53510289D01*
X92459394Y-53379179D01*
X92519737Y-53233497D01*
X92550500Y-53078842D01*
X92550500Y-52921158D01*
X92550500Y-52921155D01*
X92550499Y-52921153D01*
X92519738Y-52766510D01*
X92519737Y-52766503D01*
X92506062Y-52733489D01*
X92459397Y-52620827D01*
X92459390Y-52620814D01*
X92371789Y-52489711D01*
X92371786Y-52489707D01*
X92260292Y-52378213D01*
X92260288Y-52378210D01*
X92129185Y-52290609D01*
X92129172Y-52290602D01*
X91983501Y-52230264D01*
X91983489Y-52230261D01*
X91828845Y-52199500D01*
X91828842Y-52199500D01*
X91671158Y-52199500D01*
X91671155Y-52199500D01*
X91516510Y-52230261D01*
X91516498Y-52230264D01*
X91370827Y-52290602D01*
X91370814Y-52290609D01*
X91239125Y-52378602D01*
X91172447Y-52399480D01*
X91170234Y-52399500D01*
X90829766Y-52399500D01*
X90762727Y-52379815D01*
X90760875Y-52378602D01*
X90629185Y-52290609D01*
X90629172Y-52290602D01*
X90483501Y-52230264D01*
X90483489Y-52230261D01*
X90328845Y-52199500D01*
X90328842Y-52199500D01*
X90171158Y-52199500D01*
X90171155Y-52199500D01*
X90016510Y-52230261D01*
X90016498Y-52230264D01*
X89870827Y-52290602D01*
X89870814Y-52290609D01*
X89739711Y-52378210D01*
X89739707Y-52378213D01*
X89628213Y-52489707D01*
X89628210Y-52489711D01*
X89540609Y-52620814D01*
X89540602Y-52620827D01*
X89480264Y-52766498D01*
X89480261Y-52766510D01*
X89449500Y-52921153D01*
X67431348Y-52921153D01*
X67459394Y-52879179D01*
X67519737Y-52733497D01*
X67550500Y-52578842D01*
X67550500Y-52421158D01*
X67550500Y-52421155D01*
X67550499Y-52421153D01*
X67524531Y-52290606D01*
X67519737Y-52266503D01*
X67509636Y-52242116D01*
X67459397Y-52120827D01*
X67459390Y-52120814D01*
X67371789Y-51989711D01*
X67371786Y-51989707D01*
X67260292Y-51878213D01*
X67260288Y-51878210D01*
X67129185Y-51790609D01*
X67129172Y-51790602D01*
X66983501Y-51730264D01*
X66983489Y-51730261D01*
X66828845Y-51699500D01*
X66828842Y-51699500D01*
X66671158Y-51699500D01*
X66671155Y-51699500D01*
X66516510Y-51730261D01*
X66516498Y-51730264D01*
X66370827Y-51790602D01*
X66370814Y-51790609D01*
X66239711Y-51878210D01*
X66239707Y-51878213D01*
X66128213Y-51989707D01*
X66128210Y-51989711D01*
X66040609Y-52120814D01*
X66040602Y-52120827D01*
X65980264Y-52266498D01*
X65980261Y-52266510D01*
X65949500Y-52421153D01*
X56050499Y-52421153D01*
X56050499Y-52242128D01*
X56044091Y-52182517D01*
X56021077Y-52120814D01*
X55993797Y-52047671D01*
X55993793Y-52047664D01*
X55907547Y-51932455D01*
X55907544Y-51932452D01*
X55792335Y-51846206D01*
X55792328Y-51846202D01*
X55660917Y-51797189D01*
X55604983Y-51755318D01*
X55580566Y-51689853D01*
X55595418Y-51621580D01*
X55616563Y-51593332D01*
X55730104Y-51479792D01*
X55855051Y-51307816D01*
X55951557Y-51118412D01*
X56017246Y-50916243D01*
X56050500Y-50706287D01*
X56050500Y-50493713D01*
X56017246Y-50283757D01*
X55951557Y-50081588D01*
X55855051Y-49892184D01*
X55855049Y-49892181D01*
X55855048Y-49892179D01*
X55730109Y-49720213D01*
X55579786Y-49569890D01*
X55407817Y-49444949D01*
X55398504Y-49440204D01*
X55347707Y-49392230D01*
X55330912Y-49324409D01*
X55353449Y-49258274D01*
X55398507Y-49219232D01*
X55407555Y-49214622D01*
X55461716Y-49175270D01*
X55461717Y-49175270D01*
X55207600Y-48921153D01*
X69449500Y-48921153D01*
X69449500Y-49078846D01*
X69480261Y-49233489D01*
X69480264Y-49233501D01*
X69540602Y-49379172D01*
X69540609Y-49379185D01*
X69628210Y-49510288D01*
X69628213Y-49510292D01*
X69739707Y-49621786D01*
X69739711Y-49621789D01*
X69870814Y-49709390D01*
X69870827Y-49709397D01*
X70015798Y-49769445D01*
X70016503Y-49769737D01*
X70168509Y-49799973D01*
X70171153Y-49800499D01*
X70171156Y-49800500D01*
X70171158Y-49800500D01*
X70328844Y-49800500D01*
X70484965Y-49769445D01*
X70554557Y-49775672D01*
X70609734Y-49818535D01*
X70632515Y-49878461D01*
X70635000Y-49902796D01*
X70635001Y-49902799D01*
X70690115Y-50069119D01*
X70690186Y-50069334D01*
X70782288Y-50218656D01*
X70906344Y-50342712D01*
X71055666Y-50434814D01*
X71222203Y-50489999D01*
X71324991Y-50500500D01*
X71975008Y-50500499D01*
X71975016Y-50500498D01*
X71975019Y-50500498D01*
X72041439Y-50493713D01*
X72077797Y-50489999D01*
X72244334Y-50434814D01*
X72393656Y-50342712D01*
X72517712Y-50218656D01*
X72609814Y-50069334D01*
X72664999Y-49902797D01*
X72675500Y-49800009D01*
X72675500Y-49799986D01*
X75075001Y-49799986D01*
X75085494Y-49902697D01*
X75140641Y-50069119D01*
X75140643Y-50069124D01*
X75232684Y-50218345D01*
X75356654Y-50342315D01*
X75505875Y-50434356D01*
X75505880Y-50434358D01*
X75672302Y-50489505D01*
X75672309Y-50489506D01*
X75775019Y-50499999D01*
X76350000Y-50499999D01*
X76424972Y-50499999D01*
X76424986Y-50499998D01*
X76527697Y-50489505D01*
X76694119Y-50434358D01*
X76694124Y-50434356D01*
X76843345Y-50342315D01*
X76967315Y-50218345D01*
X77059356Y-50069124D01*
X77059358Y-50069119D01*
X77114505Y-49902697D01*
X77114506Y-49902690D01*
X77124999Y-49799986D01*
X77125000Y-49799973D01*
X77125000Y-49250000D01*
X76350000Y-49250000D01*
X76350000Y-50499999D01*
X75775019Y-50499999D01*
X75849999Y-50499998D01*
X75850000Y-50499998D01*
X75850000Y-49250000D01*
X75075001Y-49250000D01*
X75075001Y-49799986D01*
X72675500Y-49799986D01*
X72675499Y-48921158D01*
X72675499Y-48200013D01*
X75075000Y-48200013D01*
X75075000Y-48750000D01*
X75850000Y-48750000D01*
X76350000Y-48750000D01*
X77124999Y-48750000D01*
X77124999Y-48200028D01*
X77124998Y-48200013D01*
X77114505Y-48097302D01*
X77059358Y-47930880D01*
X77059356Y-47930875D01*
X76967315Y-47781654D01*
X76843345Y-47657684D01*
X76694124Y-47565643D01*
X76694119Y-47565641D01*
X76527697Y-47510494D01*
X76527690Y-47510493D01*
X76424986Y-47500000D01*
X76350000Y-47500000D01*
X76350000Y-48750000D01*
X75850000Y-48750000D01*
X75850000Y-47500000D01*
X75849999Y-47499999D01*
X75775028Y-47500000D01*
X75775011Y-47500001D01*
X75672302Y-47510494D01*
X75505880Y-47565641D01*
X75505875Y-47565643D01*
X75356654Y-47657684D01*
X75232684Y-47781654D01*
X75140643Y-47930875D01*
X75140641Y-47930880D01*
X75085494Y-48097302D01*
X75085493Y-48097309D01*
X75075000Y-48200013D01*
X72675499Y-48200013D01*
X72675499Y-48199998D01*
X72675498Y-48199981D01*
X72664999Y-48097203D01*
X72664998Y-48097200D01*
X72634692Y-48005744D01*
X72609814Y-47930666D01*
X72517712Y-47781344D01*
X72393656Y-47657288D01*
X72244334Y-47565186D01*
X72077797Y-47510001D01*
X72077795Y-47510000D01*
X71975016Y-47499500D01*
X71975009Y-47499500D01*
X71400097Y-47499500D01*
X71333058Y-47479815D01*
X71312416Y-47463181D01*
X71224319Y-47375084D01*
X71190834Y-47313761D01*
X71188000Y-47287403D01*
X71188000Y-46917507D01*
X71207685Y-46850468D01*
X71246903Y-46811968D01*
X71318656Y-46767712D01*
X71412319Y-46674049D01*
X71473642Y-46640564D01*
X71543334Y-46645548D01*
X71587681Y-46674049D01*
X71681344Y-46767712D01*
X71830666Y-46859814D01*
X71997203Y-46914999D01*
X72099991Y-46925500D01*
X72725008Y-46925499D01*
X72725016Y-46925498D01*
X72725019Y-46925498D01*
X72803245Y-46917507D01*
X72827797Y-46914999D01*
X72994334Y-46859814D01*
X73143656Y-46767712D01*
X73267712Y-46643656D01*
X73359814Y-46494334D01*
X73414999Y-46327797D01*
X73425500Y-46225009D01*
X73425499Y-45249983D01*
X74074500Y-45249983D01*
X74074500Y-46250001D01*
X74074501Y-46250019D01*
X74085000Y-46352796D01*
X74085001Y-46352799D01*
X74130370Y-46489711D01*
X74140186Y-46519334D01*
X74232288Y-46668656D01*
X74356344Y-46792712D01*
X74505666Y-46884814D01*
X74672203Y-46939999D01*
X74774991Y-46950500D01*
X75400008Y-46950499D01*
X75400016Y-46950498D01*
X75400019Y-46950498D01*
X75456513Y-46944727D01*
X75502797Y-46939999D01*
X75669334Y-46884814D01*
X75818656Y-46792712D01*
X75912319Y-46699049D01*
X75973642Y-46665564D01*
X76043334Y-46670548D01*
X76087681Y-46699049D01*
X76181344Y-46792712D01*
X76330666Y-46884814D01*
X76497203Y-46939999D01*
X76599991Y-46950500D01*
X77225008Y-46950499D01*
X77225016Y-46950498D01*
X77225019Y-46950498D01*
X77281513Y-46944727D01*
X77327797Y-46939999D01*
X77494334Y-46884814D01*
X77535101Y-46859668D01*
X77602489Y-46841229D01*
X77669152Y-46862150D01*
X77713923Y-46915792D01*
X77721812Y-46941015D01*
X77730261Y-46983492D01*
X77730264Y-46983501D01*
X77790602Y-47129172D01*
X77790609Y-47129185D01*
X77878210Y-47260288D01*
X77878213Y-47260292D01*
X77989707Y-47371786D01*
X77989711Y-47371789D01*
X78120814Y-47459390D01*
X78120827Y-47459397D01*
X78244186Y-47510493D01*
X78266503Y-47519737D01*
X78421153Y-47550499D01*
X78421156Y-47550500D01*
X78500594Y-47550500D01*
X78567633Y-47570185D01*
X78613388Y-47622989D01*
X78623332Y-47692147D01*
X78611079Y-47730795D01*
X78591117Y-47769970D01*
X78530290Y-47957173D01*
X78499500Y-48151577D01*
X78499500Y-48348422D01*
X78530290Y-48542826D01*
X78591117Y-48730029D01*
X78637835Y-48821717D01*
X78680476Y-48905405D01*
X78796172Y-49064646D01*
X78935354Y-49203828D01*
X79094595Y-49319524D01*
X79151352Y-49348443D01*
X79269970Y-49408882D01*
X79269972Y-49408882D01*
X79269975Y-49408884D01*
X79370317Y-49441487D01*
X79457173Y-49469709D01*
X79651578Y-49500500D01*
X79651583Y-49500500D01*
X79848422Y-49500500D01*
X80042826Y-49469709D01*
X80230025Y-49408884D01*
X80405405Y-49319524D01*
X80564646Y-49203828D01*
X80703828Y-49064646D01*
X80819524Y-48905405D01*
X80908884Y-48730025D01*
X80969709Y-48542826D01*
X80972386Y-48525925D01*
X81000500Y-48348422D01*
X81000500Y-48151577D01*
X80968976Y-47952546D01*
X80977930Y-47883253D01*
X81003768Y-47845467D01*
X81014661Y-47834574D01*
X81075984Y-47801089D01*
X81078151Y-47800638D01*
X81153052Y-47785738D01*
X81233497Y-47769737D01*
X81379179Y-47709394D01*
X81510289Y-47621789D01*
X81621789Y-47510289D01*
X81709394Y-47379179D01*
X81769737Y-47233497D01*
X81800500Y-47078842D01*
X81800500Y-46921158D01*
X81800500Y-46921155D01*
X81800499Y-46921153D01*
X81799275Y-46914998D01*
X81769737Y-46766503D01*
X81768018Y-46762352D01*
X81709397Y-46620827D01*
X81709390Y-46620814D01*
X81621789Y-46489711D01*
X81621786Y-46489707D01*
X81510292Y-46378213D01*
X81510288Y-46378210D01*
X81379185Y-46290609D01*
X81379172Y-46290602D01*
X81233501Y-46230264D01*
X81233489Y-46230261D01*
X81078845Y-46199500D01*
X81078842Y-46199500D01*
X80999406Y-46199500D01*
X80932367Y-46179815D01*
X80886612Y-46127011D01*
X80876668Y-46057853D01*
X80888921Y-46019205D01*
X80908882Y-45980029D01*
X80908882Y-45980028D01*
X80908884Y-45980025D01*
X80969709Y-45792826D01*
X80985264Y-45694615D01*
X81000500Y-45598422D01*
X81000500Y-45401577D01*
X80969709Y-45207173D01*
X80928011Y-45078842D01*
X80908884Y-45019975D01*
X80908882Y-45019972D01*
X80908882Y-45019970D01*
X80884114Y-44971361D01*
X80876117Y-44955666D01*
X80858532Y-44921153D01*
X86449500Y-44921153D01*
X86449500Y-45078846D01*
X86480261Y-45233489D01*
X86480264Y-45233501D01*
X86540602Y-45379172D01*
X86540609Y-45379185D01*
X86575304Y-45431109D01*
X86596182Y-45497786D01*
X86577698Y-45565167D01*
X86575304Y-45568891D01*
X86540609Y-45620814D01*
X86540602Y-45620827D01*
X86480264Y-45766498D01*
X86480261Y-45766510D01*
X86449500Y-45921153D01*
X86449500Y-46078846D01*
X86480261Y-46233489D01*
X86480264Y-46233501D01*
X86540602Y-46379172D01*
X86540609Y-46379185D01*
X86628210Y-46510288D01*
X86628213Y-46510292D01*
X86739707Y-46621786D01*
X86739711Y-46621789D01*
X86870814Y-46709390D01*
X86870827Y-46709397D01*
X86970060Y-46750500D01*
X87016503Y-46769737D01*
X87162285Y-46798735D01*
X87171153Y-46800499D01*
X87171156Y-46800500D01*
X87171158Y-46800500D01*
X87328844Y-46800500D01*
X87328845Y-46800499D01*
X87483497Y-46769737D01*
X87606681Y-46718713D01*
X87629172Y-46709397D01*
X87629172Y-46709396D01*
X87629179Y-46709394D01*
X87644661Y-46699049D01*
X87760875Y-46621398D01*
X87827553Y-46600520D01*
X87829766Y-46600500D01*
X88170234Y-46600500D01*
X88237273Y-46620185D01*
X88239125Y-46621398D01*
X88370814Y-46709390D01*
X88370827Y-46709397D01*
X88470060Y-46750500D01*
X88516503Y-46769737D01*
X88662285Y-46798735D01*
X88671153Y-46800499D01*
X88671156Y-46800500D01*
X88671158Y-46800500D01*
X88828844Y-46800500D01*
X88828845Y-46800499D01*
X88983497Y-46769737D01*
X89106681Y-46718713D01*
X89129172Y-46709397D01*
X89129172Y-46709396D01*
X89129179Y-46709394D01*
X89260289Y-46621789D01*
X89371789Y-46510289D01*
X89459394Y-46379179D01*
X89519737Y-46233497D01*
X89550500Y-46078842D01*
X89550500Y-45921158D01*
X89550500Y-45921155D01*
X89550499Y-45921153D01*
X89519738Y-45766510D01*
X89519737Y-45766503D01*
X89478912Y-45667941D01*
X89459396Y-45620825D01*
X89459394Y-45620822D01*
X89459394Y-45620821D01*
X89424694Y-45568889D01*
X89403816Y-45502215D01*
X89422300Y-45434835D01*
X89424676Y-45431136D01*
X89459394Y-45379179D01*
X89519737Y-45233497D01*
X89550500Y-45078842D01*
X89550500Y-44921158D01*
X89550500Y-44921155D01*
X89550499Y-44921153D01*
X89542149Y-44879174D01*
X89519737Y-44766503D01*
X89495210Y-44707288D01*
X89459397Y-44620827D01*
X89459390Y-44620814D01*
X89371789Y-44489711D01*
X89371786Y-44489707D01*
X89260292Y-44378213D01*
X89260288Y-44378210D01*
X89129185Y-44290609D01*
X89129172Y-44290602D01*
X88983501Y-44230264D01*
X88983489Y-44230261D01*
X88828845Y-44199500D01*
X88828842Y-44199500D01*
X88671158Y-44199500D01*
X88671155Y-44199500D01*
X88516510Y-44230261D01*
X88516498Y-44230264D01*
X88370827Y-44290602D01*
X88370814Y-44290609D01*
X88239125Y-44378602D01*
X88172447Y-44399480D01*
X88170234Y-44399500D01*
X87829766Y-44399500D01*
X87762727Y-44379815D01*
X87760875Y-44378602D01*
X87629185Y-44290609D01*
X87629172Y-44290602D01*
X87483501Y-44230264D01*
X87483489Y-44230261D01*
X87328845Y-44199500D01*
X87328842Y-44199500D01*
X87171158Y-44199500D01*
X87171155Y-44199500D01*
X87016510Y-44230261D01*
X87016498Y-44230264D01*
X86870827Y-44290602D01*
X86870814Y-44290609D01*
X86739711Y-44378210D01*
X86739707Y-44378213D01*
X86628213Y-44489707D01*
X86628210Y-44489711D01*
X86540609Y-44620814D01*
X86540602Y-44620827D01*
X86480264Y-44766498D01*
X86480261Y-44766510D01*
X86449500Y-44921153D01*
X80858532Y-44921153D01*
X80819524Y-44844595D01*
X80703828Y-44685354D01*
X80676513Y-44658039D01*
X80643028Y-44596716D01*
X80648012Y-44527024D01*
X80661093Y-44501466D01*
X80709389Y-44429187D01*
X80709390Y-44429184D01*
X80709394Y-44429179D01*
X80710394Y-44426766D01*
X80729841Y-44379815D01*
X80769737Y-44283497D01*
X80800500Y-44128842D01*
X80800500Y-43971158D01*
X80800500Y-43971155D01*
X80800499Y-43971153D01*
X80782012Y-43878213D01*
X80769737Y-43816503D01*
X80769735Y-43816498D01*
X80709397Y-43670827D01*
X80709390Y-43670814D01*
X80621789Y-43539711D01*
X80621786Y-43539707D01*
X80510292Y-43428213D01*
X80510288Y-43428210D01*
X80379185Y-43340609D01*
X80379172Y-43340602D01*
X80233501Y-43280264D01*
X80233489Y-43280261D01*
X80078845Y-43249500D01*
X80078842Y-43249500D01*
X79921158Y-43249500D01*
X79921155Y-43249500D01*
X79766510Y-43280261D01*
X79766498Y-43280264D01*
X79620827Y-43340602D01*
X79620814Y-43340609D01*
X79489711Y-43428210D01*
X79489707Y-43428213D01*
X79378213Y-43539707D01*
X79378210Y-43539711D01*
X79290609Y-43670814D01*
X79290602Y-43670827D01*
X79230264Y-43816498D01*
X79230261Y-43816510D01*
X79199500Y-43971153D01*
X79199500Y-44128846D01*
X79226010Y-44262123D01*
X79219783Y-44331715D01*
X79176919Y-44386892D01*
X79160689Y-44396798D01*
X79094597Y-44430474D01*
X79062959Y-44453461D01*
X78935354Y-44546172D01*
X78935352Y-44546174D01*
X78935351Y-44546174D01*
X78796174Y-44685351D01*
X78796174Y-44685352D01*
X78796172Y-44685354D01*
X78761200Y-44733489D01*
X78680476Y-44844594D01*
X78591117Y-45019970D01*
X78530290Y-45207173D01*
X78499500Y-45401577D01*
X78499500Y-45600902D01*
X78479815Y-45667941D01*
X78427011Y-45713696D01*
X78357853Y-45723640D01*
X78294297Y-45694615D01*
X78287819Y-45688583D01*
X77987590Y-45388355D01*
X77987588Y-45388352D01*
X77961818Y-45362582D01*
X77928333Y-45301259D01*
X77925499Y-45274901D01*
X77925499Y-45249998D01*
X77925498Y-45249981D01*
X77914999Y-45147203D01*
X77914998Y-45147200D01*
X77906715Y-45122203D01*
X77859814Y-44980666D01*
X77767712Y-44831344D01*
X77643656Y-44707288D01*
X77503470Y-44620821D01*
X77494336Y-44615187D01*
X77494331Y-44615185D01*
X77492862Y-44614698D01*
X77327797Y-44560001D01*
X77327795Y-44560000D01*
X77225010Y-44549500D01*
X76599998Y-44549500D01*
X76599980Y-44549501D01*
X76497203Y-44560000D01*
X76497196Y-44560002D01*
X76463503Y-44571167D01*
X76393674Y-44573568D01*
X76333633Y-44537836D01*
X76302441Y-44475315D01*
X76300500Y-44453461D01*
X76300500Y-44421155D01*
X76300499Y-44421153D01*
X76291957Y-44378210D01*
X76269737Y-44266503D01*
X76267923Y-44262123D01*
X76209397Y-44120827D01*
X76209390Y-44120814D01*
X76121789Y-43989711D01*
X76121786Y-43989707D01*
X76010292Y-43878213D01*
X76010288Y-43878210D01*
X75879185Y-43790609D01*
X75879172Y-43790602D01*
X75733501Y-43730264D01*
X75733489Y-43730261D01*
X75578845Y-43699500D01*
X75578842Y-43699500D01*
X75421158Y-43699500D01*
X75421155Y-43699500D01*
X75266510Y-43730261D01*
X75266498Y-43730264D01*
X75120827Y-43790602D01*
X75120814Y-43790609D01*
X74989711Y-43878210D01*
X74989707Y-43878213D01*
X74878213Y-43989707D01*
X74878210Y-43989711D01*
X74790609Y-44120814D01*
X74790602Y-44120827D01*
X74730264Y-44266498D01*
X74730261Y-44266508D01*
X74699362Y-44421847D01*
X74666977Y-44483758D01*
X74665426Y-44485336D01*
X74624213Y-44526549D01*
X74571180Y-44579581D01*
X74522510Y-44609603D01*
X74505671Y-44615183D01*
X74505668Y-44615185D01*
X74505666Y-44615185D01*
X74505666Y-44615186D01*
X74463041Y-44641477D01*
X74356342Y-44707289D01*
X74232289Y-44831342D01*
X74140187Y-44980663D01*
X74140186Y-44980666D01*
X74085001Y-45147203D01*
X74085001Y-45147204D01*
X74085000Y-45147204D01*
X74074500Y-45249983D01*
X73425499Y-45249983D01*
X73425499Y-45224992D01*
X73414999Y-45122203D01*
X73391870Y-45052407D01*
X73390289Y-45042786D01*
X73393418Y-45017404D01*
X73392539Y-44991847D01*
X73398104Y-44979388D01*
X73398838Y-44973442D01*
X73402993Y-44968446D01*
X73409543Y-44953783D01*
X73459394Y-44879179D01*
X73519737Y-44733497D01*
X73550500Y-44578842D01*
X73550500Y-44421158D01*
X73550500Y-44421155D01*
X73550499Y-44421153D01*
X73541957Y-44378210D01*
X73519737Y-44266503D01*
X73517923Y-44262123D01*
X73459397Y-44120827D01*
X73459390Y-44120814D01*
X73371789Y-43989711D01*
X73371786Y-43989707D01*
X73260292Y-43878213D01*
X73260288Y-43878210D01*
X73129185Y-43790609D01*
X73129172Y-43790602D01*
X72983501Y-43730264D01*
X72983489Y-43730261D01*
X72828845Y-43699500D01*
X72828842Y-43699500D01*
X72671158Y-43699500D01*
X72671155Y-43699500D01*
X72516510Y-43730261D01*
X72516498Y-43730264D01*
X72370827Y-43790602D01*
X72370814Y-43790609D01*
X72239711Y-43878210D01*
X72239707Y-43878213D01*
X72128213Y-43989707D01*
X72128210Y-43989711D01*
X72040609Y-44120814D01*
X72040602Y-44120827D01*
X71980264Y-44266498D01*
X71980261Y-44266510D01*
X71948311Y-44427132D01*
X71946474Y-44426766D01*
X71934057Y-44465185D01*
X71892869Y-44536527D01*
X71842303Y-44584743D01*
X71837113Y-44586925D01*
X71837211Y-44587134D01*
X71830669Y-44590184D01*
X71681342Y-44682289D01*
X71587681Y-44775951D01*
X71526358Y-44809436D01*
X71456666Y-44804452D01*
X71412319Y-44775951D01*
X71318657Y-44682289D01*
X71318656Y-44682288D01*
X71200814Y-44609603D01*
X71169336Y-44590187D01*
X71169331Y-44590185D01*
X71119184Y-44573568D01*
X71002797Y-44535001D01*
X71002795Y-44535000D01*
X70900010Y-44524500D01*
X70274998Y-44524500D01*
X70274980Y-44524501D01*
X70172203Y-44535000D01*
X70172200Y-44535001D01*
X70005668Y-44590185D01*
X70005663Y-44590187D01*
X69856342Y-44682289D01*
X69732289Y-44806342D01*
X69640187Y-44955663D01*
X69640185Y-44955668D01*
X69632325Y-44979388D01*
X69585001Y-45122203D01*
X69585001Y-45122204D01*
X69585000Y-45122204D01*
X69574500Y-45224983D01*
X69574500Y-46225001D01*
X69574501Y-46225019D01*
X69585000Y-46327796D01*
X69585001Y-46327799D01*
X69601707Y-46378213D01*
X69640186Y-46494334D01*
X69732288Y-46643656D01*
X69856344Y-46767712D01*
X69928096Y-46811968D01*
X69974821Y-46863915D01*
X69987000Y-46917507D01*
X69987000Y-47500830D01*
X69986999Y-47500848D01*
X69986999Y-47666554D01*
X69986998Y-47666554D01*
X70027923Y-47819285D01*
X70056858Y-47869400D01*
X70056859Y-47869404D01*
X70056860Y-47869404D01*
X70106979Y-47956214D01*
X70106981Y-47956217D01*
X70156508Y-48005744D01*
X70189993Y-48067067D01*
X70185009Y-48136759D01*
X70143137Y-48192692D01*
X70093019Y-48215042D01*
X70016508Y-48230261D01*
X70016498Y-48230264D01*
X69870827Y-48290602D01*
X69870814Y-48290609D01*
X69739711Y-48378210D01*
X69739707Y-48378213D01*
X69628213Y-48489707D01*
X69628210Y-48489711D01*
X69540609Y-48620814D01*
X69540602Y-48620827D01*
X69480264Y-48766498D01*
X69480261Y-48766510D01*
X69449500Y-48921153D01*
X55207600Y-48921153D01*
X54829408Y-48542962D01*
X54892993Y-48525925D01*
X55007007Y-48460099D01*
X55100099Y-48367007D01*
X55165925Y-48252993D01*
X55182962Y-48189408D01*
X55815270Y-48821717D01*
X55815271Y-48821716D01*
X55854620Y-48767558D01*
X55951095Y-48578217D01*
X56016757Y-48376130D01*
X56016757Y-48376127D01*
X56050000Y-48166246D01*
X56050000Y-47953753D01*
X56016757Y-47743872D01*
X56016757Y-47743869D01*
X55951095Y-47541782D01*
X55854624Y-47352449D01*
X55815270Y-47298282D01*
X55815269Y-47298282D01*
X55182962Y-47930590D01*
X55165925Y-47867007D01*
X55100099Y-47752993D01*
X55007007Y-47659901D01*
X54892993Y-47594075D01*
X54829409Y-47577037D01*
X55461716Y-46944728D01*
X55407550Y-46905375D01*
X55218217Y-46808904D01*
X55016129Y-46743242D01*
X54806246Y-46710000D01*
X54593754Y-46710000D01*
X54383872Y-46743242D01*
X54383869Y-46743242D01*
X54181782Y-46808904D01*
X53992439Y-46905380D01*
X53938282Y-46944727D01*
X53938282Y-46944728D01*
X54570591Y-47577037D01*
X54507007Y-47594075D01*
X54392993Y-47659901D01*
X54299901Y-47752993D01*
X54234075Y-47867007D01*
X54217037Y-47930591D01*
X53584728Y-47298282D01*
X53584727Y-47298282D01*
X53545380Y-47352439D01*
X53448904Y-47541782D01*
X53383242Y-47743869D01*
X53383242Y-47743872D01*
X53350000Y-47953753D01*
X53350000Y-48166246D01*
X53383242Y-48376127D01*
X53383242Y-48376130D01*
X53448904Y-48578217D01*
X53545375Y-48767550D01*
X53584728Y-48821716D01*
X54217037Y-48189408D01*
X54234075Y-48252993D01*
X54299901Y-48367007D01*
X54392993Y-48460099D01*
X54507007Y-48525925D01*
X54570590Y-48542962D01*
X53938282Y-49175269D01*
X53938282Y-49175270D01*
X53992452Y-49214626D01*
X53992451Y-49214626D01*
X54001495Y-49219234D01*
X54052292Y-49267208D01*
X54069087Y-49335029D01*
X54046550Y-49401164D01*
X54001499Y-49440202D01*
X53992182Y-49444949D01*
X53820213Y-49569890D01*
X53669890Y-49720213D01*
X53544951Y-49892179D01*
X53448444Y-50081585D01*
X53382753Y-50283760D01*
X53349500Y-50493713D01*
X50750500Y-50493713D01*
X50750500Y-42099223D01*
X51949500Y-42099223D01*
X51949500Y-42400776D01*
X51949501Y-42400793D01*
X51988861Y-42699766D01*
X52066913Y-42991060D01*
X52182314Y-43269661D01*
X52182318Y-43269671D01*
X52333099Y-43530831D01*
X52516679Y-43770078D01*
X52516685Y-43770085D01*
X52729914Y-43983314D01*
X52729921Y-43983320D01*
X52969168Y-44166900D01*
X53230328Y-44317681D01*
X53230329Y-44317681D01*
X53230332Y-44317683D01*
X53377404Y-44378602D01*
X53508939Y-44433086D01*
X53508940Y-44433086D01*
X53508942Y-44433087D01*
X53800232Y-44511138D01*
X54099217Y-44550500D01*
X54099224Y-44550500D01*
X54400776Y-44550500D01*
X54400783Y-44550500D01*
X54699768Y-44511138D01*
X54991058Y-44433087D01*
X55269668Y-44317683D01*
X55530832Y-44166900D01*
X55770080Y-43983319D01*
X55983319Y-43770080D01*
X56166900Y-43530832D01*
X56317683Y-43269668D01*
X56433087Y-42991058D01*
X56511138Y-42699768D01*
X56550500Y-42400783D01*
X56550500Y-42099217D01*
X56511138Y-41800232D01*
X56433087Y-41508942D01*
X56422547Y-41483497D01*
X56358487Y-41328842D01*
X56317683Y-41230332D01*
X56259282Y-41129179D01*
X56166900Y-40969168D01*
X55983320Y-40729921D01*
X55983314Y-40729914D01*
X55770085Y-40516685D01*
X55770078Y-40516679D01*
X55530831Y-40333099D01*
X55269671Y-40182318D01*
X55269661Y-40182314D01*
X54991060Y-40066913D01*
X54699766Y-39988861D01*
X54400793Y-39949501D01*
X54400788Y-39949500D01*
X54400783Y-39949500D01*
X54099217Y-39949500D01*
X54099211Y-39949500D01*
X54099206Y-39949501D01*
X53800233Y-39988861D01*
X53508939Y-40066913D01*
X53230338Y-40182314D01*
X53230328Y-40182318D01*
X52969168Y-40333099D01*
X52729921Y-40516679D01*
X52729914Y-40516685D01*
X52516685Y-40729914D01*
X52516679Y-40729921D01*
X52333099Y-40969168D01*
X52182318Y-41230328D01*
X52182314Y-41230338D01*
X52066913Y-41508939D01*
X51988861Y-41800233D01*
X51949501Y-42099206D01*
X51949500Y-42099223D01*
X50750500Y-42099223D01*
X50750500Y-38871153D01*
X68649500Y-38871153D01*
X68649500Y-39028846D01*
X68680261Y-39183489D01*
X68680264Y-39183501D01*
X68740602Y-39329172D01*
X68740609Y-39329185D01*
X68828210Y-39460288D01*
X68828213Y-39460292D01*
X68939707Y-39571786D01*
X68939711Y-39571789D01*
X69070814Y-39659390D01*
X69070827Y-39659397D01*
X69216498Y-39719735D01*
X69216503Y-39719737D01*
X69371153Y-39750499D01*
X69371156Y-39750500D01*
X69371158Y-39750500D01*
X69528844Y-39750500D01*
X69596750Y-39736992D01*
X69660089Y-39724393D01*
X69729680Y-39730620D01*
X69771961Y-39758329D01*
X69806344Y-39792712D01*
X69955666Y-39884814D01*
X70122203Y-39939999D01*
X70224991Y-39950500D01*
X71049902Y-39950499D01*
X71116941Y-39970183D01*
X71137583Y-39986818D01*
X71740139Y-40589374D01*
X71740149Y-40589385D01*
X71744479Y-40593715D01*
X71744480Y-40593716D01*
X71856284Y-40705520D01*
X71924188Y-40744724D01*
X71993215Y-40784577D01*
X72145942Y-40825500D01*
X72145943Y-40825500D01*
X72249782Y-40825500D01*
X72316821Y-40845185D01*
X72355319Y-40884401D01*
X72407288Y-40968656D01*
X72531344Y-41092712D01*
X72680666Y-41184814D01*
X72847203Y-41239999D01*
X72949991Y-41250500D01*
X74550008Y-41250499D01*
X74550498Y-41250449D01*
X74614207Y-41243941D01*
X74652797Y-41239999D01*
X74819334Y-41184814D01*
X74968656Y-41092712D01*
X75092712Y-40968656D01*
X75184814Y-40819334D01*
X75239999Y-40652797D01*
X75250500Y-40550009D01*
X75250499Y-39899992D01*
X75250498Y-39899983D01*
X76999500Y-39899983D01*
X76999500Y-40550001D01*
X76999501Y-40550019D01*
X77010000Y-40652796D01*
X77010001Y-40652799D01*
X77065185Y-40819331D01*
X77065187Y-40819336D01*
X77081131Y-40845185D01*
X77157288Y-40968656D01*
X77281344Y-41092712D01*
X77430666Y-41184814D01*
X77568018Y-41230328D01*
X77597206Y-41240000D01*
X77603820Y-41241416D01*
X77603279Y-41243941D01*
X77657106Y-41265886D01*
X77697273Y-41323056D01*
X77701456Y-41338678D01*
X77730261Y-41483491D01*
X77730264Y-41483501D01*
X77790602Y-41629172D01*
X77790609Y-41629185D01*
X77878210Y-41760288D01*
X77878213Y-41760292D01*
X77989707Y-41871786D01*
X77989711Y-41871789D01*
X78120814Y-41959390D01*
X78120827Y-41959397D01*
X78266498Y-42019735D01*
X78266503Y-42019737D01*
X78421153Y-42050499D01*
X78421156Y-42050500D01*
X78421158Y-42050500D01*
X78578844Y-42050500D01*
X78578845Y-42050499D01*
X78733497Y-42019737D01*
X78879179Y-41959394D01*
X79010289Y-41871789D01*
X79121789Y-41760289D01*
X79209394Y-41629179D01*
X79269737Y-41483497D01*
X79298543Y-41338678D01*
X79330927Y-41276768D01*
X79391643Y-41242194D01*
X79396184Y-41241429D01*
X79396181Y-41241415D01*
X79402791Y-41239999D01*
X79402797Y-41239999D01*
X79569334Y-41184814D01*
X79718656Y-41092712D01*
X79842712Y-40968656D01*
X79934814Y-40819334D01*
X79989999Y-40652797D01*
X80000500Y-40550009D01*
X80000499Y-39899992D01*
X79998948Y-39884812D01*
X79989999Y-39797203D01*
X79989998Y-39797200D01*
X79974523Y-39750499D01*
X79934814Y-39630666D01*
X79842712Y-39481344D01*
X79718656Y-39357288D01*
X79569334Y-39265186D01*
X79402797Y-39210001D01*
X79402795Y-39210000D01*
X79300010Y-39199500D01*
X77699998Y-39199500D01*
X77699981Y-39199501D01*
X77597203Y-39210000D01*
X77597200Y-39210001D01*
X77430668Y-39265185D01*
X77430663Y-39265187D01*
X77281342Y-39357289D01*
X77157289Y-39481342D01*
X77065187Y-39630663D01*
X77065186Y-39630666D01*
X77010001Y-39797203D01*
X77010001Y-39797204D01*
X77010000Y-39797204D01*
X76999500Y-39899983D01*
X75250498Y-39899983D01*
X75248948Y-39884812D01*
X75239999Y-39797203D01*
X75239998Y-39797200D01*
X75224523Y-39750499D01*
X75184814Y-39630666D01*
X75092712Y-39481344D01*
X74968656Y-39357288D01*
X74819334Y-39265186D01*
X74652797Y-39210001D01*
X74652795Y-39210000D01*
X74550010Y-39199500D01*
X72949998Y-39199500D01*
X72949981Y-39199501D01*
X72847203Y-39210000D01*
X72847200Y-39210001D01*
X72680668Y-39265185D01*
X72680663Y-39265187D01*
X72531345Y-39357287D01*
X72456614Y-39432018D01*
X72395290Y-39465502D01*
X72325599Y-39460517D01*
X72281252Y-39432017D01*
X72011818Y-39162583D01*
X71978333Y-39101260D01*
X71975499Y-39074902D01*
X71975499Y-38649998D01*
X71975498Y-38649981D01*
X71964999Y-38547203D01*
X71964998Y-38547200D01*
X71952767Y-38510289D01*
X71909814Y-38380666D01*
X71817712Y-38231344D01*
X71693656Y-38107288D01*
X71690342Y-38105243D01*
X71688546Y-38103248D01*
X71687989Y-38102807D01*
X71688064Y-38102711D01*
X71643618Y-38053297D01*
X71632397Y-37984334D01*
X71659849Y-37921153D01*
X80199500Y-37921153D01*
X80199500Y-38078846D01*
X80230261Y-38233489D01*
X80230264Y-38233501D01*
X80290602Y-38379172D01*
X80290609Y-38379185D01*
X80378210Y-38510288D01*
X80378213Y-38510292D01*
X80489707Y-38621786D01*
X80489711Y-38621789D01*
X80620814Y-38709390D01*
X80620827Y-38709397D01*
X80766498Y-38769735D01*
X80766503Y-38769737D01*
X80921153Y-38800499D01*
X80921156Y-38800500D01*
X80921158Y-38800500D01*
X81078844Y-38800500D01*
X81078845Y-38800499D01*
X81233497Y-38769737D01*
X81379179Y-38709394D01*
X81436044Y-38671397D01*
X81502721Y-38650520D01*
X81504935Y-38650500D01*
X83495065Y-38650500D01*
X83562104Y-38670185D01*
X83563909Y-38671366D01*
X83620821Y-38709394D01*
X83620823Y-38709395D01*
X83620827Y-38709397D01*
X83766498Y-38769735D01*
X83766503Y-38769737D01*
X83921153Y-38800499D01*
X83921156Y-38800500D01*
X84005311Y-38800500D01*
X84072350Y-38820185D01*
X84118105Y-38872989D01*
X84128049Y-38942147D01*
X84099024Y-39005703D01*
X84092992Y-39012181D01*
X83996839Y-39108333D01*
X83996836Y-39108337D01*
X83909235Y-39239440D01*
X83909228Y-39239453D01*
X83848890Y-39385124D01*
X83848887Y-39385136D01*
X83818126Y-39539779D01*
X83818126Y-39697472D01*
X83848887Y-39852115D01*
X83848890Y-39852127D01*
X83909228Y-39997798D01*
X83909235Y-39997811D01*
X83996836Y-40128914D01*
X83996839Y-40128918D01*
X84108333Y-40240412D01*
X84108337Y-40240415D01*
X84239440Y-40328016D01*
X84239453Y-40328023D01*
X84358497Y-40377332D01*
X84412901Y-40421172D01*
X84425606Y-40444440D01*
X84474917Y-40563489D01*
X84474922Y-40563498D01*
X84562523Y-40694601D01*
X84562526Y-40694605D01*
X84674020Y-40806099D01*
X84674024Y-40806102D01*
X84805127Y-40893703D01*
X84805140Y-40893710D01*
X84924184Y-40943019D01*
X84978588Y-40986859D01*
X84991293Y-41010127D01*
X85040604Y-41129176D01*
X85040609Y-41129185D01*
X85128210Y-41260288D01*
X85128213Y-41260292D01*
X85239707Y-41371786D01*
X85239711Y-41371789D01*
X85370814Y-41459390D01*
X85370827Y-41459397D01*
X85490434Y-41508939D01*
X85516503Y-41519737D01*
X85671153Y-41550499D01*
X85671156Y-41550500D01*
X85671158Y-41550500D01*
X85828844Y-41550500D01*
X85828845Y-41550499D01*
X85983497Y-41519737D01*
X86129179Y-41459394D01*
X86260289Y-41371789D01*
X86371789Y-41260289D01*
X86459394Y-41129179D01*
X86519737Y-40983497D01*
X86537597Y-40893710D01*
X86550638Y-40828151D01*
X86583023Y-40766240D01*
X86584574Y-40764661D01*
X86654634Y-40694601D01*
X86764665Y-40584570D01*
X86825984Y-40551088D01*
X86828151Y-40550637D01*
X86828840Y-40550500D01*
X86828842Y-40550500D01*
X86983497Y-40519737D01*
X87129179Y-40459394D01*
X87260289Y-40371789D01*
X87371789Y-40260289D01*
X87459394Y-40129179D01*
X87519737Y-39983497D01*
X87550500Y-39828842D01*
X87550500Y-39671158D01*
X87550500Y-39671155D01*
X87550499Y-39671153D01*
X87542446Y-39630668D01*
X87519737Y-39516503D01*
X87509198Y-39491060D01*
X87459397Y-39370827D01*
X87459390Y-39370814D01*
X87371789Y-39239711D01*
X87371786Y-39239707D01*
X87260292Y-39128213D01*
X87260288Y-39128210D01*
X87129185Y-39040609D01*
X87129176Y-39040604D01*
X87010127Y-38991293D01*
X86955724Y-38947452D01*
X86943019Y-38924184D01*
X86893710Y-38805140D01*
X86893703Y-38805127D01*
X86806101Y-38674022D01*
X86731302Y-38599223D01*
X91949500Y-38599223D01*
X91949500Y-38900776D01*
X91949501Y-38900793D01*
X91988861Y-39199766D01*
X92066913Y-39491060D01*
X92182314Y-39769661D01*
X92182318Y-39769671D01*
X92333099Y-40030831D01*
X92516679Y-40270078D01*
X92516685Y-40270085D01*
X92729914Y-40483314D01*
X92729921Y-40483320D01*
X92969168Y-40666900D01*
X93230328Y-40817681D01*
X93230329Y-40817681D01*
X93230332Y-40817683D01*
X93413861Y-40893703D01*
X93508939Y-40933086D01*
X93508940Y-40933086D01*
X93508942Y-40933087D01*
X93800232Y-41011138D01*
X94099217Y-41050500D01*
X94099224Y-41050500D01*
X94400776Y-41050500D01*
X94400783Y-41050500D01*
X94699768Y-41011138D01*
X94991058Y-40933087D01*
X95269668Y-40817683D01*
X95530832Y-40666900D01*
X95770080Y-40483319D01*
X95983319Y-40270080D01*
X96166900Y-40030832D01*
X96317683Y-39769668D01*
X96433087Y-39491058D01*
X96511138Y-39199768D01*
X96550500Y-38900783D01*
X96550500Y-38599217D01*
X96511138Y-38300232D01*
X96433087Y-38008942D01*
X96317683Y-37730332D01*
X96178760Y-37489711D01*
X96166900Y-37469168D01*
X95983320Y-37229921D01*
X95983314Y-37229914D01*
X95770085Y-37016685D01*
X95770078Y-37016679D01*
X95530831Y-36833099D01*
X95269671Y-36682318D01*
X95269661Y-36682314D01*
X94991060Y-36566913D01*
X94699766Y-36488861D01*
X94400793Y-36449501D01*
X94400788Y-36449500D01*
X94400783Y-36449500D01*
X94099217Y-36449500D01*
X94099211Y-36449500D01*
X94099206Y-36449501D01*
X93800233Y-36488861D01*
X93508939Y-36566913D01*
X93230338Y-36682314D01*
X93230328Y-36682318D01*
X92969168Y-36833099D01*
X92729921Y-37016679D01*
X92729914Y-37016685D01*
X92516685Y-37229914D01*
X92516679Y-37229921D01*
X92333099Y-37469168D01*
X92182318Y-37730328D01*
X92182314Y-37730338D01*
X92066913Y-38008939D01*
X91988861Y-38300233D01*
X91949501Y-38599206D01*
X91949500Y-38599223D01*
X86731302Y-38599223D01*
X86694605Y-38562526D01*
X86694601Y-38562523D01*
X86563498Y-38474922D01*
X86563489Y-38474917D01*
X86444440Y-38425606D01*
X86390037Y-38381765D01*
X86377332Y-38358497D01*
X86328023Y-38239453D01*
X86328016Y-38239440D01*
X86240415Y-38108337D01*
X86240412Y-38108333D01*
X86128918Y-37996839D01*
X86128914Y-37996836D01*
X85997811Y-37909235D01*
X85997798Y-37909228D01*
X85852127Y-37848890D01*
X85852115Y-37848887D01*
X85697471Y-37818126D01*
X85697468Y-37818126D01*
X85539784Y-37818126D01*
X85539781Y-37818126D01*
X85385136Y-37848887D01*
X85385124Y-37848890D01*
X85239453Y-37909228D01*
X85239440Y-37909235D01*
X85108337Y-37996836D01*
X85108333Y-37996839D01*
X85012181Y-38092992D01*
X84950858Y-38126477D01*
X84881166Y-38121493D01*
X84825233Y-38079621D01*
X84800816Y-38014157D01*
X84800500Y-38005311D01*
X84800500Y-37921155D01*
X84800499Y-37921153D01*
X84795654Y-37896798D01*
X84769737Y-37766503D01*
X84754753Y-37730328D01*
X84709397Y-37620827D01*
X84709390Y-37620814D01*
X84621789Y-37489711D01*
X84621786Y-37489707D01*
X84510292Y-37378213D01*
X84510288Y-37378210D01*
X84379185Y-37290609D01*
X84379172Y-37290602D01*
X84233501Y-37230264D01*
X84233489Y-37230261D01*
X84078845Y-37199500D01*
X84078842Y-37199500D01*
X83921158Y-37199500D01*
X83921155Y-37199500D01*
X83766510Y-37230261D01*
X83766498Y-37230264D01*
X83620827Y-37290602D01*
X83620820Y-37290606D01*
X83591928Y-37309911D01*
X83563955Y-37328602D01*
X83497279Y-37349480D01*
X83495065Y-37349500D01*
X81504935Y-37349500D01*
X81437896Y-37329815D01*
X81436090Y-37328633D01*
X81379179Y-37290606D01*
X81379172Y-37290602D01*
X81233501Y-37230264D01*
X81233489Y-37230261D01*
X81078845Y-37199500D01*
X81078842Y-37199500D01*
X80921158Y-37199500D01*
X80921155Y-37199500D01*
X80766510Y-37230261D01*
X80766498Y-37230264D01*
X80620827Y-37290602D01*
X80620814Y-37290609D01*
X80489711Y-37378210D01*
X80489707Y-37378213D01*
X80378213Y-37489707D01*
X80378210Y-37489711D01*
X80290609Y-37620814D01*
X80290602Y-37620827D01*
X80230264Y-37766498D01*
X80230261Y-37766510D01*
X80199500Y-37921153D01*
X71659849Y-37921153D01*
X71660240Y-37920252D01*
X71670748Y-37909134D01*
X71759755Y-37825905D01*
X71817315Y-37768345D01*
X71909356Y-37619124D01*
X71909358Y-37619119D01*
X71964505Y-37452697D01*
X71964506Y-37452690D01*
X71974999Y-37349986D01*
X71975000Y-37349973D01*
X71975000Y-37300000D01*
X69525001Y-37300000D01*
X69525001Y-37349986D01*
X69535494Y-37452697D01*
X69590641Y-37619119D01*
X69590643Y-37619124D01*
X69682684Y-37768345D01*
X69806657Y-37892318D01*
X69809652Y-37894165D01*
X69811275Y-37895969D01*
X69812323Y-37896798D01*
X69812181Y-37896976D01*
X69856379Y-37946110D01*
X69867604Y-38015073D01*
X69839764Y-38079156D01*
X69809662Y-38105241D01*
X69806344Y-38107287D01*
X69806339Y-38107291D01*
X69771959Y-38141671D01*
X69710636Y-38175156D01*
X69660088Y-38175606D01*
X69528845Y-38149500D01*
X69528842Y-38149500D01*
X69371158Y-38149500D01*
X69371155Y-38149500D01*
X69216510Y-38180261D01*
X69216498Y-38180264D01*
X69070827Y-38240602D01*
X69070814Y-38240609D01*
X68939711Y-38328210D01*
X68939707Y-38328213D01*
X68828213Y-38439707D01*
X68828210Y-38439711D01*
X68740609Y-38570814D01*
X68740602Y-38570827D01*
X68680264Y-38716498D01*
X68680261Y-38716510D01*
X68649500Y-38871153D01*
X50750500Y-38871153D01*
X50750500Y-36750013D01*
X69525000Y-36750013D01*
X69525000Y-36800000D01*
X70500000Y-36800000D01*
X71000000Y-36800000D01*
X71974999Y-36800000D01*
X71974999Y-36750028D01*
X71974998Y-36750013D01*
X71964505Y-36647302D01*
X71909358Y-36480880D01*
X71909356Y-36480875D01*
X71817315Y-36331654D01*
X71693345Y-36207684D01*
X71544124Y-36115643D01*
X71544119Y-36115641D01*
X71496874Y-36099986D01*
X72250001Y-36099986D01*
X72260494Y-36202697D01*
X72315641Y-36369119D01*
X72315643Y-36369124D01*
X72407684Y-36518345D01*
X72531654Y-36642315D01*
X72680875Y-36734356D01*
X72680880Y-36734358D01*
X72847302Y-36789505D01*
X72847309Y-36789506D01*
X72950019Y-36799999D01*
X73499999Y-36799999D01*
X74000000Y-36799999D01*
X74549972Y-36799999D01*
X74549986Y-36799998D01*
X74652697Y-36789505D01*
X74819119Y-36734358D01*
X74819124Y-36734356D01*
X74968345Y-36642315D01*
X75092315Y-36518345D01*
X75184356Y-36369124D01*
X75184358Y-36369119D01*
X75239505Y-36202697D01*
X75239506Y-36202690D01*
X75249999Y-36099986D01*
X77000001Y-36099986D01*
X77010494Y-36202697D01*
X77065641Y-36369119D01*
X77065643Y-36369124D01*
X77157684Y-36518345D01*
X77281654Y-36642315D01*
X77430875Y-36734356D01*
X77430880Y-36734358D01*
X77597302Y-36789505D01*
X77597309Y-36789506D01*
X77700019Y-36799999D01*
X78249999Y-36799999D01*
X78750000Y-36799999D01*
X79299972Y-36799999D01*
X79299986Y-36799998D01*
X79402697Y-36789505D01*
X79569119Y-36734358D01*
X79569124Y-36734356D01*
X79718345Y-36642315D01*
X79842315Y-36518345D01*
X79934356Y-36369124D01*
X79934358Y-36369119D01*
X79989505Y-36202697D01*
X79989506Y-36202690D01*
X79999999Y-36099986D01*
X80000000Y-36099973D01*
X80000000Y-36025000D01*
X78750000Y-36025000D01*
X78750000Y-36799999D01*
X78249999Y-36799999D01*
X78250000Y-36799998D01*
X78250000Y-36025000D01*
X77000001Y-36025000D01*
X77000001Y-36099986D01*
X75249999Y-36099986D01*
X75250000Y-36099973D01*
X75250000Y-36025000D01*
X74000000Y-36025000D01*
X74000000Y-36799999D01*
X73499999Y-36799999D01*
X73500000Y-36799998D01*
X73500000Y-36025000D01*
X72250001Y-36025000D01*
X72250001Y-36099986D01*
X71496874Y-36099986D01*
X71470794Y-36091344D01*
X71377697Y-36060494D01*
X71377690Y-36060493D01*
X71274986Y-36050000D01*
X71000000Y-36050000D01*
X71000000Y-36800000D01*
X70500000Y-36800000D01*
X70500000Y-36050000D01*
X70225029Y-36050000D01*
X70225012Y-36050001D01*
X70122302Y-36060494D01*
X69955880Y-36115641D01*
X69955875Y-36115643D01*
X69806654Y-36207684D01*
X69682684Y-36331654D01*
X69590643Y-36480875D01*
X69590641Y-36480880D01*
X69535494Y-36647302D01*
X69535493Y-36647309D01*
X69525000Y-36750013D01*
X50750500Y-36750013D01*
X50750500Y-35756959D01*
X50751280Y-35743077D01*
X50751320Y-35742717D01*
X50761458Y-35652732D01*
X50765437Y-35641362D01*
X50765351Y-35632897D01*
X50767629Y-35625684D01*
X50795353Y-35546457D01*
X50807393Y-35521453D01*
X50852046Y-35450389D01*
X50869351Y-35428690D01*
X50928690Y-35369351D01*
X50950389Y-35352046D01*
X51021453Y-35307393D01*
X51046457Y-35295353D01*
X51125668Y-35267635D01*
X51152729Y-35261459D01*
X51228753Y-35252893D01*
X51243078Y-35251280D01*
X51256960Y-35250500D01*
X51315892Y-35250500D01*
X72133070Y-35250500D01*
X72200109Y-35270185D01*
G37*
%TD.AperFunction*%
%TD*%
M02*
