%TF.GenerationSoftware,KiCad,Pcbnew,10.0.5*%
%TF.CreationDate,2026-08-19T02:20:16-07:00*%
%TF.ProjectId,controller,636f6e74-726f-46c6-9c65-722e6b696361,rev?*%
%TF.SameCoordinates,Original*%
%TF.FileFunction,Copper,L1,Top*%
%TF.FilePolarity,Positive*%
%FSLAX46Y46*%
G04 Gerber Fmt 4.6, Leading zero omitted, Abs format (unit mm)*
G04 Created by KiCad (PCBNEW 10.0.5) date 2026-08-19 02:20:16*
%MOMM*%
%LPD*%
G01*
G04 APERTURE LIST*
G04 Aperture macros list*
%AMRoundRect*
0 Rectangle with rounded corners*
0 $1 Rounding radius*
0 $2 $3 $4 $5 $6 $7 $8 $9 X,Y pos of 4 corners*
0 Add a 4 corners polygon primitive as box body*
4,1,4,$2,$3,$4,$5,$6,$7,$8,$9,$2,$3,0*
0 Add four circle primitives for the rounded corners*
1,1,$1+$1,$2,$3*
1,1,$1+$1,$4,$5*
1,1,$1+$1,$6,$7*
1,1,$1+$1,$8,$9*
0 Add four rect primitives between the rounded corners*
20,1,$1+$1,$2,$3,$4,$5,0*
20,1,$1+$1,$4,$5,$6,$7,0*
20,1,$1+$1,$6,$7,$8,$9,0*
20,1,$1+$1,$8,$9,$2,$3,0*%
G04 Aperture macros list end*
%TA.AperFunction,ComponentPad*%
%ADD10C,3.600000*%
%TD*%
%TA.AperFunction,ConnectorPad*%
%ADD11C,5.600000*%
%TD*%
%TA.AperFunction,SMDPad,CuDef*%
%ADD12C,1.500000*%
%TD*%
%TA.AperFunction,SMDPad,CuDef*%
%ADD13RoundRect,0.250000X0.262500X0.450000X-0.262500X0.450000X-0.262500X-0.450000X0.262500X-0.450000X0*%
%TD*%
%TA.AperFunction,SMDPad,CuDef*%
%ADD14RoundRect,0.375000X0.375000X-0.625000X0.375000X0.625000X-0.375000X0.625000X-0.375000X-0.625000X0*%
%TD*%
%TA.AperFunction,SMDPad,CuDef*%
%ADD15RoundRect,0.500000X1.400000X-0.500000X1.400000X0.500000X-1.400000X0.500000X-1.400000X-0.500000X0*%
%TD*%
%TA.AperFunction,SMDPad,CuDef*%
%ADD16RoundRect,0.162500X-0.617500X-0.162500X0.617500X-0.162500X0.617500X0.162500X-0.617500X0.162500X0*%
%TD*%
%TA.AperFunction,SMDPad,CuDef*%
%ADD17RoundRect,0.250000X-0.475000X0.250000X-0.475000X-0.250000X0.475000X-0.250000X0.475000X0.250000X0*%
%TD*%
%TA.AperFunction,SMDPad,CuDef*%
%ADD18RoundRect,0.250000X0.250000X0.475000X-0.250000X0.475000X-0.250000X-0.475000X0.250000X-0.475000X0*%
%TD*%
%TA.AperFunction,SMDPad,CuDef*%
%ADD19RoundRect,0.250000X-0.250000X-0.475000X0.250000X-0.475000X0.250000X0.475000X-0.250000X0.475000X0*%
%TD*%
%TA.AperFunction,SMDPad,CuDef*%
%ADD20RoundRect,0.250000X-0.262500X-0.450000X0.262500X-0.450000X0.262500X0.450000X-0.262500X0.450000X0*%
%TD*%
%TA.AperFunction,SMDPad,CuDef*%
%ADD21RoundRect,0.250000X0.475000X-0.250000X0.475000X0.250000X-0.475000X0.250000X-0.475000X-0.250000X0*%
%TD*%
%TA.AperFunction,SMDPad,CuDef*%
%ADD22RoundRect,0.250000X-0.325000X-0.450000X0.325000X-0.450000X0.325000X0.450000X-0.325000X0.450000X0*%
%TD*%
%TA.AperFunction,SMDPad,CuDef*%
%ADD23RoundRect,0.250000X-0.450000X0.262500X-0.450000X-0.262500X0.450000X-0.262500X0.450000X0.262500X0*%
%TD*%
%TA.AperFunction,SMDPad,CuDef*%
%ADD24R,1.500000X0.900000*%
%TD*%
%TA.AperFunction,SMDPad,CuDef*%
%ADD25R,0.900000X1.500000*%
%TD*%
%TA.AperFunction,ComponentPad*%
%ADD26RoundRect,0.250000X-0.600000X-0.725000X0.600000X-0.725000X0.600000X0.725000X-0.600000X0.725000X0*%
%TD*%
%TA.AperFunction,ComponentPad*%
%ADD27O,1.700000X1.950000*%
%TD*%
%TA.AperFunction,ComponentPad*%
%ADD28R,1.700000X1.700000*%
%TD*%
%TA.AperFunction,ComponentPad*%
%ADD29C,1.700000*%
%TD*%
%TA.AperFunction,ComponentPad*%
%ADD30RoundRect,0.500000X0.000010X0.600000X-0.000010X0.600000X-0.000010X-0.600000X0.000010X-0.600000X0*%
%TD*%
%TA.AperFunction,ViaPad*%
%ADD31C,0.600000*%
%TD*%
%TA.AperFunction,Conductor*%
%ADD32C,0.200000*%
%TD*%
%TA.AperFunction,Conductor*%
%ADD33C,0.300000*%
%TD*%
%TA.AperFunction,Conductor*%
%ADD34C,0.261900*%
%TD*%
G04 APERTURE END LIST*
D10*
%TO.P,H4,1*%
%TO.N,N/C*%
X54250000Y-42250000D03*
D11*
X54250000Y-42250000D03*
%TD*%
D12*
%TO.P,IO5,1,1_1*%
%TO.N,Net-(U1-IO5)*%
X62200000Y-41100000D03*
%TD*%
D10*
%TO.P,H3,1*%
%TO.N,N/C*%
X94250000Y-60750000D03*
D11*
X94250000Y-60750000D03*
%TD*%
D12*
%TO.P,IO41,1,1_1*%
%TO.N,Net-(U1-IO41)*%
X89750000Y-36500000D03*
%TD*%
D13*
%TO.P,R6,1*%
%TO.N,Net-(U1-IO17)*%
X66412500Y-63500000D03*
%TO.P,R6,2*%
%TO.N,Net-(D2-A)*%
X64587500Y-63500000D03*
%TD*%
D12*
%TO.P,IO39,1,1_1*%
%TO.N,Net-(U1-IO39)*%
X93500000Y-44800000D03*
%TD*%
D14*
%TO.P,U2,1,GND_1*%
%TO.N,GND*%
X85700000Y-48650000D03*
%TO.P,U2,2,VO_2*%
%TO.N,+3V3*%
X88000000Y-48650000D03*
D15*
X88000000Y-42350000D03*
D14*
%TO.P,U2,3,VI_3*%
%TO.N,+5V*%
X90300000Y-48650000D03*
%TD*%
D16*
%TO.P,U3,1,VCCA_1*%
%TO.N,+3V3*%
X88400000Y-54050000D03*
%TO.P,U3,2,GND_2*%
%TO.N,GND*%
X88400000Y-55000000D03*
%TO.P,U3,3,A_3*%
%TO.N,/LED_GPIO*%
X88400000Y-55950000D03*
%TO.P,U3,4,B_4*%
%TO.N,/LED_SIG*%
X91100000Y-55950000D03*
%TO.P,U3,5,DIR_5*%
%TO.N,+3V3*%
X91100000Y-55000000D03*
%TO.P,U3,6,VCCB_6*%
%TO.N,+5V*%
X91100000Y-54050000D03*
%TD*%
D12*
%TO.P,LED_TP1,1,1_1*%
%TO.N,/LED_GPIO*%
X85500000Y-55250000D03*
%TD*%
D10*
%TO.P,H2,1*%
%TO.N,N/C*%
X54250000Y-60750000D03*
D11*
X54250000Y-60750000D03*
%TD*%
D17*
%TO.P,C3,1*%
%TO.N,+3V3*%
X53000000Y-35750000D03*
%TO.P,C3,2*%
%TO.N,GND*%
X53000000Y-37650000D03*
%TD*%
D18*
%TO.P,C7,1*%
%TO.N,+3V3*%
X88250000Y-51500000D03*
%TO.P,C7,2*%
%TO.N,GND*%
X86350000Y-51500000D03*
%TD*%
D12*
%TO.P,IO15,1,1_1*%
%TO.N,Net-(U1-IO15)*%
X59600000Y-45000000D03*
%TD*%
%TO.P,IO16,1,1_1*%
%TO.N,Net-(U1-IO16)*%
X62200000Y-46300000D03*
%TD*%
%TO.P,IO4,1,1_1*%
%TO.N,Net-(U1-IO4)*%
X59600000Y-39800000D03*
%TD*%
D19*
%TO.P,C9,1*%
%TO.N,+5V*%
X91000000Y-51500000D03*
%TO.P,C9,2*%
%TO.N,GND*%
X92900000Y-51500000D03*
%TD*%
D12*
%TO.P,IO40,1,1_1*%
%TO.N,Net-(U1-IO40)*%
X88500000Y-38750000D03*
%TD*%
D20*
%TO.P,R3,1*%
%TO.N,Net-(J2-CC1)*%
X75087500Y-63500000D03*
%TO.P,R3,2*%
%TO.N,GND*%
X76912500Y-63500000D03*
%TD*%
D13*
%TO.P,R2,1*%
%TO.N,Net-(J2-CC2)*%
X72575000Y-63500000D03*
%TO.P,R2,2*%
%TO.N,GND*%
X70750000Y-63500000D03*
%TD*%
D12*
%TO.P,IO17,1,1_1*%
%TO.N,Net-(U1-IO17)*%
X59600000Y-47600000D03*
%TD*%
%TO.P,IO7,1,1_1*%
%TO.N,Net-(U1-IO7)*%
X62200000Y-43700000D03*
%TD*%
D21*
%TO.P,C4,1*%
%TO.N,+3V3*%
X62700000Y-37650000D03*
%TO.P,C4,2*%
%TO.N,GND*%
X62700000Y-35750000D03*
%TD*%
D22*
%TO.P,D2,1,K_1*%
%TO.N,GND*%
X60000000Y-63500000D03*
%TO.P,D2,2,A_2*%
%TO.N,Net-(D2-A)*%
X62050000Y-63500000D03*
%TD*%
D23*
%TO.P,R1,1*%
%TO.N,+3V3*%
X59500000Y-35787500D03*
%TO.P,R1,2*%
%TO.N,/EN*%
X59500000Y-37612500D03*
%TD*%
D16*
%TO.P,U4,1,I/O1_1*%
%TO.N,/IN_D-*%
X58300000Y-50950000D03*
%TO.P,U4,2,GND_2*%
%TO.N,GND*%
X58300000Y-51900000D03*
%TO.P,U4,3,I/O2_3*%
%TO.N,/IN_D+*%
X58300000Y-52850000D03*
%TO.P,U4,4,I/O2_4*%
%TO.N,/USB_D+*%
X61000000Y-52850000D03*
%TO.P,U4,5,VBUS_5*%
%TO.N,unconnected-(U4-VBUS-Pad5)*%
X61000000Y-51900000D03*
%TO.P,U4,6,I/O1_6*%
%TO.N,/USB_D-*%
X61000000Y-50950000D03*
%TD*%
D24*
%TO.P,U1,1,GND_1*%
%TO.N,GND*%
X65000000Y-35990000D03*
%TO.P,U1,2,3V3_2*%
%TO.N,+3V3*%
X65000000Y-37260000D03*
%TO.P,U1,3,EN_3*%
%TO.N,/EN*%
X65000000Y-38530000D03*
%TO.P,U1,4,IO4_4*%
%TO.N,Net-(U1-IO4)*%
X65000000Y-39800000D03*
%TO.P,U1,5,IO5_5*%
%TO.N,Net-(U1-IO5)*%
X65000000Y-41070000D03*
%TO.P,U1,6,IO6_6*%
%TO.N,Net-(U1-IO6)*%
X65000000Y-42340000D03*
%TO.P,U1,7,IO7_7*%
%TO.N,Net-(U1-IO7)*%
X65000000Y-43610000D03*
%TO.P,U1,8,IO15_8*%
%TO.N,Net-(U1-IO15)*%
X65000000Y-44880000D03*
%TO.P,U1,9,IO16_9*%
%TO.N,Net-(U1-IO16)*%
X65000000Y-46150000D03*
%TO.P,U1,10,IO17_10*%
%TO.N,Net-(U1-IO17)*%
X65000000Y-47420000D03*
%TO.P,U1,11,IO18_11*%
%TO.N,unconnected-(U1-IO18-Pad11)*%
X65000000Y-48690000D03*
%TO.P,U1,12,IO8_12*%
%TO.N,unconnected-(U1-IO8-Pad12)*%
X65000000Y-49960000D03*
%TO.P,U1,13,USB_D-_13*%
%TO.N,/USB_D-*%
X65000000Y-51230000D03*
%TO.P,U1,14,USB_D+_14*%
%TO.N,/USB_D+*%
X65000000Y-52500000D03*
D25*
%TO.P,U1,15,IO3_15*%
%TO.N,unconnected-(U1-IO3-Pad15)*%
X66765000Y-53750000D03*
%TO.P,U1,16,IO46_16*%
%TO.N,unconnected-(U1-IO46-Pad16)*%
X68035000Y-53750000D03*
%TO.P,U1,17,IO9_17*%
%TO.N,/SWITCH*%
X69305000Y-53750000D03*
%TO.P,U1,18,IO10_18*%
%TO.N,unconnected-(U1-IO10-Pad18)*%
X70575000Y-53750000D03*
%TO.P,U1,19,IO11_19*%
%TO.N,unconnected-(U1-IO11-Pad19)*%
X71845000Y-53750000D03*
%TO.P,U1,20,IO12_20*%
%TO.N,/LED_GPIO*%
X73115000Y-53750000D03*
%TO.P,U1,21,IO13_21*%
%TO.N,unconnected-(U1-IO13-Pad21)*%
X74385000Y-53750000D03*
%TO.P,U1,22,IO14_22*%
%TO.N,unconnected-(U1-IO14-Pad22)*%
X75655000Y-53750000D03*
%TO.P,U1,23,IO21_23*%
%TO.N,unconnected-(U1-IO21-Pad23)*%
X76925000Y-53750000D03*
%TO.P,U1,24,IO47_24*%
%TO.N,unconnected-(U1-IO47-Pad24)*%
X78195000Y-53750000D03*
%TO.P,U1,25,IO48_25*%
%TO.N,unconnected-(U1-IO48-Pad25)*%
X79465000Y-53750000D03*
%TO.P,U1,26,IO45_26*%
%TO.N,unconnected-(U1-IO45-Pad26)*%
X80735000Y-53750000D03*
D24*
%TO.P,U1,27,IO0_27*%
%TO.N,/IO0*%
X82500000Y-52500000D03*
%TO.P,U1,28,IO35_28*%
%TO.N,unconnected-(U1-IO35-Pad28)*%
X82500000Y-51230000D03*
%TO.P,U1,29,IO36_29*%
%TO.N,unconnected-(U1-IO36-Pad29)*%
X82500000Y-49960000D03*
%TO.P,U1,30,IO37_30*%
%TO.N,unconnected-(U1-IO37-Pad30)*%
X82500000Y-48690000D03*
%TO.P,U1,31,IO38_31*%
%TO.N,Net-(U1-IO38)*%
X82500000Y-47420000D03*
%TO.P,U1,32,IO39_32*%
%TO.N,Net-(U1-IO39)*%
X82500000Y-46150000D03*
%TO.P,U1,33,IO40_33*%
%TO.N,Net-(U1-IO40)*%
X82500000Y-44880000D03*
%TO.P,U1,34,IO41_34*%
%TO.N,Net-(U1-IO41)*%
X82500000Y-43610000D03*
%TO.P,U1,35,IO42_35*%
%TO.N,Net-(U1-IO42)*%
X82500000Y-42340000D03*
%TO.P,U1,36,RXD0_36*%
%TO.N,Net-(U1-RXD0)*%
X82500000Y-41070000D03*
%TO.P,U1,37,TXD0_37*%
%TO.N,Net-(U1-TXD0)*%
X82500000Y-39800000D03*
%TO.P,U1,38,IO2_38*%
%TO.N,unconnected-(U1-IO2-Pad38)*%
X82500000Y-38530000D03*
%TO.P,U1,39,IO1_39*%
%TO.N,unconnected-(U1-IO1-Pad39)*%
X82500000Y-37260000D03*
%TO.P,U1,40,GND_40*%
%TO.N,GND*%
X82500000Y-35990000D03*
%TD*%
D26*
%TO.P,LEDS1,1,Pin_1_1*%
%TO.N,+5V*%
X82250000Y-59725000D03*
D27*
%TO.P,LEDS1,2,Pin_2_2*%
%TO.N,/LED_SIG*%
X84750000Y-59725000D03*
%TO.P,LEDS1,3,Pin_3_3*%
%TO.N,GND*%
X87250000Y-59725000D03*
%TD*%
D12*
%TO.P,IO42,1,1_1*%
%TO.N,Net-(U1-IO42)*%
X87000000Y-36500000D03*
%TD*%
%TO.P,IO38,1,1_1*%
%TO.N,Net-(U1-IO38)*%
X96000000Y-46050000D03*
%TD*%
D10*
%TO.P,H1,1*%
%TO.N,N/C*%
X94250000Y-38750000D03*
D11*
X94250000Y-38750000D03*
%TD*%
D21*
%TO.P,C2,1*%
%TO.N,/EN*%
X56250000Y-37650000D03*
%TO.P,C2,2*%
%TO.N,GND*%
X56250000Y-35750000D03*
%TD*%
D28*
%TO.P,PRGM1,1,Pin_1_1*%
%TO.N,/IN_D+*%
X54700000Y-53140000D03*
D29*
%TO.P,PRGM1,2,Pin_2_2*%
%TO.N,/IN_D-*%
X54700000Y-50600000D03*
%TO.P,PRGM1,3,Pin_3_3*%
%TO.N,GND*%
X54700000Y-48060000D03*
%TD*%
D12*
%TO.P,IO6,1,1_1*%
%TO.N,Net-(U1-IO6)*%
X59600000Y-42400000D03*
%TD*%
D30*
%TO.P,J2,SH,SHIELD_SH*%
%TO.N,GND*%
X78195000Y-57420000D03*
X69555000Y-57420000D03*
%TD*%
D31*
%TO.N,Net-(U1-IO41)*%
X85184313Y-40184313D03*
X86184313Y-39184313D03*
%TO.N,Net-(U1-IO39)*%
X87250000Y-45000000D03*
X88750000Y-45000000D03*
%TO.N,GND*%
X79750000Y-37250000D03*
X85700000Y-47250000D03*
X69750000Y-63500000D03*
X84000000Y-36000000D03*
X54250000Y-37500000D03*
X58775000Y-63500000D03*
X85700000Y-50200000D03*
X66500000Y-35990000D03*
X57500000Y-35750000D03*
X92000000Y-51500000D03*
X87250000Y-55000000D03*
X78000000Y-63500000D03*
X59650000Y-51900000D03*
%TO.N,+3V3*%
X81000000Y-38000000D03*
X84000000Y-38000000D03*
X72750000Y-44500000D03*
X75500000Y-44500000D03*
X91750000Y-53000000D03*
X90250000Y-53000000D03*
%TO.N,Net-(U1-IO40)*%
X86750000Y-39750000D03*
X85750000Y-40750000D03*
%TO.N,Net-(J2-CC1)*%
X74500000Y-56750000D03*
%TO.N,Net-(J2-CC2)*%
X73250000Y-56750000D03*
%TO.N,Net-(U1-IO17)*%
X66750000Y-52500000D03*
X66750000Y-55000000D03*
%TO.N,/EN*%
X69450000Y-38950000D03*
%TO.N,/SWITCH*%
X70250000Y-49000000D03*
%TO.N,/IO0*%
X78500000Y-46750000D03*
X78500000Y-41250000D03*
%TO.N,Net-(U1-IO38)*%
X88750000Y-46000000D03*
X87250000Y-46000000D03*
%TO.N,Net-(U1-IO42)*%
X84618626Y-39618626D03*
X85618626Y-38618626D03*
%TO.N,Net-(U1-RXD0)*%
X81000000Y-47000000D03*
%TO.N,Net-(U1-TXD0)*%
X80000000Y-44050000D03*
%TD*%
%TO.N,Net-(U1-IO5)*%
D32*
X65000000Y-41070000D02*
X62230000Y-41070000D01*
X62230000Y-41070000D02*
X62200000Y-41100000D01*
%TO.N,Net-(U1-IO41)*%
X82500000Y-43610000D02*
X83640000Y-43610000D01*
X84750000Y-42500000D02*
X84750000Y-40618626D01*
X83640000Y-43610000D02*
X84750000Y-42500000D01*
X84750000Y-40618626D02*
X85184313Y-40184313D01*
X88868626Y-36500000D02*
X89750000Y-36500000D01*
X86184313Y-39184313D02*
X88868626Y-36500000D01*
%TO.N,Net-(U1-IO39)*%
X84750000Y-45000000D02*
X87250000Y-45000000D01*
X83600000Y-46150000D02*
X84750000Y-45000000D01*
X88750000Y-45000000D02*
X93300000Y-45000000D01*
X82500000Y-46150000D02*
X83600000Y-46150000D01*
%TO.N,GND*%
X88400000Y-55000000D02*
X87250000Y-55000000D01*
X53000000Y-37650000D02*
X54100000Y-37650000D01*
D33*
X81000000Y-36000000D02*
X82490000Y-36000000D01*
D32*
X92900000Y-51500000D02*
X92000000Y-51500000D01*
D33*
X83570000Y-36000000D02*
X83560000Y-35990000D01*
D32*
X76912500Y-63500000D02*
X78000000Y-63500000D01*
X85700000Y-47250000D02*
X85700000Y-48650000D01*
X70750000Y-63500000D02*
X69750000Y-63500000D01*
X56250000Y-35750000D02*
X57500000Y-35750000D01*
D33*
X64760000Y-35750000D02*
X65000000Y-35990000D01*
D32*
X82490000Y-36000000D02*
X82500000Y-35990000D01*
X59650000Y-51900000D02*
X58512500Y-51900000D01*
X54100000Y-37650000D02*
X54250000Y-37500000D01*
D33*
X83560000Y-35990000D02*
X82500000Y-35990000D01*
X66500000Y-35990000D02*
X65000000Y-35990000D01*
D32*
X85700000Y-50200000D02*
X85700000Y-48650000D01*
X86350000Y-50850000D02*
X85700000Y-50200000D01*
X62740000Y-35990000D02*
X62500000Y-35750000D01*
X60000000Y-63500000D02*
X58775000Y-63500000D01*
D33*
X62700000Y-35750000D02*
X64760000Y-35750000D01*
X79750000Y-37250000D02*
X81000000Y-36000000D01*
X84000000Y-36000000D02*
X83570000Y-36000000D01*
D32*
X86350000Y-51500000D02*
X86350000Y-50850000D01*
%TO.N,+3V3*%
X90250000Y-53000000D02*
X89450000Y-53000000D01*
X88250000Y-51500000D02*
X88250000Y-53900000D01*
X59500000Y-35787500D02*
X60037500Y-35787500D01*
X75500000Y-44500000D02*
X76250000Y-43750000D01*
X92000000Y-55000000D02*
X91100000Y-55000000D01*
X60037500Y-35787500D02*
X61900000Y-37650000D01*
D33*
X63990000Y-37260000D02*
X63600000Y-37650000D01*
D32*
X88000000Y-48650000D02*
X88000000Y-42350000D01*
D33*
X84000000Y-38000000D02*
X88000000Y-42000000D01*
X76260000Y-37260000D02*
X65000000Y-37260000D01*
D32*
X76250000Y-43750000D02*
X76250000Y-38750000D01*
X72750000Y-44500000D02*
X75500000Y-44500000D01*
X92500000Y-54500000D02*
X92000000Y-55000000D01*
X92500000Y-53500000D02*
X92500000Y-54500000D01*
X88000000Y-48650000D02*
X88000000Y-51250000D01*
D33*
X88000000Y-42000000D02*
X88000000Y-42350000D01*
D32*
X61900000Y-37650000D02*
X62700000Y-37650000D01*
D33*
X65000000Y-37260000D02*
X63990000Y-37260000D01*
D32*
X53000000Y-35750000D02*
X54000000Y-36750000D01*
X58537500Y-36750000D02*
X59500000Y-35787500D01*
X88250000Y-53900000D02*
X88400000Y-54050000D01*
D33*
X63600000Y-37650000D02*
X62700000Y-37650000D01*
D32*
X76250000Y-38750000D02*
X77000000Y-38000000D01*
X92000000Y-53000000D02*
X92500000Y-53500000D01*
X91750000Y-53000000D02*
X92000000Y-53000000D01*
D33*
X77000000Y-38000000D02*
X76260000Y-37260000D01*
X81000000Y-38000000D02*
X77000000Y-38000000D01*
D32*
X88000000Y-51250000D02*
X88250000Y-51500000D01*
X54000000Y-36750000D02*
X58537500Y-36750000D01*
X89450000Y-53000000D02*
X88400000Y-54050000D01*
%TO.N,+5V*%
D33*
X90300000Y-48650000D02*
X90300000Y-50800000D01*
X89750000Y-54620001D02*
X90320001Y-54050000D01*
X84725000Y-57250000D02*
X89000000Y-57250000D01*
X89000000Y-57250000D02*
X89750000Y-56500000D01*
X90320001Y-54050000D02*
X91100000Y-54050000D01*
X91000000Y-53950000D02*
X91100000Y-54050000D01*
X82250000Y-59725000D02*
X84725000Y-57250000D01*
X82525000Y-59725000D02*
X82250000Y-59725000D01*
X91000000Y-51500000D02*
X91000000Y-53950000D01*
X89750000Y-56500000D02*
X89750000Y-54620001D01*
X90300000Y-50800000D02*
X91000000Y-51500000D01*
%TO.N,/LED_GPIO*%
D32*
X86200000Y-55950000D02*
X88400000Y-55950000D01*
X73115000Y-53750000D02*
X73115000Y-54700000D01*
X73115000Y-54700000D02*
X73665000Y-55250000D01*
X85500000Y-55250000D02*
X86200000Y-55950000D01*
X73665000Y-55250000D02*
X85500000Y-55250000D01*
%TO.N,/LED_SIG*%
X91100000Y-55950000D02*
X91100000Y-56650000D01*
X84750000Y-59587500D02*
X84750000Y-59725000D01*
X91100000Y-56650000D02*
X89500000Y-58250000D01*
X86225000Y-58250000D02*
X84750000Y-59725000D01*
X89500000Y-58250000D02*
X86225000Y-58250000D01*
%TO.N,Net-(U1-IO15)*%
X59720000Y-44880000D02*
X59600000Y-45000000D01*
X65000000Y-44880000D02*
X59720000Y-44880000D01*
%TO.N,Net-(U1-IO16)*%
X62350000Y-46150000D02*
X62200000Y-46300000D01*
X65000000Y-46150000D02*
X62350000Y-46150000D01*
%TO.N,Net-(U1-IO4)*%
X65000000Y-39800000D02*
X59600000Y-39800000D01*
%TO.N,Net-(U1-IO40)*%
X85500000Y-41000000D02*
X85750000Y-40750000D01*
X87750000Y-38750000D02*
X88500000Y-38750000D01*
X85500000Y-43000000D02*
X85500000Y-41000000D01*
X85500000Y-43000000D02*
X83620000Y-44880000D01*
X86750000Y-39750000D02*
X87750000Y-38750000D01*
X83620000Y-44880000D02*
X82500000Y-44880000D01*
%TO.N,Net-(J2-CC1)*%
X74500000Y-62912500D02*
X75087500Y-63500000D01*
X74500000Y-56750000D02*
X74500000Y-62912500D01*
%TO.N,Net-(J2-CC2)*%
X73250000Y-56750000D02*
X73250000Y-62825000D01*
X73250000Y-62825000D02*
X72575000Y-63500000D01*
%TO.N,Net-(U1-IO17)*%
X66750000Y-52500000D02*
X66750000Y-48500000D01*
X59780000Y-47420000D02*
X59600000Y-47600000D01*
X66750000Y-63162500D02*
X66412500Y-63500000D01*
X66750000Y-48500000D02*
X65670000Y-47420000D01*
X65000000Y-47420000D02*
X59780000Y-47420000D01*
X66750000Y-55000000D02*
X66750000Y-63162500D01*
X65670000Y-47420000D02*
X65000000Y-47420000D01*
%TO.N,Net-(U1-IO7)*%
X65000000Y-43610000D02*
X62290000Y-43610000D01*
X62290000Y-43610000D02*
X62200000Y-43700000D01*
%TO.N,/EN*%
X69450000Y-38950000D02*
X69030000Y-38530000D01*
X59500000Y-37612500D02*
X56287500Y-37612500D01*
X61530000Y-38530000D02*
X60612500Y-37612500D01*
X56287500Y-37612500D02*
X56250000Y-37650000D01*
X65000000Y-38530000D02*
X61530000Y-38530000D01*
X60612500Y-37612500D02*
X59500000Y-37612500D01*
X69030000Y-38530000D02*
X65000000Y-38530000D01*
%TO.N,/IN_D-*%
D34*
X55789050Y-51689050D02*
X56969050Y-51689050D01*
X56970000Y-51690000D02*
X57710000Y-50950000D01*
X54700000Y-50600000D02*
X55789050Y-51689050D01*
X57710000Y-50950000D02*
X58300000Y-50950000D01*
X56969050Y-51689050D02*
X56970000Y-51690000D01*
%TO.N,/IN_D+*%
X56951900Y-52051900D02*
X57750000Y-52850000D01*
X55789050Y-52050950D02*
X56600000Y-52050950D01*
X56600000Y-52050950D02*
X56600950Y-52051900D01*
X57750000Y-52850000D02*
X58300000Y-52850000D01*
X54700000Y-53140000D02*
X55789050Y-52050950D01*
X56600950Y-52051900D02*
X56951900Y-52051900D01*
%TO.N,/USB_D+*%
X61550000Y-52850000D02*
X61000000Y-52850000D01*
X64245950Y-52045950D02*
X62354050Y-52045950D01*
X65000000Y-52500000D02*
X64700000Y-52500000D01*
X62354050Y-52045950D02*
X61550000Y-52850000D01*
X64700000Y-52500000D02*
X64245950Y-52045950D01*
%TO.N,/USB_D-*%
X61550000Y-50950000D02*
X61000000Y-50950000D01*
X64700000Y-51230000D02*
X64245950Y-51684050D01*
X62284050Y-51684050D02*
X61550000Y-50950000D01*
X65000000Y-51230000D02*
X64700000Y-51230000D01*
X64245950Y-51684050D02*
X62284050Y-51684050D01*
%TO.N,Net-(U1-IO6)*%
D32*
X65000000Y-42340000D02*
X59660000Y-42340000D01*
X59660000Y-42340000D02*
X59600000Y-42400000D01*
%TO.N,/SWITCH*%
X69305000Y-53750000D02*
X69305000Y-49945000D01*
X69305000Y-49945000D02*
X70250000Y-49000000D01*
%TO.N,/IO0*%
X82500000Y-52500000D02*
X81550000Y-52500000D01*
X78500000Y-49450000D02*
X78500000Y-46750000D01*
X78500000Y-41250000D02*
X78500000Y-46750000D01*
X81550000Y-52500000D02*
X78500000Y-49450000D01*
%TO.N,Net-(U1-IO38)*%
X88750000Y-46000000D02*
X95950000Y-46000000D01*
X83580000Y-47420000D02*
X85000000Y-46000000D01*
X82500000Y-47420000D02*
X83580000Y-47420000D01*
X85000000Y-46000000D02*
X87250000Y-46000000D01*
%TO.N,Net-(U1-IO42)*%
X83660000Y-42340000D02*
X82500000Y-42340000D01*
X87000000Y-37250000D02*
X87000000Y-36500000D01*
X84000000Y-42000000D02*
X83660000Y-42340000D01*
X85618626Y-38618626D02*
X85631374Y-38618626D01*
X84000000Y-40237252D02*
X84618626Y-39618626D01*
X84000000Y-42000000D02*
X84000000Y-40237252D01*
X85631374Y-38618626D02*
X87000000Y-37250000D01*
%TO.N,Net-(U1-RXD0)*%
X81970000Y-41070000D02*
X81000000Y-42040000D01*
X82500000Y-41070000D02*
X81970000Y-41070000D01*
X81000000Y-47000000D02*
X81000000Y-42040000D01*
%TO.N,Net-(U1-TXD0)*%
X80000000Y-41500000D02*
X80000000Y-44050000D01*
X82500000Y-39800000D02*
X81700000Y-39800000D01*
X81700000Y-39800000D02*
X80000000Y-41500000D01*
%TO.N,Net-(D2-A)*%
X64587500Y-63500000D02*
X62050000Y-63500000D01*
%TD*%
M02*
