ISO-10303-21;
HEADER;
/* Generated by software containing ST-Developer
 * from STEP Tools, Inc. (www.steptools.com) 
 */

FILE_DESCRIPTION(
/* description */ (''),
/* implementation_level */ '2;1');

FILE_NAME(
/* name */ 'usb-c-vertical.step',
/* time_stamp */ '2026-08-13T17:28:59-07:00',
/* author */ (''),
/* organization */ (''),
/* preprocessor_version */ 'ST-DEVELOPER v20.1',
/* originating_system */ 'Autodesk Translation Framework v15.8.0.0',
/* authorisation */ '');

FILE_SCHEMA (('AUTOMOTIVE_DESIGN { 1 0 10303 214 3 1 1 }'));
ENDSEC;

DATA;
#10=MECHANICAL_DESIGN_GEOMETRIC_PRESENTATION_REPRESENTATION('',(#13),#465);
#11=SHAPE_REPRESENTATION_RELATIONSHIP('SRR','None',#472,#12);
#12=ADVANCED_BREP_SHAPE_REPRESENTATION('',(#14),#464);
#13=STYLED_ITEM('',(#481),#14);
#14=MANIFOLD_SOLID_BREP('Body1',#273);
#15=FACE_BOUND('',#56,.T.);
#16=PLANE('',#290);
#17=PLANE('',#291);
#18=PLANE('',#297);
#19=PLANE('',#300);
#20=PLANE('',#303);
#21=PLANE('',#304);
#22=PLANE('',#305);
#23=PLANE('',#306);
#24=PLANE('',#307);
#25=PLANE('',#308);
#26=PLANE('',#309);
#27=FACE_OUTER_BOUND('',#42,.T.);
#28=FACE_OUTER_BOUND('',#43,.T.);
#29=FACE_OUTER_BOUND('',#44,.T.);
#30=FACE_OUTER_BOUND('',#45,.T.);
#31=FACE_OUTER_BOUND('',#46,.T.);
#32=FACE_OUTER_BOUND('',#47,.T.);
#33=FACE_OUTER_BOUND('',#48,.T.);
#34=FACE_OUTER_BOUND('',#49,.T.);
#35=FACE_OUTER_BOUND('',#50,.T.);
#36=FACE_OUTER_BOUND('',#51,.T.);
#37=FACE_OUTER_BOUND('',#52,.T.);
#38=FACE_OUTER_BOUND('',#53,.T.);
#39=FACE_OUTER_BOUND('',#54,.T.);
#40=FACE_OUTER_BOUND('',#55,.T.);
#41=FACE_OUTER_BOUND('',#57,.T.);
#42=EDGE_LOOP('',(#182,#183,#184,#185));
#43=EDGE_LOOP('',(#186,#187,#188,#189));
#44=EDGE_LOOP('',(#190,#191,#192,#193,#194,#195,#196,#197));
#45=EDGE_LOOP('',(#198,#199,#200,#201));
#46=EDGE_LOOP('',(#202,#203,#204,#205));
#47=EDGE_LOOP('',(#206,#207,#208,#209));
#48=EDGE_LOOP('',(#210,#211,#212,#213));
#49=EDGE_LOOP('',(#214,#215,#216,#217));
#50=EDGE_LOOP('',(#218,#219,#220,#221));
#51=EDGE_LOOP('',(#222,#223,#224,#225));
#52=EDGE_LOOP('',(#226,#227,#228,#229));
#53=EDGE_LOOP('',(#230,#231,#232,#233));
#54=EDGE_LOOP('',(#234,#235,#236,#237));
#55=EDGE_LOOP('',(#238,#239,#240,#241));
#56=EDGE_LOOP('',(#242,#243,#244,#245,#246,#247,#248,#249));
#57=EDGE_LOOP('',(#250,#251,#252,#253));
#58=LINE('',#392,#86);
#59=LINE('',#395,#87);
#60=LINE('',#398,#88);
#61=LINE('',#400,#89);
#62=LINE('',#401,#90);
#63=LINE('',#404,#91);
#64=LINE('',#408,#92);
#65=LINE('',#412,#93);
#66=LINE('',#416,#94);
#67=LINE('',#420,#95);
#68=LINE('',#421,#96);
#69=LINE('',#424,#97);
#70=LINE('',#428,#98);
#71=LINE('',#429,#99);
#72=LINE('',#432,#100);
#73=LINE('',#435,#101);
#74=LINE('',#439,#102);
#75=LINE('',#441,#103);
#76=LINE('',#443,#104);
#77=LINE('',#444,#105);
#78=LINE('',#447,#106);
#79=LINE('',#449,#107);
#80=LINE('',#450,#108);
#81=LINE('',#453,#109);
#82=LINE('',#455,#110);
#83=LINE('',#456,#111);
#84=LINE('',#458,#112);
#85=LINE('',#459,#113);
#86=VECTOR('',#316,10.);
#87=VECTOR('',#319,10.);
#88=VECTOR('',#322,10.);
#89=VECTOR('',#323,10.);
#90=VECTOR('',#324,10.);
#91=VECTOR('',#327,10.);
#92=VECTOR('',#330,10.);
#93=VECTOR('',#333,10.);
#94=VECTOR('',#338,10.);
#95=VECTOR('',#343,10.);
#96=VECTOR('',#344,10.);
#97=VECTOR('',#347,10.);
#98=VECTOR('',#352,10.);
#99=VECTOR('',#353,10.);
#100=VECTOR('',#356,10.);
#101=VECTOR('',#361,10.);
#102=VECTOR('',#364,10.);
#103=VECTOR('',#365,10.);
#104=VECTOR('',#366,10.);
#105=VECTOR('',#367,10.);
#106=VECTOR('',#370,10.);
#107=VECTOR('',#371,10.);
#108=VECTOR('',#372,10.);
#109=VECTOR('',#375,10.);
#110=VECTOR('',#376,10.);
#111=VECTOR('',#377,10.);
#112=VECTOR('',#380,10.);
#113=VECTOR('',#381,10.);
#114=CIRCLE('',#288,1.1);
#115=CIRCLE('',#289,1.1);
#116=CIRCLE('',#292,1.1);
#117=CIRCLE('',#293,1.1);
#118=CIRCLE('',#294,1.1);
#119=CIRCLE('',#296,1.1);
#120=CIRCLE('',#299,1.1);
#121=CIRCLE('',#302,1.1);
#122=VERTEX_POINT('',#388);
#123=VERTEX_POINT('',#389);
#124=VERTEX_POINT('',#391);
#125=VERTEX_POINT('',#393);
#126=VERTEX_POINT('',#397);
#127=VERTEX_POINT('',#399);
#128=VERTEX_POINT('',#403);
#129=VERTEX_POINT('',#405);
#130=VERTEX_POINT('',#407);
#131=VERTEX_POINT('',#409);
#132=VERTEX_POINT('',#411);
#133=VERTEX_POINT('',#415);
#134=VERTEX_POINT('',#419);
#135=VERTEX_POINT('',#423);
#136=VERTEX_POINT('',#427);
#137=VERTEX_POINT('',#431);
#138=VERTEX_POINT('',#437);
#139=VERTEX_POINT('',#438);
#140=VERTEX_POINT('',#440);
#141=VERTEX_POINT('',#442);
#142=VERTEX_POINT('',#446);
#143=VERTEX_POINT('',#448);
#144=VERTEX_POINT('',#452);
#145=VERTEX_POINT('',#454);
#146=EDGE_CURVE('',#122,#123,#114,.T.);
#147=EDGE_CURVE('',#123,#124,#58,.T.);
#148=EDGE_CURVE('',#124,#125,#115,.F.);
#149=EDGE_CURVE('',#125,#122,#59,.T.);
#150=EDGE_CURVE('',#126,#123,#60,.T.);
#151=EDGE_CURVE('',#127,#126,#61,.T.);
#152=EDGE_CURVE('',#124,#127,#62,.T.);
#153=EDGE_CURVE('',#122,#128,#63,.T.);
#154=EDGE_CURVE('',#129,#128,#116,.T.);
#155=EDGE_CURVE('',#129,#130,#64,.T.);
#156=EDGE_CURVE('',#131,#130,#117,.T.);
#157=EDGE_CURVE('',#131,#132,#65,.T.);
#158=EDGE_CURVE('',#126,#132,#118,.T.);
#159=EDGE_CURVE('',#132,#133,#66,.T.);
#160=EDGE_CURVE('',#133,#127,#119,.F.);
#161=EDGE_CURVE('',#134,#131,#67,.T.);
#162=EDGE_CURVE('',#133,#134,#68,.T.);
#163=EDGE_CURVE('',#130,#135,#69,.T.);
#164=EDGE_CURVE('',#135,#134,#120,.F.);
#165=EDGE_CURVE('',#136,#129,#70,.T.);
#166=EDGE_CURVE('',#135,#136,#71,.T.);
#167=EDGE_CURVE('',#128,#137,#72,.T.);
#168=EDGE_CURVE('',#137,#136,#121,.F.);
#169=EDGE_CURVE('',#137,#125,#73,.T.);
#170=EDGE_CURVE('',#138,#139,#74,.T.);
#171=EDGE_CURVE('',#138,#140,#75,.T.);
#172=EDGE_CURVE('',#141,#140,#76,.T.);
#173=EDGE_CURVE('',#139,#141,#77,.T.);
#174=EDGE_CURVE('',#139,#142,#78,.T.);
#175=EDGE_CURVE('',#143,#141,#79,.T.);
#176=EDGE_CURVE('',#142,#143,#80,.T.);
#177=EDGE_CURVE('',#142,#144,#81,.T.);
#178=EDGE_CURVE('',#145,#143,#82,.T.);
#179=EDGE_CURVE('',#144,#145,#83,.T.);
#180=EDGE_CURVE('',#144,#138,#84,.T.);
#181=EDGE_CURVE('',#140,#145,#85,.T.);
#182=ORIENTED_EDGE('',*,*,#146,.T.);
#183=ORIENTED_EDGE('',*,*,#147,.T.);
#184=ORIENTED_EDGE('',*,*,#148,.T.);
#185=ORIENTED_EDGE('',*,*,#149,.T.);
#186=ORIENTED_EDGE('',*,*,#147,.F.);
#187=ORIENTED_EDGE('',*,*,#150,.F.);
#188=ORIENTED_EDGE('',*,*,#151,.F.);
#189=ORIENTED_EDGE('',*,*,#152,.F.);
#190=ORIENTED_EDGE('',*,*,#146,.F.);
#191=ORIENTED_EDGE('',*,*,#153,.T.);
#192=ORIENTED_EDGE('',*,*,#154,.F.);
#193=ORIENTED_EDGE('',*,*,#155,.T.);
#194=ORIENTED_EDGE('',*,*,#156,.F.);
#195=ORIENTED_EDGE('',*,*,#157,.T.);
#196=ORIENTED_EDGE('',*,*,#158,.F.);
#197=ORIENTED_EDGE('',*,*,#150,.T.);
#198=ORIENTED_EDGE('',*,*,#158,.T.);
#199=ORIENTED_EDGE('',*,*,#159,.T.);
#200=ORIENTED_EDGE('',*,*,#160,.T.);
#201=ORIENTED_EDGE('',*,*,#151,.T.);
#202=ORIENTED_EDGE('',*,*,#159,.F.);
#203=ORIENTED_EDGE('',*,*,#157,.F.);
#204=ORIENTED_EDGE('',*,*,#161,.F.);
#205=ORIENTED_EDGE('',*,*,#162,.F.);
#206=ORIENTED_EDGE('',*,*,#156,.T.);
#207=ORIENTED_EDGE('',*,*,#163,.T.);
#208=ORIENTED_EDGE('',*,*,#164,.T.);
#209=ORIENTED_EDGE('',*,*,#161,.T.);
#210=ORIENTED_EDGE('',*,*,#163,.F.);
#211=ORIENTED_EDGE('',*,*,#155,.F.);
#212=ORIENTED_EDGE('',*,*,#165,.F.);
#213=ORIENTED_EDGE('',*,*,#166,.F.);
#214=ORIENTED_EDGE('',*,*,#154,.T.);
#215=ORIENTED_EDGE('',*,*,#167,.T.);
#216=ORIENTED_EDGE('',*,*,#168,.T.);
#217=ORIENTED_EDGE('',*,*,#165,.T.);
#218=ORIENTED_EDGE('',*,*,#149,.F.);
#219=ORIENTED_EDGE('',*,*,#169,.F.);
#220=ORIENTED_EDGE('',*,*,#167,.F.);
#221=ORIENTED_EDGE('',*,*,#153,.F.);
#222=ORIENTED_EDGE('',*,*,#170,.F.);
#223=ORIENTED_EDGE('',*,*,#171,.T.);
#224=ORIENTED_EDGE('',*,*,#172,.F.);
#225=ORIENTED_EDGE('',*,*,#173,.F.);
#226=ORIENTED_EDGE('',*,*,#174,.F.);
#227=ORIENTED_EDGE('',*,*,#173,.T.);
#228=ORIENTED_EDGE('',*,*,#175,.F.);
#229=ORIENTED_EDGE('',*,*,#176,.F.);
#230=ORIENTED_EDGE('',*,*,#177,.F.);
#231=ORIENTED_EDGE('',*,*,#176,.T.);
#232=ORIENTED_EDGE('',*,*,#178,.F.);
#233=ORIENTED_EDGE('',*,*,#179,.F.);
#234=ORIENTED_EDGE('',*,*,#180,.F.);
#235=ORIENTED_EDGE('',*,*,#179,.T.);
#236=ORIENTED_EDGE('',*,*,#181,.F.);
#237=ORIENTED_EDGE('',*,*,#171,.F.);
#238=ORIENTED_EDGE('',*,*,#181,.T.);
#239=ORIENTED_EDGE('',*,*,#178,.T.);
#240=ORIENTED_EDGE('',*,*,#175,.T.);
#241=ORIENTED_EDGE('',*,*,#172,.T.);
#242=ORIENTED_EDGE('',*,*,#162,.T.);
#243=ORIENTED_EDGE('',*,*,#164,.F.);
#244=ORIENTED_EDGE('',*,*,#166,.T.);
#245=ORIENTED_EDGE('',*,*,#168,.F.);
#246=ORIENTED_EDGE('',*,*,#169,.T.);
#247=ORIENTED_EDGE('',*,*,#148,.F.);
#248=ORIENTED_EDGE('',*,*,#152,.T.);
#249=ORIENTED_EDGE('',*,*,#160,.F.);
#250=ORIENTED_EDGE('',*,*,#180,.T.);
#251=ORIENTED_EDGE('',*,*,#170,.T.);
#252=ORIENTED_EDGE('',*,*,#174,.T.);
#253=ORIENTED_EDGE('',*,*,#177,.T.);
#254=CYLINDRICAL_SURFACE('',#287,1.1);
#255=CYLINDRICAL_SURFACE('',#295,1.1);
#256=CYLINDRICAL_SURFACE('',#298,1.1);
#257=CYLINDRICAL_SURFACE('',#301,1.1);
#258=ADVANCED_FACE('',(#27),#254,.T.);
#259=ADVANCED_FACE('',(#28),#16,.T.);
#260=ADVANCED_FACE('',(#29),#17,.T.);
#261=ADVANCED_FACE('',(#30),#255,.T.);
#262=ADVANCED_FACE('',(#31),#18,.T.);
#263=ADVANCED_FACE('',(#32),#256,.T.);
#264=ADVANCED_FACE('',(#33),#19,.T.);
#265=ADVANCED_FACE('',(#34),#257,.T.);
#266=ADVANCED_FACE('',(#35),#20,.T.);
#267=ADVANCED_FACE('',(#36),#21,.T.);
#268=ADVANCED_FACE('',(#37),#22,.T.);
#269=ADVANCED_FACE('',(#38),#23,.T.);
#270=ADVANCED_FACE('',(#39),#24,.T.);
#271=ADVANCED_FACE('',(#40,#15),#25,.T.);
#272=ADVANCED_FACE('',(#41),#26,.F.);
#273=CLOSED_SHELL('',(#258,#259,#260,#261,#262,#263,#264,#265,#266,#267,
#268,#269,#270,#271,#272));
#274=DERIVED_UNIT_ELEMENT(#276,1.);
#275=DERIVED_UNIT_ELEMENT(#467,-3.);
#276=(
MASS_UNIT()
NAMED_UNIT(*)
SI_UNIT(.KILO.,.GRAM.)
);
#277=DERIVED_UNIT((#274,#275));
#278=MEASURE_REPRESENTATION_ITEM('density measure',
POSITIVE_RATIO_MEASURE(7850.),#277);
#279=PROPERTY_DEFINITION_REPRESENTATION(#284,#281);
#280=PROPERTY_DEFINITION_REPRESENTATION(#285,#282);
#281=REPRESENTATION('material name',(#283),#464);
#282=REPRESENTATION('density',(#278),#464);
#283=DESCRIPTIVE_REPRESENTATION_ITEM('Steel','Steel');
#284=PROPERTY_DEFINITION('material property','material name',#474);
#285=PROPERTY_DEFINITION('material property','density of part',#474);
#286=AXIS2_PLACEMENT_3D('',#386,#310,#311);
#287=AXIS2_PLACEMENT_3D('',#387,#312,#313);
#288=AXIS2_PLACEMENT_3D('',#390,#314,#315);
#289=AXIS2_PLACEMENT_3D('',#394,#317,#318);
#290=AXIS2_PLACEMENT_3D('',#396,#320,#321);
#291=AXIS2_PLACEMENT_3D('',#402,#325,#326);
#292=AXIS2_PLACEMENT_3D('',#406,#328,#329);
#293=AXIS2_PLACEMENT_3D('',#410,#331,#332);
#294=AXIS2_PLACEMENT_3D('',#413,#334,#335);
#295=AXIS2_PLACEMENT_3D('',#414,#336,#337);
#296=AXIS2_PLACEMENT_3D('',#417,#339,#340);
#297=AXIS2_PLACEMENT_3D('',#418,#341,#342);
#298=AXIS2_PLACEMENT_3D('',#422,#345,#346);
#299=AXIS2_PLACEMENT_3D('',#425,#348,#349);
#300=AXIS2_PLACEMENT_3D('',#426,#350,#351);
#301=AXIS2_PLACEMENT_3D('',#430,#354,#355);
#302=AXIS2_PLACEMENT_3D('',#433,#357,#358);
#303=AXIS2_PLACEMENT_3D('',#434,#359,#360);
#304=AXIS2_PLACEMENT_3D('',#436,#362,#363);
#305=AXIS2_PLACEMENT_3D('',#445,#368,#369);
#306=AXIS2_PLACEMENT_3D('',#451,#373,#374);
#307=AXIS2_PLACEMENT_3D('',#457,#378,#379);
#308=AXIS2_PLACEMENT_3D('',#460,#382,#383);
#309=AXIS2_PLACEMENT_3D('',#461,#384,#385);
#310=DIRECTION('axis',(0.,0.,1.));
#311=DIRECTION('refdir',(1.,0.,0.));
#312=DIRECTION('center_axis',(0.,1.,0.));
#313=DIRECTION('ref_axis',(-0.707106781186548,0.,0.707106781186547));
#314=DIRECTION('center_axis',(0.,-1.,0.));
#315=DIRECTION('ref_axis',(-0.707106781186548,0.,0.707106781186547));
#316=DIRECTION('',(0.,-1.,0.));
#317=DIRECTION('center_axis',(0.,-1.,0.));
#318=DIRECTION('ref_axis',(-0.707106781186548,0.,0.707106781186547));
#319=DIRECTION('',(0.,1.,0.));
#320=DIRECTION('center_axis',(-1.,0.,-1.75668200098917E-16));
#321=DIRECTION('ref_axis',(-1.75668200098917E-16,0.,1.));
#322=DIRECTION('',(-1.75668200098917E-16,0.,1.));
#323=DIRECTION('',(0.,1.,0.));
#324=DIRECTION('',(1.75668200098917E-16,0.,-1.));
#325=DIRECTION('center_axis',(0.,1.,0.));
#326=DIRECTION('ref_axis',(0.,0.,1.));
#327=DIRECTION('',(1.,0.,3.10465051628959E-17));
#328=DIRECTION('center_axis',(0.,-1.,0.));
#329=DIRECTION('ref_axis',(0.707106781186548,0.,0.707106781186547));
#330=DIRECTION('',(1.75668200098917E-16,0.,-1.));
#331=DIRECTION('center_axis',(0.,-1.,0.));
#332=DIRECTION('ref_axis',(0.707106781186548,0.,-0.707106781186547));
#333=DIRECTION('',(-1.,0.,-3.10465051628959E-17));
#334=DIRECTION('center_axis',(0.,-1.,0.));
#335=DIRECTION('ref_axis',(-0.707106781186547,0.,-0.707106781186548));
#336=DIRECTION('center_axis',(0.,1.,0.));
#337=DIRECTION('ref_axis',(-0.707106781186547,0.,-0.707106781186548));
#338=DIRECTION('',(0.,-1.,0.));
#339=DIRECTION('center_axis',(0.,-1.,0.));
#340=DIRECTION('ref_axis',(-0.707106781186547,0.,-0.707106781186548));
#341=DIRECTION('center_axis',(3.10465051628959E-17,0.,-1.));
#342=DIRECTION('ref_axis',(-1.,0.,-3.10465051628959E-17));
#343=DIRECTION('',(0.,1.,0.));
#344=DIRECTION('',(1.,0.,3.10465051628959E-17));
#345=DIRECTION('center_axis',(0.,1.,0.));
#346=DIRECTION('ref_axis',(0.707106781186548,0.,-0.707106781186547));
#347=DIRECTION('',(0.,-1.,0.));
#348=DIRECTION('center_axis',(0.,-1.,0.));
#349=DIRECTION('ref_axis',(0.707106781186548,0.,-0.707106781186547));
#350=DIRECTION('center_axis',(1.,0.,1.75668200098917E-16));
#351=DIRECTION('ref_axis',(1.75668200098917E-16,0.,-1.));
#352=DIRECTION('',(0.,1.,0.));
#353=DIRECTION('',(-1.75668200098917E-16,0.,1.));
#354=DIRECTION('center_axis',(0.,1.,0.));
#355=DIRECTION('ref_axis',(0.707106781186548,0.,0.707106781186547));
#356=DIRECTION('',(0.,-1.,0.));
#357=DIRECTION('center_axis',(0.,-1.,0.));
#358=DIRECTION('ref_axis',(0.707106781186548,0.,0.707106781186547));
#359=DIRECTION('center_axis',(-3.10465051628959E-17,0.,1.));
#360=DIRECTION('ref_axis',(1.,0.,3.10465051628959E-17));
#361=DIRECTION('',(-1.,0.,-3.10465051628959E-17));
#362=DIRECTION('center_axis',(1.,0.,0.));
#363=DIRECTION('ref_axis',(0.,0.,-1.));
#364=DIRECTION('',(0.,0.,1.));
#365=DIRECTION('',(0.,1.,0.));
#366=DIRECTION('',(0.,0.,-1.));
#367=DIRECTION('',(0.,1.,0.));
#368=DIRECTION('center_axis',(-2.92163953848725E-17,0.,1.));
#369=DIRECTION('ref_axis',(1.,0.,2.92163953848725E-17));
#370=DIRECTION('',(-1.,0.,-2.92163953848725E-17));
#371=DIRECTION('',(1.,0.,2.92163953848725E-17));
#372=DIRECTION('',(0.,1.,0.));
#373=DIRECTION('center_axis',(-1.,0.,1.46081976924363E-16));
#374=DIRECTION('ref_axis',(1.46081976924363E-16,0.,1.));
#375=DIRECTION('',(-1.46081976924363E-16,0.,-1.));
#376=DIRECTION('',(1.46081976924363E-16,0.,1.));
#377=DIRECTION('',(0.,1.,0.));
#378=DIRECTION('center_axis',(-2.92163953848725E-17,0.,-1.));
#379=DIRECTION('ref_axis',(-1.,0.,2.92163953848725E-17));
#380=DIRECTION('',(1.,0.,-2.92163953848725E-17));
#381=DIRECTION('',(-1.,0.,2.92163953848725E-17));
#382=DIRECTION('center_axis',(0.,1.,0.));
#383=DIRECTION('ref_axis',(0.,0.,1.));
#384=DIRECTION('center_axis',(0.,1.,0.));
#385=DIRECTION('ref_axis',(1.,0.,0.));
#386=CARTESIAN_POINT('',(0.,0.,0.));
#387=CARTESIAN_POINT('Origin',(-3.37,0.,0.48));
#388=CARTESIAN_POINT('',(-3.37,10.,1.58));
#389=CARTESIAN_POINT('',(-4.47,10.,0.48));
#390=CARTESIAN_POINT('Origin',(-3.37,10.,0.48));
#391=CARTESIAN_POINT('',(-4.47,1.,0.48));
#392=CARTESIAN_POINT('',(-4.47,0.,0.48));
#393=CARTESIAN_POINT('',(-3.37,1.,1.58));
#394=CARTESIAN_POINT('Origin',(-3.37,1.,0.48));
#395=CARTESIAN_POINT('',(-3.37,0.,1.58));
#396=CARTESIAN_POINT('Origin',(-4.47,0.,-1.58));
#397=CARTESIAN_POINT('',(-4.47,10.,-0.480000000000001));
#398=CARTESIAN_POINT('',(-4.47,10.,-1.58));
#399=CARTESIAN_POINT('',(-4.47,1.,-0.480000000000001));
#400=CARTESIAN_POINT('',(-4.47,0.,-0.480000000000001));
#401=CARTESIAN_POINT('',(-4.47,1.,-0.790000000000001));
#402=CARTESIAN_POINT('Origin',(5.55111512312578E-16,10.,0.));
#403=CARTESIAN_POINT('',(3.37,10.,1.58));
#404=CARTESIAN_POINT('',(-4.47,10.,1.58));
#405=CARTESIAN_POINT('',(4.47,10.,0.48));
#406=CARTESIAN_POINT('Origin',(3.37,10.,0.48));
#407=CARTESIAN_POINT('',(4.47,10.,-0.48));
#408=CARTESIAN_POINT('',(4.47,10.,1.58));
#409=CARTESIAN_POINT('',(3.37,10.,-1.58));
#410=CARTESIAN_POINT('Origin',(3.37,10.,-0.48));
#411=CARTESIAN_POINT('',(-3.37,10.,-1.58));
#412=CARTESIAN_POINT('',(4.47,10.,-1.58));
#413=CARTESIAN_POINT('Origin',(-3.37,10.,-0.48));
#414=CARTESIAN_POINT('Origin',(-3.37,0.,-0.48));
#415=CARTESIAN_POINT('',(-3.37,1.,-1.58));
#416=CARTESIAN_POINT('',(-3.37,0.,-1.58));
#417=CARTESIAN_POINT('Origin',(-3.37,1.,-0.48));
#418=CARTESIAN_POINT('Origin',(4.47,0.,-1.58));
#419=CARTESIAN_POINT('',(3.37,1.,-1.58));
#420=CARTESIAN_POINT('',(3.37,0.,-1.58));
#421=CARTESIAN_POINT('',(2.235,1.,-1.58));
#422=CARTESIAN_POINT('Origin',(3.37,0.,-0.48));
#423=CARTESIAN_POINT('',(4.47,1.,-0.48));
#424=CARTESIAN_POINT('',(4.47,0.,-0.48));
#425=CARTESIAN_POINT('Origin',(3.37,1.,-0.48));
#426=CARTESIAN_POINT('Origin',(4.47,0.,1.58));
#427=CARTESIAN_POINT('',(4.47,1.,0.48));
#428=CARTESIAN_POINT('',(4.47,0.,0.48));
#429=CARTESIAN_POINT('',(4.47,1.,0.790000000000001));
#430=CARTESIAN_POINT('Origin',(3.37,0.,0.48));
#431=CARTESIAN_POINT('',(3.37,1.,1.58));
#432=CARTESIAN_POINT('',(3.37,0.,1.58));
#433=CARTESIAN_POINT('Origin',(3.37,1.,0.48));
#434=CARTESIAN_POINT('Origin',(-4.47,0.,1.58));
#435=CARTESIAN_POINT('',(-2.235,1.,1.58));
#436=CARTESIAN_POINT('Origin',(4.75,0.,1.9));
#437=CARTESIAN_POINT('',(4.75,0.,-1.9));
#438=CARTESIAN_POINT('',(4.75,0.,1.9));
#439=CARTESIAN_POINT('',(4.75,0.,-1.9));
#440=CARTESIAN_POINT('',(4.75,1.,-1.9));
#441=CARTESIAN_POINT('',(4.75,0.,-1.9));
#442=CARTESIAN_POINT('',(4.75,1.,1.9));
#443=CARTESIAN_POINT('',(4.75,1.,-1.9));
#444=CARTESIAN_POINT('',(4.75,0.,1.9));
#445=CARTESIAN_POINT('Origin',(-4.75,0.,1.9));
#446=CARTESIAN_POINT('',(-4.75,0.,1.9));
#447=CARTESIAN_POINT('',(4.75,0.,1.9));
#448=CARTESIAN_POINT('',(-4.75,1.,1.9));
#449=CARTESIAN_POINT('',(4.75,1.,1.9));
#450=CARTESIAN_POINT('',(-4.75,0.,1.9));
#451=CARTESIAN_POINT('Origin',(-4.75,0.,-1.9));
#452=CARTESIAN_POINT('',(-4.75,0.,-1.9));
#453=CARTESIAN_POINT('',(-4.75,0.,1.9));
#454=CARTESIAN_POINT('',(-4.75,1.,-1.9));
#455=CARTESIAN_POINT('',(-4.75,1.,1.9));
#456=CARTESIAN_POINT('',(-4.75,0.,-1.9));
#457=CARTESIAN_POINT('Origin',(4.75,0.,-1.9));
#458=CARTESIAN_POINT('',(-4.75,0.,-1.9));
#459=CARTESIAN_POINT('',(-4.75,1.,-1.9));
#460=CARTESIAN_POINT('Origin',(-5.55111512312578E-16,1.,0.));
#461=CARTESIAN_POINT('Origin',(-5.55111512312578E-16,0.,0.));
#462=UNCERTAINTY_MEASURE_WITH_UNIT(LENGTH_MEASURE(0.01),#466,
'DISTANCE_ACCURACY_VALUE',
'Maximum model space distance between geometric entities at asserted c
onnectivities');
#463=UNCERTAINTY_MEASURE_WITH_UNIT(LENGTH_MEASURE(0.01),#466,
'DISTANCE_ACCURACY_VALUE',
'Maximum model space distance between geometric entities at asserted c
onnectivities');
#464=(
GEOMETRIC_REPRESENTATION_CONTEXT(3)
GLOBAL_UNCERTAINTY_ASSIGNED_CONTEXT((#462))
GLOBAL_UNIT_ASSIGNED_CONTEXT((#466,#468,#469))
REPRESENTATION_CONTEXT('','3D')
);
#465=(
GEOMETRIC_REPRESENTATION_CONTEXT(3)
GLOBAL_UNCERTAINTY_ASSIGNED_CONTEXT((#463))
GLOBAL_UNIT_ASSIGNED_CONTEXT((#466,#468,#469))
REPRESENTATION_CONTEXT('','3D')
);
#466=(
LENGTH_UNIT()
NAMED_UNIT(*)
SI_UNIT(.MILLI.,.METRE.)
);
#467=(
LENGTH_UNIT()
NAMED_UNIT(*)
SI_UNIT($,.METRE.)
);
#468=(
NAMED_UNIT(*)
PLANE_ANGLE_UNIT()
SI_UNIT($,.RADIAN.)
);
#469=(
NAMED_UNIT(*)
SI_UNIT($,.STERADIAN.)
SOLID_ANGLE_UNIT()
);
#470=SHAPE_DEFINITION_REPRESENTATION(#471,#472);
#471=PRODUCT_DEFINITION_SHAPE('',$,#474);
#472=SHAPE_REPRESENTATION('',(#286),#464);
#473=PRODUCT_DEFINITION_CONTEXT('part definition',#478,'design');
#474=PRODUCT_DEFINITION('2026-08-13-17-28-59-512','usb-c',#475,#473);
#475=PRODUCT_DEFINITION_FORMATION('',$,#480);
#476=PRODUCT_RELATED_PRODUCT_CATEGORY('usb-c','usb-c',(#480));
#477=APPLICATION_PROTOCOL_DEFINITION('international standard',
'automotive_design',2009,#478);
#478=APPLICATION_CONTEXT(
'Core Data for Automotive Mechanical Design Process');
#479=PRODUCT_CONTEXT('part definition',#478,'mechanical');
#480=PRODUCT('2026-08-13-17-28-59-512','usb-c',$,(#479));
#481=PRESENTATION_STYLE_ASSIGNMENT((#482));
#482=SURFACE_STYLE_USAGE(.BOTH.,#483);
#483=SURFACE_SIDE_STYLE('',(#484));
#484=SURFACE_STYLE_FILL_AREA(#485);
#485=FILL_AREA_STYLE('Steel - Satin',(#486));
#486=FILL_AREA_STYLE_COLOUR('Steel - Satin',#487);
#487=COLOUR_RGB('Steel - Satin',0.627450980392157,0.627450980392157,0.627450980392157);
ENDSEC;
END-ISO-10303-21;
