%TF.GenerationSoftware,KiCad,Pcbnew,10.0.5*%
%TF.CreationDate,2026-08-19T02:52:35-07:00*%
%TF.ProjectId,lightbox,6c696768-7462-46f7-982e-6b696361645f,rev?*%
%TF.SameCoordinates,Original*%
%TF.FileFunction,Copper,L2,Bot*%
%TF.FilePolarity,Positive*%
%FSLAX46Y46*%
G04 Gerber Fmt 4.6, Leading zero omitted, Abs format (unit mm)*
G04 Created by KiCad (PCBNEW 10.0.5) date 2026-08-19 02:52:35*
%MOMM*%
%LPD*%
G01*
G04 APERTURE LIST*
G04 Aperture macros list*
%AMRoundRect*
0 Rectangle with rounded corners*
0 $1 Rounding radius*
0 $2 $3 $4 $5 $6 $7 $8 $9 X,Y pos of 4 corners*
0 Add a 4 corners polygon primitive as box body*
4,1,4,$2,$3,$4,$5,$6,$7,$8,$9,$2,$3,0*
0 Add four circle primitives for the rounded corners*
1,1,$1+$1,$2,$3*
1,1,$1+$1,$4,$5*
1,1,$1+$1,$6,$7*
1,1,$1+$1,$8,$9*
0 Add four rect primitives between the rounded corners*
20,1,$1+$1,$2,$3,$4,$5,0*
20,1,$1+$1,$4,$5,$6,$7,0*
20,1,$1+$1,$6,$7,$8,$9,0*
20,1,$1+$1,$8,$9,$2,$3,0*%
G04 Aperture macros list end*
%TA.AperFunction,ComponentPad*%
%ADD10C,4.700000*%
%TD*%
%TA.AperFunction,SMDPad,CuDef*%
%ADD11RoundRect,0.250001X0.799999X-2.049999X0.799999X2.049999X-0.799999X2.049999X-0.799999X-2.049999X0*%
%TD*%
%TA.AperFunction,ComponentPad*%
%ADD12RoundRect,0.250000X0.725000X-0.600000X0.725000X0.600000X-0.725000X0.600000X-0.725000X-0.600000X0*%
%TD*%
%TA.AperFunction,ComponentPad*%
%ADD13O,1.950000X1.700000*%
%TD*%
%TA.AperFunction,ViaPad*%
%ADD14C,0.600000*%
%TD*%
%TA.AperFunction,Conductor*%
%ADD15C,0.635000*%
%TD*%
%TA.AperFunction,Conductor*%
%ADD16C,0.200000*%
%TD*%
G04 APERTURE END LIST*
D10*
%TO.P,H4,1,1_1*%
%TO.N,+5V*%
X116000000Y-71000000D03*
%TD*%
%TO.P,H3,1,1_1*%
%TO.N,+5V*%
X116000000Y-11000000D03*
%TD*%
%TO.P,H2,1,1_1*%
%TO.N,+5V*%
X11000000Y-71000000D03*
%TD*%
%TO.P,H1,1,1_1*%
%TO.N,+5V*%
X11000000Y-11000000D03*
%TD*%
D11*
%TO.P,C1,1*%
%TO.N,+5V*%
X39500000Y-15150000D03*
%TO.P,C1,2*%
%TO.N,GND*%
X39500000Y-6350000D03*
%TD*%
D12*
%TO.P,J1,1,Pin_1_1*%
%TO.N,+5V*%
X26025000Y-15000000D03*
D13*
%TO.P,J1,2,Pin_2_2*%
%TO.N,/LED_SIG*%
X26025000Y-12500000D03*
%TO.P,J1,3,Pin_3_3*%
%TO.N,GND*%
X26025000Y-10000000D03*
%TD*%
D14*
%TO.N,+5V*%
X41000000Y-12400000D03*
X124000000Y-69250000D03*
X38000000Y-12400000D03*
X39500000Y-17925000D03*
X125750000Y-67500000D03*
X41000000Y-17900000D03*
X41000000Y-15150000D03*
X125750000Y-6750000D03*
X124000000Y-8500000D03*
X39500000Y-12425000D03*
X125750000Y-37250000D03*
X38000000Y-15150000D03*
X124000000Y-39000000D03*
%TO.N,GND*%
X18500000Y-2000000D03*
X18500000Y-62000000D03*
X1250000Y-33000000D03*
X123275000Y-32000000D03*
X33500000Y-62000000D03*
X48500000Y-62000000D03*
X3750000Y-2000000D03*
X93500000Y-2000000D03*
X123275000Y-50000000D03*
X78500000Y-2000000D03*
X18500000Y-50000000D03*
X123275000Y-2000000D03*
X48500000Y-20000000D03*
X63500000Y-50000000D03*
X93500000Y-20000000D03*
X33500000Y-80000000D03*
X63500000Y-32000000D03*
X18500000Y-20000000D03*
X33500000Y-20000000D03*
X108500000Y-32000000D03*
X123275000Y-80000000D03*
X48500000Y-50000000D03*
X3750000Y-80000000D03*
X3750000Y-20000000D03*
X78500000Y-50000000D03*
X3750000Y-50000000D03*
X63500000Y-2000000D03*
X93500000Y-32000000D03*
X93500000Y-62000000D03*
X1250000Y-63250000D03*
X48500000Y-80000000D03*
X63500000Y-20000000D03*
X33500000Y-32000000D03*
X63500000Y-80000000D03*
X78500000Y-62000000D03*
X93500000Y-50000000D03*
X48500000Y-32000000D03*
X48500000Y-2000000D03*
X108500000Y-80000000D03*
X18500000Y-80000000D03*
X108500000Y-20000000D03*
X63500000Y-62000000D03*
X108500000Y-50000000D03*
X108500000Y-62000000D03*
X93500000Y-80000000D03*
X33500000Y-50000000D03*
X78500000Y-20000000D03*
X18500000Y-32000000D03*
X123275000Y-62000000D03*
X78500000Y-32000000D03*
X78500000Y-80000000D03*
X123275000Y-20000000D03*
X108500000Y-2000000D03*
X33500000Y-2000000D03*
%TD*%
%TO.N,+5V*%
D15*
X39500000Y-15150000D02*
X41000000Y-15150000D01*
D16*
X125750000Y-67500000D02*
X124000000Y-69250000D01*
X125750000Y-37250000D02*
X124000000Y-39000000D01*
D15*
X39500000Y-15150000D02*
X39500000Y-12425000D01*
X39500000Y-16400000D02*
X41000000Y-17900000D01*
X39500000Y-15150000D02*
X39500000Y-17925000D01*
X39500000Y-15150000D02*
X39500000Y-16400000D01*
X39500000Y-15150000D02*
X39500000Y-13900000D01*
X39500000Y-13900000D02*
X38000000Y-12400000D01*
X39500000Y-13900000D02*
X41000000Y-12400000D01*
D16*
X125750000Y-6750000D02*
X124000000Y-8500000D01*
D15*
X38000000Y-15150000D02*
X39500000Y-15150000D01*
%TD*%
%TA.AperFunction,Conductor*%
%TO.N,GND*%
G36*
X126006922Y-501280D02*
G01*
X126023878Y-503190D01*
X126097268Y-511458D01*
X126124333Y-517636D01*
X126203536Y-545351D01*
X126213736Y-551759D01*
X126222007Y-553559D01*
X126228542Y-557391D01*
X126299606Y-602043D01*
X126321313Y-619355D01*
X126380644Y-678686D01*
X126397957Y-700395D01*
X126442602Y-771447D01*
X126454649Y-796464D01*
X126482362Y-875662D01*
X126488541Y-902734D01*
X126498720Y-993076D01*
X126499500Y-1006959D01*
X126499500Y-6068059D01*
X126479815Y-6135098D01*
X126427011Y-6180853D01*
X126357853Y-6190797D01*
X126294297Y-6161772D01*
X126287819Y-6155740D01*
X126260292Y-6128213D01*
X126260288Y-6128210D01*
X126129185Y-6040609D01*
X126129172Y-6040602D01*
X125983501Y-5980264D01*
X125983489Y-5980261D01*
X125828845Y-5949500D01*
X125828842Y-5949500D01*
X125671158Y-5949500D01*
X125671155Y-5949500D01*
X125516510Y-5980261D01*
X125516498Y-5980264D01*
X125370827Y-6040602D01*
X125370814Y-6040609D01*
X125239711Y-6128210D01*
X125239707Y-6128213D01*
X125128213Y-6239707D01*
X125128210Y-6239711D01*
X125040609Y-6370814D01*
X125040602Y-6370827D01*
X124980264Y-6516498D01*
X124980261Y-6516508D01*
X124949362Y-6671848D01*
X124916977Y-6733759D01*
X124915426Y-6735337D01*
X123985339Y-7665425D01*
X123924016Y-7698910D01*
X123921850Y-7699361D01*
X123766508Y-7730261D01*
X123766498Y-7730264D01*
X123620827Y-7790602D01*
X123620814Y-7790609D01*
X123489711Y-7878210D01*
X123489707Y-7878213D01*
X123378213Y-7989707D01*
X123378210Y-7989711D01*
X123290609Y-8120814D01*
X123290602Y-8120827D01*
X123230264Y-8266498D01*
X123230261Y-8266510D01*
X123199500Y-8421153D01*
X123199500Y-8578846D01*
X123230261Y-8733489D01*
X123230264Y-8733501D01*
X123290602Y-8879172D01*
X123290609Y-8879185D01*
X123378210Y-9010288D01*
X123378213Y-9010292D01*
X123489707Y-9121786D01*
X123489711Y-9121789D01*
X123620814Y-9209390D01*
X123620827Y-9209397D01*
X123766498Y-9269735D01*
X123766503Y-9269737D01*
X123921153Y-9300499D01*
X123921156Y-9300500D01*
X123921158Y-9300500D01*
X124078844Y-9300500D01*
X124078845Y-9300499D01*
X124233497Y-9269737D01*
X124379179Y-9209394D01*
X124510289Y-9121789D01*
X124621789Y-9010289D01*
X124709394Y-8879179D01*
X124769737Y-8733497D01*
X124789113Y-8636085D01*
X124800638Y-8578150D01*
X124833023Y-8516239D01*
X124834516Y-8514718D01*
X125764664Y-7584571D01*
X125825985Y-7551088D01*
X125828152Y-7550637D01*
X125828841Y-7550500D01*
X125828842Y-7550500D01*
X125983497Y-7519737D01*
X126129179Y-7459394D01*
X126260289Y-7371789D01*
X126260292Y-7371786D01*
X126287819Y-7344260D01*
X126349142Y-7310775D01*
X126418834Y-7315759D01*
X126474767Y-7357631D01*
X126499184Y-7423095D01*
X126499500Y-7431941D01*
X126499500Y-36568059D01*
X126479815Y-36635098D01*
X126427011Y-36680853D01*
X126357853Y-36690797D01*
X126294297Y-36661772D01*
X126287819Y-36655740D01*
X126260292Y-36628213D01*
X126260288Y-36628210D01*
X126129185Y-36540609D01*
X126129172Y-36540602D01*
X125983501Y-36480264D01*
X125983489Y-36480261D01*
X125828845Y-36449500D01*
X125828842Y-36449500D01*
X125671158Y-36449500D01*
X125671155Y-36449500D01*
X125516510Y-36480261D01*
X125516498Y-36480264D01*
X125370827Y-36540602D01*
X125370814Y-36540609D01*
X125239711Y-36628210D01*
X125239707Y-36628213D01*
X125128213Y-36739707D01*
X125128210Y-36739711D01*
X125040609Y-36870814D01*
X125040602Y-36870827D01*
X124980264Y-37016498D01*
X124980261Y-37016508D01*
X124949362Y-37171848D01*
X124916977Y-37233759D01*
X124915426Y-37235337D01*
X123985339Y-38165425D01*
X123924016Y-38198910D01*
X123921850Y-38199361D01*
X123766508Y-38230261D01*
X123766498Y-38230264D01*
X123620827Y-38290602D01*
X123620814Y-38290609D01*
X123489711Y-38378210D01*
X123489707Y-38378213D01*
X123378213Y-38489707D01*
X123378210Y-38489711D01*
X123290609Y-38620814D01*
X123290602Y-38620827D01*
X123230264Y-38766498D01*
X123230261Y-38766510D01*
X123199500Y-38921153D01*
X123199500Y-39078846D01*
X123230261Y-39233489D01*
X123230264Y-39233501D01*
X123290602Y-39379172D01*
X123290609Y-39379185D01*
X123378210Y-39510288D01*
X123378213Y-39510292D01*
X123489707Y-39621786D01*
X123489711Y-39621789D01*
X123620814Y-39709390D01*
X123620827Y-39709397D01*
X123766498Y-39769735D01*
X123766503Y-39769737D01*
X123921153Y-39800499D01*
X123921156Y-39800500D01*
X123921158Y-39800500D01*
X124078844Y-39800500D01*
X124078845Y-39800499D01*
X124233497Y-39769737D01*
X124379179Y-39709394D01*
X124510289Y-39621789D01*
X124621789Y-39510289D01*
X124709394Y-39379179D01*
X124769737Y-39233497D01*
X124789113Y-39136085D01*
X124800638Y-39078150D01*
X124833023Y-39016239D01*
X124834516Y-39014718D01*
X125764664Y-38084571D01*
X125825985Y-38051088D01*
X125828152Y-38050637D01*
X125828841Y-38050500D01*
X125828842Y-38050500D01*
X125983497Y-38019737D01*
X126129179Y-37959394D01*
X126260289Y-37871789D01*
X126260292Y-37871786D01*
X126287819Y-37844260D01*
X126349142Y-37810775D01*
X126418834Y-37815759D01*
X126474767Y-37857631D01*
X126499184Y-37923095D01*
X126499500Y-37931941D01*
X126499500Y-66818059D01*
X126479815Y-66885098D01*
X126427011Y-66930853D01*
X126357853Y-66940797D01*
X126294297Y-66911772D01*
X126287819Y-66905740D01*
X126260292Y-66878213D01*
X126260288Y-66878210D01*
X126129185Y-66790609D01*
X126129172Y-66790602D01*
X125983501Y-66730264D01*
X125983489Y-66730261D01*
X125828845Y-66699500D01*
X125828842Y-66699500D01*
X125671158Y-66699500D01*
X125671155Y-66699500D01*
X125516510Y-66730261D01*
X125516498Y-66730264D01*
X125370827Y-66790602D01*
X125370814Y-66790609D01*
X125239711Y-66878210D01*
X125239707Y-66878213D01*
X125128213Y-66989707D01*
X125128210Y-66989711D01*
X125040609Y-67120814D01*
X125040602Y-67120827D01*
X124980264Y-67266498D01*
X124980261Y-67266508D01*
X124949362Y-67421848D01*
X124916977Y-67483759D01*
X124915426Y-67485337D01*
X123985339Y-68415425D01*
X123924016Y-68448910D01*
X123921850Y-68449361D01*
X123766508Y-68480261D01*
X123766498Y-68480264D01*
X123620827Y-68540602D01*
X123620814Y-68540609D01*
X123489711Y-68628210D01*
X123489707Y-68628213D01*
X123378213Y-68739707D01*
X123378210Y-68739711D01*
X123290609Y-68870814D01*
X123290602Y-68870827D01*
X123230264Y-69016498D01*
X123230261Y-69016510D01*
X123199500Y-69171153D01*
X123199500Y-69328846D01*
X123230261Y-69483489D01*
X123230264Y-69483501D01*
X123290602Y-69629172D01*
X123290609Y-69629185D01*
X123378210Y-69760288D01*
X123378213Y-69760292D01*
X123489707Y-69871786D01*
X123489711Y-69871789D01*
X123620814Y-69959390D01*
X123620827Y-69959397D01*
X123766498Y-70019735D01*
X123766503Y-70019737D01*
X123921153Y-70050499D01*
X123921156Y-70050500D01*
X123921158Y-70050500D01*
X124078844Y-70050500D01*
X124078845Y-70050499D01*
X124233497Y-70019737D01*
X124379179Y-69959394D01*
X124510289Y-69871789D01*
X124621789Y-69760289D01*
X124709394Y-69629179D01*
X124769737Y-69483497D01*
X124796709Y-69347900D01*
X124800638Y-69328150D01*
X124833023Y-69266239D01*
X124834516Y-69264718D01*
X125764664Y-68334571D01*
X125825985Y-68301088D01*
X125828152Y-68300637D01*
X125828841Y-68300500D01*
X125828842Y-68300500D01*
X125983497Y-68269737D01*
X126129179Y-68209394D01*
X126260289Y-68121789D01*
X126260292Y-68121786D01*
X126287819Y-68094260D01*
X126349142Y-68060775D01*
X126418834Y-68065759D01*
X126474767Y-68107631D01*
X126499184Y-68173095D01*
X126499500Y-68181941D01*
X126499500Y-80993040D01*
X126498720Y-81006923D01*
X126488541Y-81097265D01*
X126484561Y-81108637D01*
X126484648Y-81117102D01*
X126482362Y-81124337D01*
X126454649Y-81203535D01*
X126442602Y-81228552D01*
X126397957Y-81299604D01*
X126380644Y-81321313D01*
X126321313Y-81380644D01*
X126299604Y-81397957D01*
X126228552Y-81442602D01*
X126203535Y-81454649D01*
X126124337Y-81482362D01*
X126097265Y-81488541D01*
X126006923Y-81498720D01*
X125993040Y-81499500D01*
X1006960Y-81499500D01*
X993077Y-81498720D01*
X902734Y-81488541D01*
X891361Y-81484561D01*
X882897Y-81484648D01*
X875662Y-81482362D01*
X796464Y-81454649D01*
X771447Y-81442602D01*
X700395Y-81397957D01*
X678686Y-81380644D01*
X619355Y-81321313D01*
X602042Y-81299604D01*
X557397Y-81228552D01*
X545351Y-81203539D01*
X517636Y-81124333D01*
X511458Y-81097268D01*
X501280Y-81006922D01*
X500500Y-80993040D01*
X500500Y-70839914D01*
X8149500Y-70839914D01*
X8149500Y-71160085D01*
X8185345Y-71478216D01*
X8185347Y-71478228D01*
X8256589Y-71790362D01*
X8256590Y-71790364D01*
X8362332Y-72092559D01*
X8501243Y-72381010D01*
X8501245Y-72381013D01*
X8671581Y-72652101D01*
X8871198Y-72902413D01*
X9097587Y-73128802D01*
X9347899Y-73328419D01*
X9618987Y-73498755D01*
X9907442Y-73637668D01*
X10209637Y-73743410D01*
X10521771Y-73814653D01*
X10839915Y-73850499D01*
X10839916Y-73850500D01*
X10839919Y-73850500D01*
X11160084Y-73850500D01*
X11160084Y-73850499D01*
X11478229Y-73814653D01*
X11790363Y-73743410D01*
X12092558Y-73637668D01*
X12381013Y-73498755D01*
X12652101Y-73328419D01*
X12902413Y-73128802D01*
X13128802Y-72902413D01*
X13328419Y-72652101D01*
X13498755Y-72381013D01*
X13637668Y-72092558D01*
X13743410Y-71790363D01*
X13814653Y-71478229D01*
X13850500Y-71160081D01*
X13850500Y-70839919D01*
X13850499Y-70839914D01*
X113149500Y-70839914D01*
X113149500Y-71160085D01*
X113185345Y-71478216D01*
X113185347Y-71478228D01*
X113256589Y-71790362D01*
X113256590Y-71790364D01*
X113362332Y-72092559D01*
X113501243Y-72381010D01*
X113501245Y-72381013D01*
X113671581Y-72652101D01*
X113871198Y-72902413D01*
X114097587Y-73128802D01*
X114347899Y-73328419D01*
X114618987Y-73498755D01*
X114907442Y-73637668D01*
X115209637Y-73743410D01*
X115521771Y-73814653D01*
X115839915Y-73850499D01*
X115839916Y-73850500D01*
X115839919Y-73850500D01*
X116160084Y-73850500D01*
X116160084Y-73850499D01*
X116478229Y-73814653D01*
X116790363Y-73743410D01*
X117092558Y-73637668D01*
X117381013Y-73498755D01*
X117652101Y-73328419D01*
X117902413Y-73128802D01*
X118128802Y-72902413D01*
X118328419Y-72652101D01*
X118498755Y-72381013D01*
X118637668Y-72092558D01*
X118743410Y-71790363D01*
X118814653Y-71478229D01*
X118850500Y-71160081D01*
X118850500Y-70839919D01*
X118814653Y-70521771D01*
X118743410Y-70209637D01*
X118637668Y-69907442D01*
X118498755Y-69618987D01*
X118328419Y-69347899D01*
X118128802Y-69097587D01*
X117902413Y-68871198D01*
X117901940Y-68870821D01*
X117737528Y-68739707D01*
X117652101Y-68671581D01*
X117381013Y-68501245D01*
X117381010Y-68501243D01*
X117092559Y-68362332D01*
X116790364Y-68256590D01*
X116790362Y-68256589D01*
X116549471Y-68201607D01*
X116478229Y-68185347D01*
X116478225Y-68185346D01*
X116478216Y-68185345D01*
X116160085Y-68149500D01*
X116160081Y-68149500D01*
X115839919Y-68149500D01*
X115839914Y-68149500D01*
X115521783Y-68185345D01*
X115521771Y-68185347D01*
X115209637Y-68256589D01*
X115209635Y-68256590D01*
X114907440Y-68362332D01*
X114618989Y-68501243D01*
X114347900Y-68671580D01*
X114097587Y-68871197D01*
X113871197Y-69097587D01*
X113671580Y-69347900D01*
X113501243Y-69618989D01*
X113362332Y-69907440D01*
X113256590Y-70209635D01*
X113256589Y-70209637D01*
X113185347Y-70521771D01*
X113185345Y-70521783D01*
X113149500Y-70839914D01*
X13850499Y-70839914D01*
X13814653Y-70521771D01*
X13743410Y-70209637D01*
X13637668Y-69907442D01*
X13498755Y-69618987D01*
X13328419Y-69347899D01*
X13128802Y-69097587D01*
X12902413Y-68871198D01*
X12901940Y-68870821D01*
X12737528Y-68739707D01*
X12652101Y-68671581D01*
X12381013Y-68501245D01*
X12381010Y-68501243D01*
X12092559Y-68362332D01*
X11790364Y-68256590D01*
X11790362Y-68256589D01*
X11549471Y-68201607D01*
X11478229Y-68185347D01*
X11478225Y-68185346D01*
X11478216Y-68185345D01*
X11160085Y-68149500D01*
X11160081Y-68149500D01*
X10839919Y-68149500D01*
X10839914Y-68149500D01*
X10521783Y-68185345D01*
X10521771Y-68185347D01*
X10209637Y-68256589D01*
X10209635Y-68256590D01*
X9907440Y-68362332D01*
X9618989Y-68501243D01*
X9347900Y-68671580D01*
X9097587Y-68871197D01*
X8871197Y-69097587D01*
X8671580Y-69347900D01*
X8501243Y-69618989D01*
X8362332Y-69907440D01*
X8256590Y-70209635D01*
X8256589Y-70209637D01*
X8185347Y-70521771D01*
X8185345Y-70521783D01*
X8149500Y-70839914D01*
X500500Y-70839914D01*
X500500Y-16516228D01*
X23174500Y-16516228D01*
X23174500Y-16683771D01*
X23207182Y-16848074D01*
X23207184Y-16848082D01*
X23271295Y-17002860D01*
X23364373Y-17142162D01*
X23482837Y-17260626D01*
X23575494Y-17322537D01*
X23622137Y-17353703D01*
X23776918Y-17417816D01*
X23941228Y-17450499D01*
X23941232Y-17450500D01*
X23941233Y-17450500D01*
X24108768Y-17450500D01*
X24108769Y-17450499D01*
X24273082Y-17417816D01*
X24427863Y-17353703D01*
X24567162Y-17260626D01*
X24685626Y-17142162D01*
X24778703Y-17002863D01*
X24842816Y-16848082D01*
X24875500Y-16683767D01*
X24875500Y-16516233D01*
X24860350Y-16440066D01*
X24866577Y-16370475D01*
X24909440Y-16315297D01*
X24975330Y-16292053D01*
X25020967Y-16298168D01*
X25147203Y-16339999D01*
X25249991Y-16350500D01*
X26800008Y-16350499D01*
X26902797Y-16339999D01*
X27069334Y-16284814D01*
X27218656Y-16192712D01*
X27342712Y-16068656D01*
X27434814Y-15919334D01*
X27489999Y-15752797D01*
X27500500Y-15650009D01*
X27500499Y-14349992D01*
X27489999Y-14247203D01*
X27434814Y-14080666D01*
X27342712Y-13931344D01*
X27218656Y-13807288D01*
X27069334Y-13715186D01*
X27069333Y-13715185D01*
X27063878Y-13711821D01*
X27017154Y-13659873D01*
X27005931Y-13590910D01*
X27033775Y-13526828D01*
X27041272Y-13518623D01*
X27180104Y-13379792D01*
X27217429Y-13328419D01*
X27305048Y-13207820D01*
X27305047Y-13207820D01*
X27305051Y-13207816D01*
X27401557Y-13018412D01*
X27467246Y-12816243D01*
X27500500Y-12606287D01*
X27500500Y-12480568D01*
X37181999Y-12480568D01*
X37213434Y-12638595D01*
X37213436Y-12638603D01*
X37275097Y-12787468D01*
X37275098Y-12787471D01*
X37364617Y-12921444D01*
X37364620Y-12921448D01*
X37913181Y-13470008D01*
X37946666Y-13531331D01*
X37949500Y-13557689D01*
X37949500Y-14224255D01*
X37929815Y-14291294D01*
X37877011Y-14337049D01*
X37849691Y-14345872D01*
X37761405Y-14363433D01*
X37761397Y-14363435D01*
X37612533Y-14425096D01*
X37478552Y-14514619D01*
X37364619Y-14628552D01*
X37275096Y-14762533D01*
X37213435Y-14911397D01*
X37213433Y-14911405D01*
X37182000Y-15069429D01*
X37182000Y-15230570D01*
X37213433Y-15388594D01*
X37213435Y-15388602D01*
X37275096Y-15537466D01*
X37364619Y-15671447D01*
X37478552Y-15785380D01*
X37612533Y-15874903D01*
X37686965Y-15905733D01*
X37761398Y-15936565D01*
X37849693Y-15954127D01*
X37911601Y-15986511D01*
X37946176Y-16047226D01*
X37949500Y-16075744D01*
X37949500Y-17250015D01*
X37960000Y-17352795D01*
X37960001Y-17352797D01*
X37981546Y-17417815D01*
X38015186Y-17519335D01*
X38015187Y-17519337D01*
X38107286Y-17668651D01*
X38107289Y-17668655D01*
X38231344Y-17792710D01*
X38231348Y-17792713D01*
X38380662Y-17884812D01*
X38380664Y-17884813D01*
X38380666Y-17884814D01*
X38547203Y-17939999D01*
X38580340Y-17943384D01*
X38645032Y-17969779D01*
X38685184Y-18026959D01*
X38689356Y-18042551D01*
X38713433Y-18163594D01*
X38713435Y-18163602D01*
X38775096Y-18312466D01*
X38864619Y-18446447D01*
X38978552Y-18560380D01*
X39112533Y-18649903D01*
X39186965Y-18680733D01*
X39261398Y-18711565D01*
X39419429Y-18742999D01*
X39419433Y-18743000D01*
X39419434Y-18743000D01*
X39580567Y-18743000D01*
X39580568Y-18742999D01*
X39738602Y-18711565D01*
X39887468Y-18649902D01*
X40021445Y-18560382D01*
X40135382Y-18446445D01*
X40153270Y-18419672D01*
X40206880Y-18374867D01*
X40276205Y-18366158D01*
X40339233Y-18396311D01*
X40344035Y-18400862D01*
X40478552Y-18535379D01*
X40478556Y-18535383D01*
X40612527Y-18624900D01*
X40612529Y-18624900D01*
X40612531Y-18624902D01*
X40761398Y-18686564D01*
X40800098Y-18694262D01*
X40919431Y-18718000D01*
X40919434Y-18718000D01*
X41080567Y-18718000D01*
X41186885Y-18696851D01*
X41238602Y-18686564D01*
X41387468Y-18624902D01*
X41521444Y-18535382D01*
X41635382Y-18421444D01*
X41724902Y-18287468D01*
X41786564Y-18138602D01*
X41818000Y-17980565D01*
X41818000Y-17819434D01*
X41818000Y-17819431D01*
X41794262Y-17700098D01*
X41786564Y-17661398D01*
X41724902Y-17512531D01*
X41724900Y-17512529D01*
X41724900Y-17512527D01*
X41635382Y-17378555D01*
X41635379Y-17378551D01*
X41086819Y-16829991D01*
X41053334Y-16768668D01*
X41050500Y-16742310D01*
X41050500Y-16075744D01*
X41070185Y-16008705D01*
X41122989Y-15962950D01*
X41150300Y-15954129D01*
X41238602Y-15936565D01*
X41387468Y-15874902D01*
X41521445Y-15785382D01*
X41635382Y-15671445D01*
X41724902Y-15537468D01*
X41786565Y-15388602D01*
X41818000Y-15230566D01*
X41818000Y-15069434D01*
X41786565Y-14911398D01*
X41755733Y-14836965D01*
X41724903Y-14762533D01*
X41635380Y-14628552D01*
X41521447Y-14514619D01*
X41387466Y-14425096D01*
X41238602Y-14363435D01*
X41238594Y-14363433D01*
X41150309Y-14345872D01*
X41088398Y-14313487D01*
X41053824Y-14252772D01*
X41050500Y-14224255D01*
X41050500Y-13557689D01*
X41070185Y-13490650D01*
X41086819Y-13470008D01*
X41635379Y-12921448D01*
X41635382Y-12921445D01*
X41724902Y-12787469D01*
X41786564Y-12638602D01*
X41818000Y-12480566D01*
X41818000Y-12319435D01*
X41818000Y-12319434D01*
X41818000Y-12319432D01*
X41786565Y-12161403D01*
X41786564Y-12161402D01*
X41786564Y-12161398D01*
X41758050Y-12092558D01*
X41724905Y-12012538D01*
X41724898Y-12012525D01*
X41635382Y-11878556D01*
X41635379Y-11878552D01*
X41521447Y-11764620D01*
X41521443Y-11764617D01*
X41387474Y-11675101D01*
X41387461Y-11675094D01*
X41238606Y-11613437D01*
X41238596Y-11613434D01*
X41080567Y-11582000D01*
X41080565Y-11582000D01*
X40919434Y-11582000D01*
X40919432Y-11582000D01*
X40761404Y-11613434D01*
X40761396Y-11613436D01*
X40612530Y-11675098D01*
X40612527Y-11675099D01*
X40478555Y-11764617D01*
X40324027Y-11919145D01*
X40262704Y-11952629D01*
X40193012Y-11947645D01*
X40139798Y-11907809D01*
X40139246Y-11908263D01*
X40137399Y-11906012D01*
X40137079Y-11905773D01*
X40136304Y-11904678D01*
X40135379Y-11903551D01*
X40021447Y-11789619D01*
X39887466Y-11700096D01*
X39738602Y-11638435D01*
X39738594Y-11638433D01*
X39580570Y-11607000D01*
X39580566Y-11607000D01*
X39419434Y-11607000D01*
X39419429Y-11607000D01*
X39261405Y-11638433D01*
X39261397Y-11638435D01*
X39112533Y-11700096D01*
X38978552Y-11789619D01*
X38864620Y-11903551D01*
X38860754Y-11908263D01*
X38859013Y-11906834D01*
X38813107Y-11945175D01*
X38743780Y-11953861D01*
X38680762Y-11923687D01*
X38675990Y-11919163D01*
X38521445Y-11764618D01*
X38521444Y-11764617D01*
X38521443Y-11764616D01*
X38387471Y-11675098D01*
X38387468Y-11675097D01*
X38238603Y-11613436D01*
X38238595Y-11613434D01*
X38080568Y-11582000D01*
X38080566Y-11582000D01*
X37919434Y-11582000D01*
X37919432Y-11582000D01*
X37761404Y-11613434D01*
X37761396Y-11613436D01*
X37612531Y-11675097D01*
X37612528Y-11675098D01*
X37478555Y-11764617D01*
X37478551Y-11764620D01*
X37364620Y-11878551D01*
X37364617Y-11878555D01*
X37275098Y-12012528D01*
X37275097Y-12012531D01*
X37213436Y-12161396D01*
X37213434Y-12161404D01*
X37182000Y-12319431D01*
X37182000Y-12319432D01*
X37182000Y-12319434D01*
X37182000Y-12480566D01*
X37182000Y-12480568D01*
X37181999Y-12480568D01*
X27500500Y-12480568D01*
X27500500Y-12393713D01*
X27488735Y-12319435D01*
X27467246Y-12183760D01*
X27467246Y-12183757D01*
X27401557Y-11981588D01*
X27305051Y-11792184D01*
X27305049Y-11792181D01*
X27305048Y-11792179D01*
X27180109Y-11620213D01*
X27029790Y-11469894D01*
X27029785Y-11469890D01*
X26864781Y-11350008D01*
X26822115Y-11294678D01*
X26816136Y-11225065D01*
X26848741Y-11163270D01*
X26864781Y-11149371D01*
X27029466Y-11029721D01*
X27179723Y-10879464D01*
X27179727Y-10879459D01*
X27208458Y-10839914D01*
X113149500Y-10839914D01*
X113149500Y-11160085D01*
X113185345Y-11478216D01*
X113185347Y-11478228D01*
X113256589Y-11790362D01*
X113256590Y-11790364D01*
X113362332Y-12092559D01*
X113501243Y-12381010D01*
X113501245Y-12381013D01*
X113671581Y-12652101D01*
X113871198Y-12902413D01*
X114097587Y-13128802D01*
X114347899Y-13328419D01*
X114606088Y-13490650D01*
X114618989Y-13498756D01*
X114677281Y-13526828D01*
X114907442Y-13637668D01*
X115209637Y-13743410D01*
X115521771Y-13814653D01*
X115839915Y-13850499D01*
X115839916Y-13850500D01*
X115839919Y-13850500D01*
X116160084Y-13850500D01*
X116160084Y-13850499D01*
X116478229Y-13814653D01*
X116790363Y-13743410D01*
X117092558Y-13637668D01*
X117381013Y-13498755D01*
X117652101Y-13328419D01*
X117902413Y-13128802D01*
X118128802Y-12902413D01*
X118328419Y-12652101D01*
X118498755Y-12381013D01*
X118637668Y-12092558D01*
X118743410Y-11790363D01*
X118814653Y-11478229D01*
X118850500Y-11160081D01*
X118850500Y-10839919D01*
X118814653Y-10521771D01*
X118743410Y-10209637D01*
X118637668Y-9907442D01*
X118498755Y-9618987D01*
X118328419Y-9347899D01*
X118128802Y-9097587D01*
X117902413Y-8871198D01*
X117652101Y-8671581D01*
X117381013Y-8501245D01*
X117381010Y-8501243D01*
X117092559Y-8362332D01*
X116790364Y-8256590D01*
X116790362Y-8256589D01*
X116549471Y-8201607D01*
X116478229Y-8185347D01*
X116478225Y-8185346D01*
X116478216Y-8185345D01*
X116160085Y-8149500D01*
X116160081Y-8149500D01*
X115839919Y-8149500D01*
X115839914Y-8149500D01*
X115521783Y-8185345D01*
X115521771Y-8185347D01*
X115209637Y-8256589D01*
X115209635Y-8256590D01*
X114907440Y-8362332D01*
X114618989Y-8501243D01*
X114347900Y-8671580D01*
X114097587Y-8871197D01*
X113871197Y-9097587D01*
X113671580Y-9347900D01*
X113501243Y-9618989D01*
X113362332Y-9907440D01*
X113256590Y-10209635D01*
X113256589Y-10209637D01*
X113185347Y-10521771D01*
X113185345Y-10521783D01*
X113149500Y-10839914D01*
X27208458Y-10839914D01*
X27263937Y-10763555D01*
X27304620Y-10707557D01*
X27401095Y-10518217D01*
X27466757Y-10316129D01*
X27466757Y-10316126D01*
X27477231Y-10250000D01*
X26429146Y-10250000D01*
X26467630Y-10183343D01*
X26500000Y-10062535D01*
X26500000Y-9937465D01*
X26467630Y-9816657D01*
X26429146Y-9750000D01*
X27477231Y-9750000D01*
X27466757Y-9683873D01*
X27466757Y-9683870D01*
X27401095Y-9481782D01*
X27304620Y-9292442D01*
X27179727Y-9120540D01*
X27179723Y-9120535D01*
X27029464Y-8970276D01*
X27029459Y-8970272D01*
X26857557Y-8845379D01*
X26668217Y-8748904D01*
X26466128Y-8683242D01*
X26275000Y-8652969D01*
X26275000Y-9595854D01*
X26208343Y-9557370D01*
X26087535Y-9525000D01*
X25962465Y-9525000D01*
X25841657Y-9557370D01*
X25775000Y-9595854D01*
X25775000Y-8652969D01*
X25583872Y-8683242D01*
X25583869Y-8683242D01*
X25381782Y-8748904D01*
X25192442Y-8845379D01*
X25020540Y-8970272D01*
X25020535Y-8970276D01*
X24870276Y-9120535D01*
X24870272Y-9120540D01*
X24745379Y-9292442D01*
X24648904Y-9481782D01*
X24583242Y-9683870D01*
X24583242Y-9683873D01*
X24572769Y-9750000D01*
X25620854Y-9750000D01*
X25582370Y-9816657D01*
X25550000Y-9937465D01*
X25550000Y-10062535D01*
X25582370Y-10183343D01*
X25620854Y-10250000D01*
X24572769Y-10250000D01*
X24583242Y-10316126D01*
X24583242Y-10316129D01*
X24648904Y-10518217D01*
X24745379Y-10707557D01*
X24870272Y-10879459D01*
X24870276Y-10879464D01*
X25020535Y-11029723D01*
X25020540Y-11029727D01*
X25185218Y-11149372D01*
X25227884Y-11204701D01*
X25233863Y-11274315D01*
X25201258Y-11336110D01*
X25185218Y-11350008D01*
X25020214Y-11469890D01*
X25020209Y-11469894D01*
X24869890Y-11620213D01*
X24744951Y-11792179D01*
X24648444Y-11981585D01*
X24582753Y-12183760D01*
X24549500Y-12393713D01*
X24549500Y-12606286D01*
X24578196Y-12787469D01*
X24582754Y-12816243D01*
X24616937Y-12921448D01*
X24648444Y-13018414D01*
X24744951Y-13207820D01*
X24869890Y-13379786D01*
X25008705Y-13518601D01*
X25042190Y-13579924D01*
X25037206Y-13649616D01*
X24995334Y-13705549D01*
X24986121Y-13711821D01*
X24831342Y-13807289D01*
X24707289Y-13931342D01*
X24615187Y-14080663D01*
X24615186Y-14080666D01*
X24560001Y-14247203D01*
X24560001Y-14247204D01*
X24560000Y-14247204D01*
X24549500Y-14349983D01*
X24549500Y-15650001D01*
X24549502Y-15650021D01*
X24554701Y-15700921D01*
X24541931Y-15769614D01*
X24494049Y-15820497D01*
X24426259Y-15837417D01*
X24383891Y-15828082D01*
X24273086Y-15782185D01*
X24273074Y-15782182D01*
X24108771Y-15749500D01*
X24108767Y-15749500D01*
X23941233Y-15749500D01*
X23941228Y-15749500D01*
X23776925Y-15782182D01*
X23776917Y-15782184D01*
X23622139Y-15846295D01*
X23482837Y-15939373D01*
X23364373Y-16057837D01*
X23271295Y-16197139D01*
X23207184Y-16351917D01*
X23207182Y-16351925D01*
X23174500Y-16516228D01*
X500500Y-16516228D01*
X500500Y-10839914D01*
X8149500Y-10839914D01*
X8149500Y-11160085D01*
X8185345Y-11478216D01*
X8185347Y-11478228D01*
X8256589Y-11790362D01*
X8256590Y-11790364D01*
X8362332Y-12092559D01*
X8501243Y-12381010D01*
X8501245Y-12381013D01*
X8671581Y-12652101D01*
X8871198Y-12902413D01*
X9097587Y-13128802D01*
X9347899Y-13328419D01*
X9606088Y-13490650D01*
X9618989Y-13498756D01*
X9677281Y-13526828D01*
X9907442Y-13637668D01*
X10209637Y-13743410D01*
X10521771Y-13814653D01*
X10839915Y-13850499D01*
X10839916Y-13850500D01*
X10839919Y-13850500D01*
X11160084Y-13850500D01*
X11160084Y-13850499D01*
X11478229Y-13814653D01*
X11790363Y-13743410D01*
X12092558Y-13637668D01*
X12381013Y-13498755D01*
X12652101Y-13328419D01*
X12902413Y-13128802D01*
X13128802Y-12902413D01*
X13328419Y-12652101D01*
X13498755Y-12381013D01*
X13637668Y-12092558D01*
X13743410Y-11790363D01*
X13814653Y-11478229D01*
X13850500Y-11160081D01*
X13850500Y-10839919D01*
X13814653Y-10521771D01*
X13743410Y-10209637D01*
X13637668Y-9907442D01*
X13498755Y-9618987D01*
X13328419Y-9347899D01*
X13128802Y-9097587D01*
X12902413Y-8871198D01*
X12652101Y-8671581D01*
X12381013Y-8501245D01*
X12381010Y-8501243D01*
X12274572Y-8449985D01*
X37950000Y-8449985D01*
X37960493Y-8552689D01*
X37960494Y-8552696D01*
X38015641Y-8719118D01*
X38015643Y-8719123D01*
X38107684Y-8868344D01*
X38231655Y-8992315D01*
X38380876Y-9084356D01*
X38380881Y-9084358D01*
X38547303Y-9139505D01*
X38547310Y-9139506D01*
X38650014Y-9149999D01*
X38650027Y-9150000D01*
X39250000Y-9150000D01*
X39750000Y-9150000D01*
X40349973Y-9150000D01*
X40349985Y-9149999D01*
X40452689Y-9139506D01*
X40452696Y-9139505D01*
X40619118Y-9084358D01*
X40619123Y-9084356D01*
X40768344Y-8992315D01*
X40892315Y-8868344D01*
X40984356Y-8719123D01*
X40984358Y-8719118D01*
X41039505Y-8552696D01*
X41039506Y-8552689D01*
X41049999Y-8449985D01*
X41050000Y-8449972D01*
X41050000Y-6600000D01*
X39750000Y-6600000D01*
X39750000Y-9150000D01*
X39250000Y-9150000D01*
X39250000Y-6600000D01*
X37950000Y-6600000D01*
X37950000Y-8449985D01*
X12274572Y-8449985D01*
X12092559Y-8362332D01*
X11790364Y-8256590D01*
X11790362Y-8256589D01*
X11549471Y-8201607D01*
X11478229Y-8185347D01*
X11478225Y-8185346D01*
X11478216Y-8185345D01*
X11160085Y-8149500D01*
X11160081Y-8149500D01*
X10839919Y-8149500D01*
X10839914Y-8149500D01*
X10521783Y-8185345D01*
X10521771Y-8185347D01*
X10209637Y-8256589D01*
X10209635Y-8256590D01*
X9907440Y-8362332D01*
X9618989Y-8501243D01*
X9347900Y-8671580D01*
X9097587Y-8871197D01*
X8871197Y-9097587D01*
X8671580Y-9347900D01*
X8501243Y-9618989D01*
X8362332Y-9907440D01*
X8256590Y-10209635D01*
X8256589Y-10209637D01*
X8185347Y-10521771D01*
X8185345Y-10521783D01*
X8149500Y-10839914D01*
X500500Y-10839914D01*
X500500Y-4250014D01*
X37950000Y-4250014D01*
X37950000Y-6100000D01*
X39250000Y-6100000D01*
X39750000Y-6100000D01*
X41050000Y-6100000D01*
X41050000Y-4250027D01*
X41049999Y-4250014D01*
X41039506Y-4147310D01*
X41039505Y-4147303D01*
X40984358Y-3980881D01*
X40984356Y-3980876D01*
X40892315Y-3831655D01*
X40768344Y-3707684D01*
X40619123Y-3615643D01*
X40619118Y-3615641D01*
X40452696Y-3560494D01*
X40452689Y-3560493D01*
X40349985Y-3550000D01*
X39750000Y-3550000D01*
X39750000Y-6100000D01*
X39250000Y-6100000D01*
X39250000Y-3550000D01*
X38650014Y-3550000D01*
X38547310Y-3560493D01*
X38547303Y-3560494D01*
X38380881Y-3615641D01*
X38380876Y-3615643D01*
X38231655Y-3707684D01*
X38107684Y-3831655D01*
X38015643Y-3980876D01*
X38015641Y-3980881D01*
X37960494Y-4147303D01*
X37960493Y-4147310D01*
X37950000Y-4250014D01*
X500500Y-4250014D01*
X500500Y-1006959D01*
X501280Y-993077D01*
X501320Y-992717D01*
X511458Y-902732D01*
X515437Y-891362D01*
X515351Y-882897D01*
X517629Y-875684D01*
X545353Y-796457D01*
X557393Y-771453D01*
X602046Y-700389D01*
X619351Y-678690D01*
X678690Y-619351D01*
X700389Y-602046D01*
X771453Y-557393D01*
X796457Y-545353D01*
X875668Y-517635D01*
X902729Y-511459D01*
X978753Y-502893D01*
X993078Y-501280D01*
X1006960Y-500500D01*
X1065892Y-500500D01*
X125934108Y-500500D01*
X125993040Y-500500D01*
X126006922Y-501280D01*
G37*
%TD.AperFunction*%
%TD*%
M02*
