M48
; DRILL file KiCad 10.0.5 date 2026-08-19T02:53:30
; FORMAT={-:-/ absolute / metric / decimal}
; #@! TF.CreationDate,2026-08-19T02:53:30-07:00
; #@! TF.GenerationSoftware,Kicad,Pcbnew,10.0.5
; #@! TF.FileFunction,Plated,1,2,PTH
FMAT,2
METRIC
; #@! TA.AperFunction,Plated,PTH,ViaDrill
T1C0.300
; #@! TA.AperFunction,Plated,PTH,ComponentDrill
T2C0.950
; #@! TA.AperFunction,Plated,PTH,ComponentDrill
T3C4.300
%
G90
G05
T1
X1.25Y-33.0
X1.25Y-63.25
X3.75Y-2.0
X3.75Y-20.0
X3.75Y-50.0
X3.75Y-80.0
X18.5Y-2.0
X18.5Y-20.0
X18.5Y-32.0
X18.5Y-50.0
X18.5Y-62.0
X18.5Y-80.0
X33.5Y-2.0
X33.5Y-20.0
X33.5Y-32.0
X33.5Y-50.0
X33.5Y-62.0
X33.5Y-80.0
X38.0Y-12.4
X38.0Y-15.15
X39.5Y-12.425
X39.5Y-17.925
X41.0Y-12.4
X41.0Y-15.15
X41.0Y-17.9
X48.5Y-2.0
X48.5Y-20.0
X48.5Y-32.0
X48.5Y-50.0
X48.5Y-62.0
X48.5Y-80.0
X63.5Y-2.0
X63.5Y-20.0
X63.5Y-32.0
X63.5Y-50.0
X63.5Y-62.0
X63.5Y-80.0
X78.5Y-2.0
X78.5Y-20.0
X78.5Y-32.0
X78.5Y-50.0
X78.5Y-62.0
X78.5Y-80.0
X93.5Y-2.0
X93.5Y-20.0
X93.5Y-32.0
X93.5Y-50.0
X93.5Y-62.0
X93.5Y-80.0
X108.5Y-2.0
X108.5Y-20.0
X108.5Y-32.0
X108.5Y-50.0
X108.5Y-62.0
X108.5Y-80.0
X123.275Y-2.0
X123.275Y-20.0
X123.275Y-32.0
X123.275Y-50.0
X123.275Y-62.0
X123.275Y-80.0
X124.0Y-8.5
X124.0Y-39.0
X124.0Y-69.25
X125.75Y-6.75
X125.75Y-37.25
X125.75Y-67.5
T2
X26.025Y-10.0
X26.025Y-12.5
X26.025Y-15.0
T3
X11.0Y-11.0
X11.0Y-71.0
X116.0Y-11.0
X116.0Y-71.0
M30
