%TF.GenerationSoftware,KiCad,Pcbnew,10.0.5*%
%TF.CreationDate,2026-08-19T02:52:35-07:00*%
%TF.ProjectId,lightbox,6c696768-7462-46f7-982e-6b696361645f,rev?*%
%TF.SameCoordinates,Original*%
%TF.FileFunction,Legend,Bot*%
%TF.FilePolarity,Positive*%
%FSLAX46Y46*%
G04 Gerber Fmt 4.6, Leading zero omitted, Abs format (unit mm)*
G04 Created by KiCad (PCBNEW 10.0.5) date 2026-08-19 02:52:35*
%MOMM*%
%LPD*%
G01*
G04 APERTURE LIST*
G04 Aperture macros list*
%AMRoundRect*
0 Rectangle with rounded corners*
0 $1 Rounding radius*
0 $2 $3 $4 $5 $6 $7 $8 $9 X,Y pos of 4 corners*
0 Add a 4 corners polygon primitive as box body*
4,1,4,$2,$3,$4,$5,$6,$7,$8,$9,$2,$3,0*
0 Add four circle primitives for the rounded corners*
1,1,$1+$1,$2,$3*
1,1,$1+$1,$4,$5*
1,1,$1+$1,$6,$7*
1,1,$1+$1,$8,$9*
0 Add four rect primitives between the rounded corners*
20,1,$1+$1,$2,$3,$4,$5,0*
20,1,$1+$1,$4,$5,$6,$7,0*
20,1,$1+$1,$6,$7,$8,$9,0*
20,1,$1+$1,$8,$9,$2,$3,0*%
G04 Aperture macros list end*
%ADD10C,0.150000*%
%ADD11C,0.120000*%
%ADD12C,4.700000*%
%ADD13RoundRect,0.250001X0.799999X-2.049999X0.799999X2.049999X-0.799999X2.049999X-0.799999X-2.049999X0*%
%ADD14C,1.200000*%
%ADD15RoundRect,0.250000X0.725000X-0.600000X0.725000X0.600000X-0.725000X0.600000X-0.725000X-0.600000X0*%
%ADD16O,1.950000X1.700000*%
G04 APERTURE END LIST*
G36*
X4000000Y-78000000D02*
G01*
X14000000Y-78000000D01*
X14000000Y-80000000D01*
X4000000Y-80000000D01*
X4000000Y-78000000D01*
G37*
D10*
X46059580Y-10583333D02*
X46107200Y-10535714D01*
X46107200Y-10535714D02*
X46154819Y-10392857D01*
X46154819Y-10392857D02*
X46154819Y-10297619D01*
X46154819Y-10297619D02*
X46107200Y-10154762D01*
X46107200Y-10154762D02*
X46011961Y-10059524D01*
X46011961Y-10059524D02*
X45916723Y-10011905D01*
X45916723Y-10011905D02*
X45726247Y-9964286D01*
X45726247Y-9964286D02*
X45583390Y-9964286D01*
X45583390Y-9964286D02*
X45392914Y-10011905D01*
X45392914Y-10011905D02*
X45297676Y-10059524D01*
X45297676Y-10059524D02*
X45202438Y-10154762D01*
X45202438Y-10154762D02*
X45154819Y-10297619D01*
X45154819Y-10297619D02*
X45154819Y-10392857D01*
X45154819Y-10392857D02*
X45202438Y-10535714D01*
X45202438Y-10535714D02*
X45250057Y-10583333D01*
X46154819Y-11535714D02*
X46154819Y-10964286D01*
X46154819Y-11250000D02*
X45154819Y-11250000D01*
X45154819Y-11250000D02*
X45297676Y-11154762D01*
X45297676Y-11154762D02*
X45392914Y-11059524D01*
X45392914Y-11059524D02*
X45440533Y-10964286D01*
X29029819Y-12166666D02*
X29744104Y-12166666D01*
X29744104Y-12166666D02*
X29886961Y-12119047D01*
X29886961Y-12119047D02*
X29982200Y-12023809D01*
X29982200Y-12023809D02*
X30029819Y-11880952D01*
X30029819Y-11880952D02*
X30029819Y-11785714D01*
X30029819Y-13166666D02*
X30029819Y-12595238D01*
X30029819Y-12880952D02*
X29029819Y-12880952D01*
X29029819Y-12880952D02*
X29172676Y-12785714D01*
X29172676Y-12785714D02*
X29267914Y-12690476D01*
X29267914Y-12690476D02*
X29315533Y-12595238D01*
%TO.C,C1*%
D11*
X34240000Y-5490000D02*
X38190000Y-5490000D01*
X34240000Y-14945563D02*
X34240000Y-5490000D01*
X35304437Y-16010000D02*
X34240000Y-14945563D01*
X35304437Y-16010000D02*
X38190000Y-16010000D01*
X43695563Y-16010000D02*
X40810000Y-16010000D01*
X43695563Y-16010000D02*
X44760000Y-14945563D01*
X44760000Y-5490000D02*
X40810000Y-5490000D01*
X44760000Y-14945563D02*
X44760000Y-5490000D01*
%TO.C,J1*%
X23275000Y-8200000D02*
X23275000Y-12500000D01*
X23275000Y-12500000D02*
X23275000Y-15740000D01*
X26225000Y-7450000D02*
X26225000Y-8200000D01*
X26225000Y-8200000D02*
X23275000Y-8200000D01*
X26225000Y-16800000D02*
X24885000Y-16800000D01*
X26225000Y-17550000D02*
X26225000Y-16800000D01*
X28775000Y-16600000D02*
X28775000Y-17850000D01*
X28775000Y-17850000D02*
X27525000Y-17850000D01*
X27725000Y-7450000D02*
X28475000Y-7450000D01*
X28475000Y-9250000D01*
X27725000Y-9250000D01*
X27725000Y-7450000D01*
X27725000Y-10750000D02*
X28475000Y-10750000D01*
X28475000Y-14250000D01*
X27725000Y-14250000D01*
X27725000Y-10750000D01*
X27725000Y-15750000D02*
X28475000Y-15750000D01*
X28475000Y-17550000D01*
X27725000Y-17550000D01*
X27725000Y-15750000D01*
X22515000Y-7440000D02*
X28485000Y-7440000D01*
X28485000Y-17560000D01*
X22515000Y-17560000D01*
X22515000Y-7440000D01*
%TD*%
%LPC*%
D12*
%TO.C,H4*%
X116000000Y-71000000D03*
%TD*%
%TO.C,H3*%
X116000000Y-11000000D03*
%TD*%
%TO.C,H2*%
X11000000Y-71000000D03*
%TD*%
%TO.C,H1*%
X11000000Y-11000000D03*
%TD*%
D13*
%TO.C,C1*%
X39500000Y-15150000D03*
X39500000Y-6350000D03*
%TD*%
D14*
%TO.C,J1*%
X24025000Y-16600000D03*
D15*
X26025000Y-15000000D03*
D16*
X26025000Y-12500000D03*
X26025000Y-10000000D03*
%TD*%
%LPD*%
M02*
