%TF.GenerationSoftware,KiCad,Pcbnew,10.0.5*%
%TF.CreationDate,2026-08-19T02:53:30-07:00*%
%TF.ProjectId,lightbox,6c696768-7462-46f7-982e-6b696361645f,rev?*%
%TF.SameCoordinates,Original*%
%TF.FileFunction,Drillmap*%
%TF.FilePolarity,Positive*%
%FSLAX45Y45*%
G04 Gerber Fmt 4.5, Leading zero omitted, Abs format (unit mm)*
G04 Created by KiCad (PCBNEW 10.0.5) date 2026-08-19 02:53:30*
%MOMM*%
%LPD*%
G01*
G04 APERTURE LIST*
%ADD10C,0.050000*%
%ADD11C,0.200000*%
%ADD12C,0.100000*%
%ADD13C,0.430000*%
G04 APERTURE END LIST*
D10*
X0Y-100000D02*
X0Y-100000D01*
G75*
G02*
X100000Y0I100000J0D01*
G01*
X12600000Y0D01*
G75*
G02*
X12700000Y-100000I0J-100000D01*
G01*
X12700000Y-8100000D01*
G75*
G02*
X12600000Y-8200000I-100000J0D01*
G01*
X100000Y-8200000D01*
G75*
G02*
X0Y-8100000I0J100000D01*
G01*
X0Y-100000D01*
D11*
D12*
X110000Y-3285000D02*
X140000Y-3315000D01*
X140000Y-3285000D02*
X110000Y-3315000D01*
X110000Y-6310000D02*
X140000Y-6340000D01*
X140000Y-6310000D02*
X110000Y-6340000D01*
X360000Y-185000D02*
X390000Y-215000D01*
X390000Y-185000D02*
X360000Y-215000D01*
X360000Y-1985000D02*
X390000Y-2015000D01*
X390000Y-1985000D02*
X360000Y-2015000D01*
X360000Y-4985000D02*
X390000Y-5015000D01*
X390000Y-4985000D02*
X360000Y-5015000D01*
X360000Y-7985000D02*
X390000Y-8015000D01*
X390000Y-7985000D02*
X360000Y-8015000D01*
X1835000Y-185000D02*
X1865000Y-215000D01*
X1865000Y-185000D02*
X1835000Y-215000D01*
X1835000Y-1985000D02*
X1865000Y-2015000D01*
X1865000Y-1985000D02*
X1835000Y-2015000D01*
X1835000Y-3185000D02*
X1865000Y-3215000D01*
X1865000Y-3185000D02*
X1835000Y-3215000D01*
X1835000Y-4985000D02*
X1865000Y-5015000D01*
X1865000Y-4985000D02*
X1835000Y-5015000D01*
X1835000Y-6185000D02*
X1865000Y-6215000D01*
X1865000Y-6185000D02*
X1835000Y-6215000D01*
X1835000Y-7985000D02*
X1865000Y-8015000D01*
X1865000Y-7985000D02*
X1835000Y-8015000D01*
X3335000Y-185000D02*
X3365000Y-215000D01*
X3365000Y-185000D02*
X3335000Y-215000D01*
X3335000Y-1985000D02*
X3365000Y-2015000D01*
X3365000Y-1985000D02*
X3335000Y-2015000D01*
X3335000Y-3185000D02*
X3365000Y-3215000D01*
X3365000Y-3185000D02*
X3335000Y-3215000D01*
X3335000Y-4985000D02*
X3365000Y-5015000D01*
X3365000Y-4985000D02*
X3335000Y-5015000D01*
X3335000Y-6185000D02*
X3365000Y-6215000D01*
X3365000Y-6185000D02*
X3335000Y-6215000D01*
X3335000Y-7985000D02*
X3365000Y-8015000D01*
X3365000Y-7985000D02*
X3335000Y-8015000D01*
X3785000Y-1225000D02*
X3815000Y-1255000D01*
X3815000Y-1225000D02*
X3785000Y-1255000D01*
X3785000Y-1500000D02*
X3815000Y-1530000D01*
X3815000Y-1500000D02*
X3785000Y-1530000D01*
X3935000Y-1227500D02*
X3965000Y-1257500D01*
X3965000Y-1227500D02*
X3935000Y-1257500D01*
X3935000Y-1777500D02*
X3965000Y-1807500D01*
X3965000Y-1777500D02*
X3935000Y-1807500D01*
X4085000Y-1225000D02*
X4115000Y-1255000D01*
X4115000Y-1225000D02*
X4085000Y-1255000D01*
X4085000Y-1500000D02*
X4115000Y-1530000D01*
X4115000Y-1500000D02*
X4085000Y-1530000D01*
X4085000Y-1775000D02*
X4115000Y-1805000D01*
X4115000Y-1775000D02*
X4085000Y-1805000D01*
X4835000Y-185000D02*
X4865000Y-215000D01*
X4865000Y-185000D02*
X4835000Y-215000D01*
X4835000Y-1985000D02*
X4865000Y-2015000D01*
X4865000Y-1985000D02*
X4835000Y-2015000D01*
X4835000Y-3185000D02*
X4865000Y-3215000D01*
X4865000Y-3185000D02*
X4835000Y-3215000D01*
X4835000Y-4985000D02*
X4865000Y-5015000D01*
X4865000Y-4985000D02*
X4835000Y-5015000D01*
X4835000Y-6185000D02*
X4865000Y-6215000D01*
X4865000Y-6185000D02*
X4835000Y-6215000D01*
X4835000Y-7985000D02*
X4865000Y-8015000D01*
X4865000Y-7985000D02*
X4835000Y-8015000D01*
X6335000Y-185000D02*
X6365000Y-215000D01*
X6365000Y-185000D02*
X6335000Y-215000D01*
X6335000Y-1985000D02*
X6365000Y-2015000D01*
X6365000Y-1985000D02*
X6335000Y-2015000D01*
X6335000Y-3185000D02*
X6365000Y-3215000D01*
X6365000Y-3185000D02*
X6335000Y-3215000D01*
X6335000Y-4985000D02*
X6365000Y-5015000D01*
X6365000Y-4985000D02*
X6335000Y-5015000D01*
X6335000Y-6185000D02*
X6365000Y-6215000D01*
X6365000Y-6185000D02*
X6335000Y-6215000D01*
X6335000Y-7985000D02*
X6365000Y-8015000D01*
X6365000Y-7985000D02*
X6335000Y-8015000D01*
X7835000Y-185000D02*
X7865000Y-215000D01*
X7865000Y-185000D02*
X7835000Y-215000D01*
X7835000Y-1985000D02*
X7865000Y-2015000D01*
X7865000Y-1985000D02*
X7835000Y-2015000D01*
X7835000Y-3185000D02*
X7865000Y-3215000D01*
X7865000Y-3185000D02*
X7835000Y-3215000D01*
X7835000Y-4985000D02*
X7865000Y-5015000D01*
X7865000Y-4985000D02*
X7835000Y-5015000D01*
X7835000Y-6185000D02*
X7865000Y-6215000D01*
X7865000Y-6185000D02*
X7835000Y-6215000D01*
X7835000Y-7985000D02*
X7865000Y-8015000D01*
X7865000Y-7985000D02*
X7835000Y-8015000D01*
X9335000Y-185000D02*
X9365000Y-215000D01*
X9365000Y-185000D02*
X9335000Y-215000D01*
X9335000Y-1985000D02*
X9365000Y-2015000D01*
X9365000Y-1985000D02*
X9335000Y-2015000D01*
X9335000Y-3185000D02*
X9365000Y-3215000D01*
X9365000Y-3185000D02*
X9335000Y-3215000D01*
X9335000Y-4985000D02*
X9365000Y-5015000D01*
X9365000Y-4985000D02*
X9335000Y-5015000D01*
X9335000Y-6185000D02*
X9365000Y-6215000D01*
X9365000Y-6185000D02*
X9335000Y-6215000D01*
X9335000Y-7985000D02*
X9365000Y-8015000D01*
X9365000Y-7985000D02*
X9335000Y-8015000D01*
X10835000Y-185000D02*
X10865000Y-215000D01*
X10865000Y-185000D02*
X10835000Y-215000D01*
X10835000Y-1985000D02*
X10865000Y-2015000D01*
X10865000Y-1985000D02*
X10835000Y-2015000D01*
X10835000Y-3185000D02*
X10865000Y-3215000D01*
X10865000Y-3185000D02*
X10835000Y-3215000D01*
X10835000Y-4985000D02*
X10865000Y-5015000D01*
X10865000Y-4985000D02*
X10835000Y-5015000D01*
X10835000Y-6185000D02*
X10865000Y-6215000D01*
X10865000Y-6185000D02*
X10835000Y-6215000D01*
X10835000Y-7985000D02*
X10865000Y-8015000D01*
X10865000Y-7985000D02*
X10835000Y-8015000D01*
X12312500Y-185000D02*
X12342500Y-215000D01*
X12342500Y-185000D02*
X12312500Y-215000D01*
X12312500Y-1985000D02*
X12342500Y-2015000D01*
X12342500Y-1985000D02*
X12312500Y-2015000D01*
X12312500Y-3185000D02*
X12342500Y-3215000D01*
X12342500Y-3185000D02*
X12312500Y-3215000D01*
X12312500Y-4985000D02*
X12342500Y-5015000D01*
X12342500Y-4985000D02*
X12312500Y-5015000D01*
X12312500Y-6185000D02*
X12342500Y-6215000D01*
X12342500Y-6185000D02*
X12312500Y-6215000D01*
X12312500Y-7985000D02*
X12342500Y-8015000D01*
X12342500Y-7985000D02*
X12312500Y-8015000D01*
X12385000Y-835000D02*
X12415000Y-865000D01*
X12415000Y-835000D02*
X12385000Y-865000D01*
X12385000Y-3885000D02*
X12415000Y-3915000D01*
X12415000Y-3885000D02*
X12385000Y-3915000D01*
X12385000Y-6910000D02*
X12415000Y-6940000D01*
X12415000Y-6910000D02*
X12385000Y-6940000D01*
X12560000Y-660000D02*
X12590000Y-690000D01*
X12590000Y-660000D02*
X12560000Y-690000D01*
X12560000Y-3710000D02*
X12590000Y-3740000D01*
X12590000Y-3710000D02*
X12560000Y-3740000D01*
X12560000Y-6735000D02*
X12590000Y-6765000D01*
X12590000Y-6735000D02*
X12560000Y-6765000D01*
X2650000Y-1000000D02*
G75*
G02*
X2555000Y-1000000I-47500J0D01*
G01*
X2555000Y-1000000D02*
G75*
G02*
X2650000Y-1000000I47500J0D01*
G01*
X2650000Y-1250000D02*
G75*
G02*
X2555000Y-1250000I-47500J0D01*
G01*
X2555000Y-1250000D02*
G75*
G02*
X2650000Y-1250000I47500J0D01*
G01*
X2650000Y-1500000D02*
G75*
G02*
X2555000Y-1500000I-47500J0D01*
G01*
X2555000Y-1500000D02*
G75*
G02*
X2650000Y-1500000I47500J0D01*
G01*
D13*
X1100000Y-885000D02*
X1100000Y-1315000D01*
X885000Y-1100000D02*
X1315000Y-1100000D01*
X1100000Y-6885000D02*
X1100000Y-7315000D01*
X885000Y-7100000D02*
X1315000Y-7100000D01*
X11600000Y-885000D02*
X11600000Y-1315000D01*
X11385000Y-1100000D02*
X11815000Y-1100000D01*
X11600000Y-6885000D02*
X11600000Y-7315000D01*
X11385000Y-7100000D02*
X11815000Y-7100000D01*
D11*
X258277Y-8513984D02*
X258277Y-8313984D01*
X258277Y-8313984D02*
X305896Y-8313984D01*
X305896Y-8313984D02*
X334467Y-8323508D01*
X334467Y-8323508D02*
X353515Y-8342555D01*
X353515Y-8342555D02*
X363039Y-8361603D01*
X363039Y-8361603D02*
X372562Y-8399698D01*
X372562Y-8399698D02*
X372562Y-8428270D01*
X372562Y-8428270D02*
X363039Y-8466365D01*
X363039Y-8466365D02*
X353515Y-8485412D01*
X353515Y-8485412D02*
X334467Y-8504460D01*
X334467Y-8504460D02*
X305896Y-8513984D01*
X305896Y-8513984D02*
X258277Y-8513984D01*
X458277Y-8513984D02*
X458277Y-8380650D01*
X458277Y-8418746D02*
X467801Y-8399698D01*
X467801Y-8399698D02*
X477324Y-8390174D01*
X477324Y-8390174D02*
X496372Y-8380650D01*
X496372Y-8380650D02*
X515420Y-8380650D01*
X582086Y-8513984D02*
X582086Y-8380650D01*
X582086Y-8313984D02*
X572563Y-8323508D01*
X572563Y-8323508D02*
X582086Y-8333031D01*
X582086Y-8333031D02*
X591610Y-8323508D01*
X591610Y-8323508D02*
X582086Y-8313984D01*
X582086Y-8313984D02*
X582086Y-8333031D01*
X705896Y-8513984D02*
X686848Y-8504460D01*
X686848Y-8504460D02*
X677324Y-8485412D01*
X677324Y-8485412D02*
X677324Y-8313984D01*
X810658Y-8513984D02*
X791610Y-8504460D01*
X791610Y-8504460D02*
X782086Y-8485412D01*
X782086Y-8485412D02*
X782086Y-8313984D01*
X1039229Y-8513984D02*
X1039229Y-8313984D01*
X1039229Y-8313984D02*
X1105896Y-8456841D01*
X1105896Y-8456841D02*
X1172563Y-8313984D01*
X1172563Y-8313984D02*
X1172563Y-8513984D01*
X1353515Y-8513984D02*
X1353515Y-8409222D01*
X1353515Y-8409222D02*
X1343991Y-8390174D01*
X1343991Y-8390174D02*
X1324944Y-8380650D01*
X1324944Y-8380650D02*
X1286848Y-8380650D01*
X1286848Y-8380650D02*
X1267801Y-8390174D01*
X1353515Y-8504460D02*
X1334467Y-8513984D01*
X1334467Y-8513984D02*
X1286848Y-8513984D01*
X1286848Y-8513984D02*
X1267801Y-8504460D01*
X1267801Y-8504460D02*
X1258277Y-8485412D01*
X1258277Y-8485412D02*
X1258277Y-8466365D01*
X1258277Y-8466365D02*
X1267801Y-8447317D01*
X1267801Y-8447317D02*
X1286848Y-8437793D01*
X1286848Y-8437793D02*
X1334467Y-8437793D01*
X1334467Y-8437793D02*
X1353515Y-8428270D01*
X1448753Y-8380650D02*
X1448753Y-8580650D01*
X1448753Y-8390174D02*
X1467801Y-8380650D01*
X1467801Y-8380650D02*
X1505896Y-8380650D01*
X1505896Y-8380650D02*
X1524943Y-8390174D01*
X1524943Y-8390174D02*
X1534467Y-8399698D01*
X1534467Y-8399698D02*
X1543991Y-8418746D01*
X1543991Y-8418746D02*
X1543991Y-8475889D01*
X1543991Y-8475889D02*
X1534467Y-8494936D01*
X1534467Y-8494936D02*
X1524943Y-8504460D01*
X1524943Y-8504460D02*
X1505896Y-8513984D01*
X1505896Y-8513984D02*
X1467801Y-8513984D01*
X1467801Y-8513984D02*
X1448753Y-8504460D01*
X1629705Y-8494936D02*
X1639229Y-8504460D01*
X1639229Y-8504460D02*
X1629705Y-8513984D01*
X1629705Y-8513984D02*
X1620182Y-8504460D01*
X1620182Y-8504460D02*
X1629705Y-8494936D01*
X1629705Y-8494936D02*
X1629705Y-8513984D01*
X1629705Y-8390174D02*
X1639229Y-8399698D01*
X1639229Y-8399698D02*
X1629705Y-8409222D01*
X1629705Y-8409222D02*
X1620182Y-8399698D01*
X1620182Y-8399698D02*
X1629705Y-8390174D01*
X1629705Y-8390174D02*
X1629705Y-8409222D01*
D12*
X-32500Y-8827500D02*
X-2500Y-8857500D01*
X-2500Y-8827500D02*
X-32500Y-8857500D01*
D11*
X296372Y-8733984D02*
X315420Y-8733984D01*
X315420Y-8733984D02*
X334467Y-8743508D01*
X334467Y-8743508D02*
X343991Y-8753031D01*
X343991Y-8753031D02*
X353515Y-8772079D01*
X353515Y-8772079D02*
X363039Y-8810174D01*
X363039Y-8810174D02*
X363039Y-8857793D01*
X363039Y-8857793D02*
X353515Y-8895889D01*
X353515Y-8895889D02*
X343991Y-8914936D01*
X343991Y-8914936D02*
X334467Y-8924460D01*
X334467Y-8924460D02*
X315420Y-8933984D01*
X315420Y-8933984D02*
X296372Y-8933984D01*
X296372Y-8933984D02*
X277324Y-8924460D01*
X277324Y-8924460D02*
X267801Y-8914936D01*
X267801Y-8914936D02*
X258277Y-8895889D01*
X258277Y-8895889D02*
X248753Y-8857793D01*
X248753Y-8857793D02*
X248753Y-8810174D01*
X248753Y-8810174D02*
X258277Y-8772079D01*
X258277Y-8772079D02*
X267801Y-8753031D01*
X267801Y-8753031D02*
X277324Y-8743508D01*
X277324Y-8743508D02*
X296372Y-8733984D01*
X448753Y-8914936D02*
X458277Y-8924460D01*
X458277Y-8924460D02*
X448753Y-8933984D01*
X448753Y-8933984D02*
X439229Y-8924460D01*
X439229Y-8924460D02*
X448753Y-8914936D01*
X448753Y-8914936D02*
X448753Y-8933984D01*
X524944Y-8733984D02*
X648753Y-8733984D01*
X648753Y-8733984D02*
X582086Y-8810174D01*
X582086Y-8810174D02*
X610658Y-8810174D01*
X610658Y-8810174D02*
X629705Y-8819698D01*
X629705Y-8819698D02*
X639229Y-8829222D01*
X639229Y-8829222D02*
X648753Y-8848270D01*
X648753Y-8848270D02*
X648753Y-8895889D01*
X648753Y-8895889D02*
X639229Y-8914936D01*
X639229Y-8914936D02*
X629705Y-8924460D01*
X629705Y-8924460D02*
X610658Y-8933984D01*
X610658Y-8933984D02*
X553515Y-8933984D01*
X553515Y-8933984D02*
X534467Y-8924460D01*
X534467Y-8924460D02*
X524944Y-8914936D01*
X772562Y-8733984D02*
X791610Y-8733984D01*
X791610Y-8733984D02*
X810658Y-8743508D01*
X810658Y-8743508D02*
X820182Y-8753031D01*
X820182Y-8753031D02*
X829705Y-8772079D01*
X829705Y-8772079D02*
X839229Y-8810174D01*
X839229Y-8810174D02*
X839229Y-8857793D01*
X839229Y-8857793D02*
X829705Y-8895889D01*
X829705Y-8895889D02*
X820182Y-8914936D01*
X820182Y-8914936D02*
X810658Y-8924460D01*
X810658Y-8924460D02*
X791610Y-8933984D01*
X791610Y-8933984D02*
X772562Y-8933984D01*
X772562Y-8933984D02*
X753515Y-8924460D01*
X753515Y-8924460D02*
X743991Y-8914936D01*
X743991Y-8914936D02*
X734467Y-8895889D01*
X734467Y-8895889D02*
X724943Y-8857793D01*
X724943Y-8857793D02*
X724943Y-8810174D01*
X724943Y-8810174D02*
X734467Y-8772079D01*
X734467Y-8772079D02*
X743991Y-8753031D01*
X743991Y-8753031D02*
X753515Y-8743508D01*
X753515Y-8743508D02*
X772562Y-8733984D01*
X963039Y-8733984D02*
X982086Y-8733984D01*
X982086Y-8733984D02*
X1001134Y-8743508D01*
X1001134Y-8743508D02*
X1010658Y-8753031D01*
X1010658Y-8753031D02*
X1020182Y-8772079D01*
X1020182Y-8772079D02*
X1029705Y-8810174D01*
X1029705Y-8810174D02*
X1029705Y-8857793D01*
X1029705Y-8857793D02*
X1020182Y-8895889D01*
X1020182Y-8895889D02*
X1010658Y-8914936D01*
X1010658Y-8914936D02*
X1001134Y-8924460D01*
X1001134Y-8924460D02*
X982086Y-8933984D01*
X982086Y-8933984D02*
X963039Y-8933984D01*
X963039Y-8933984D02*
X943991Y-8924460D01*
X943991Y-8924460D02*
X934467Y-8914936D01*
X934467Y-8914936D02*
X924943Y-8895889D01*
X924943Y-8895889D02*
X915420Y-8857793D01*
X915420Y-8857793D02*
X915420Y-8810174D01*
X915420Y-8810174D02*
X924943Y-8772079D01*
X924943Y-8772079D02*
X934467Y-8753031D01*
X934467Y-8753031D02*
X943991Y-8743508D01*
X943991Y-8743508D02*
X963039Y-8733984D01*
X1115420Y-8933984D02*
X1115420Y-8800650D01*
X1115420Y-8819698D02*
X1124944Y-8810174D01*
X1124944Y-8810174D02*
X1143991Y-8800650D01*
X1143991Y-8800650D02*
X1172563Y-8800650D01*
X1172563Y-8800650D02*
X1191610Y-8810174D01*
X1191610Y-8810174D02*
X1201134Y-8829222D01*
X1201134Y-8829222D02*
X1201134Y-8933984D01*
X1201134Y-8829222D02*
X1210658Y-8810174D01*
X1210658Y-8810174D02*
X1229705Y-8800650D01*
X1229705Y-8800650D02*
X1258277Y-8800650D01*
X1258277Y-8800650D02*
X1277325Y-8810174D01*
X1277325Y-8810174D02*
X1286848Y-8829222D01*
X1286848Y-8829222D02*
X1286848Y-8933984D01*
X1382086Y-8933984D02*
X1382086Y-8800650D01*
X1382086Y-8819698D02*
X1391610Y-8810174D01*
X1391610Y-8810174D02*
X1410658Y-8800650D01*
X1410658Y-8800650D02*
X1439229Y-8800650D01*
X1439229Y-8800650D02*
X1458277Y-8810174D01*
X1458277Y-8810174D02*
X1467801Y-8829222D01*
X1467801Y-8829222D02*
X1467801Y-8933984D01*
X1467801Y-8829222D02*
X1477324Y-8810174D01*
X1477324Y-8810174D02*
X1496372Y-8800650D01*
X1496372Y-8800650D02*
X1524943Y-8800650D01*
X1524943Y-8800650D02*
X1543991Y-8810174D01*
X1543991Y-8810174D02*
X1553515Y-8829222D01*
X1553515Y-8829222D02*
X1553515Y-8933984D01*
X1943991Y-8724460D02*
X1772563Y-8981603D01*
X2201134Y-8733984D02*
X2220182Y-8733984D01*
X2220182Y-8733984D02*
X2239229Y-8743508D01*
X2239229Y-8743508D02*
X2248753Y-8753031D01*
X2248753Y-8753031D02*
X2258277Y-8772079D01*
X2258277Y-8772079D02*
X2267801Y-8810174D01*
X2267801Y-8810174D02*
X2267801Y-8857793D01*
X2267801Y-8857793D02*
X2258277Y-8895889D01*
X2258277Y-8895889D02*
X2248753Y-8914936D01*
X2248753Y-8914936D02*
X2239229Y-8924460D01*
X2239229Y-8924460D02*
X2220182Y-8933984D01*
X2220182Y-8933984D02*
X2201134Y-8933984D01*
X2201134Y-8933984D02*
X2182087Y-8924460D01*
X2182087Y-8924460D02*
X2172563Y-8914936D01*
X2172563Y-8914936D02*
X2163039Y-8895889D01*
X2163039Y-8895889D02*
X2153515Y-8857793D01*
X2153515Y-8857793D02*
X2153515Y-8810174D01*
X2153515Y-8810174D02*
X2163039Y-8772079D01*
X2163039Y-8772079D02*
X2172563Y-8753031D01*
X2172563Y-8753031D02*
X2182087Y-8743508D01*
X2182087Y-8743508D02*
X2201134Y-8733984D01*
X2353515Y-8914936D02*
X2363039Y-8924460D01*
X2363039Y-8924460D02*
X2353515Y-8933984D01*
X2353515Y-8933984D02*
X2343991Y-8924460D01*
X2343991Y-8924460D02*
X2353515Y-8914936D01*
X2353515Y-8914936D02*
X2353515Y-8933984D01*
X2486848Y-8733984D02*
X2505896Y-8733984D01*
X2505896Y-8733984D02*
X2524944Y-8743508D01*
X2524944Y-8743508D02*
X2534468Y-8753031D01*
X2534468Y-8753031D02*
X2543991Y-8772079D01*
X2543991Y-8772079D02*
X2553515Y-8810174D01*
X2553515Y-8810174D02*
X2553515Y-8857793D01*
X2553515Y-8857793D02*
X2543991Y-8895889D01*
X2543991Y-8895889D02*
X2534468Y-8914936D01*
X2534468Y-8914936D02*
X2524944Y-8924460D01*
X2524944Y-8924460D02*
X2505896Y-8933984D01*
X2505896Y-8933984D02*
X2486848Y-8933984D01*
X2486848Y-8933984D02*
X2467801Y-8924460D01*
X2467801Y-8924460D02*
X2458277Y-8914936D01*
X2458277Y-8914936D02*
X2448753Y-8895889D01*
X2448753Y-8895889D02*
X2439229Y-8857793D01*
X2439229Y-8857793D02*
X2439229Y-8810174D01*
X2439229Y-8810174D02*
X2448753Y-8772079D01*
X2448753Y-8772079D02*
X2458277Y-8753031D01*
X2458277Y-8753031D02*
X2467801Y-8743508D01*
X2467801Y-8743508D02*
X2486848Y-8733984D01*
X2743991Y-8933984D02*
X2629706Y-8933984D01*
X2686848Y-8933984D02*
X2686848Y-8733984D01*
X2686848Y-8733984D02*
X2667801Y-8762555D01*
X2667801Y-8762555D02*
X2648753Y-8781603D01*
X2648753Y-8781603D02*
X2629706Y-8791127D01*
X2934467Y-8933984D02*
X2820182Y-8933984D01*
X2877325Y-8933984D02*
X2877325Y-8733984D01*
X2877325Y-8733984D02*
X2858277Y-8762555D01*
X2858277Y-8762555D02*
X2839229Y-8781603D01*
X2839229Y-8781603D02*
X2820182Y-8791127D01*
X3048753Y-8819698D02*
X3029706Y-8810174D01*
X3029706Y-8810174D02*
X3020182Y-8800650D01*
X3020182Y-8800650D02*
X3010658Y-8781603D01*
X3010658Y-8781603D02*
X3010658Y-8772079D01*
X3010658Y-8772079D02*
X3020182Y-8753031D01*
X3020182Y-8753031D02*
X3029706Y-8743508D01*
X3029706Y-8743508D02*
X3048753Y-8733984D01*
X3048753Y-8733984D02*
X3086848Y-8733984D01*
X3086848Y-8733984D02*
X3105896Y-8743508D01*
X3105896Y-8743508D02*
X3115420Y-8753031D01*
X3115420Y-8753031D02*
X3124944Y-8772079D01*
X3124944Y-8772079D02*
X3124944Y-8781603D01*
X3124944Y-8781603D02*
X3115420Y-8800650D01*
X3115420Y-8800650D02*
X3105896Y-8810174D01*
X3105896Y-8810174D02*
X3086848Y-8819698D01*
X3086848Y-8819698D02*
X3048753Y-8819698D01*
X3048753Y-8819698D02*
X3029706Y-8829222D01*
X3029706Y-8829222D02*
X3020182Y-8838746D01*
X3020182Y-8838746D02*
X3010658Y-8857793D01*
X3010658Y-8857793D02*
X3010658Y-8895889D01*
X3010658Y-8895889D02*
X3020182Y-8914936D01*
X3020182Y-8914936D02*
X3029706Y-8924460D01*
X3029706Y-8924460D02*
X3048753Y-8933984D01*
X3048753Y-8933984D02*
X3086848Y-8933984D01*
X3086848Y-8933984D02*
X3105896Y-8924460D01*
X3105896Y-8924460D02*
X3115420Y-8914936D01*
X3115420Y-8914936D02*
X3124944Y-8895889D01*
X3124944Y-8895889D02*
X3124944Y-8857793D01*
X3124944Y-8857793D02*
X3115420Y-8838746D01*
X3115420Y-8838746D02*
X3105896Y-8829222D01*
X3105896Y-8829222D02*
X3086848Y-8819698D01*
X3201134Y-8733984D02*
X3201134Y-8772079D01*
X3277325Y-8733984D02*
X3277325Y-8772079D01*
X3572563Y-9010174D02*
X3563039Y-9000650D01*
X3563039Y-9000650D02*
X3543991Y-8972079D01*
X3543991Y-8972079D02*
X3534468Y-8953031D01*
X3534468Y-8953031D02*
X3524944Y-8924460D01*
X3524944Y-8924460D02*
X3515420Y-8876841D01*
X3515420Y-8876841D02*
X3515420Y-8838746D01*
X3515420Y-8838746D02*
X3524944Y-8791127D01*
X3524944Y-8791127D02*
X3534468Y-8762555D01*
X3534468Y-8762555D02*
X3543991Y-8743508D01*
X3543991Y-8743508D02*
X3563039Y-8714936D01*
X3563039Y-8714936D02*
X3572563Y-8705412D01*
X3734468Y-8733984D02*
X3696372Y-8733984D01*
X3696372Y-8733984D02*
X3677325Y-8743508D01*
X3677325Y-8743508D02*
X3667801Y-8753031D01*
X3667801Y-8753031D02*
X3648753Y-8781603D01*
X3648753Y-8781603D02*
X3639229Y-8819698D01*
X3639229Y-8819698D02*
X3639229Y-8895889D01*
X3639229Y-8895889D02*
X3648753Y-8914936D01*
X3648753Y-8914936D02*
X3658277Y-8924460D01*
X3658277Y-8924460D02*
X3677325Y-8933984D01*
X3677325Y-8933984D02*
X3715420Y-8933984D01*
X3715420Y-8933984D02*
X3734468Y-8924460D01*
X3734468Y-8924460D02*
X3743991Y-8914936D01*
X3743991Y-8914936D02*
X3753515Y-8895889D01*
X3753515Y-8895889D02*
X3753515Y-8848270D01*
X3753515Y-8848270D02*
X3743991Y-8829222D01*
X3743991Y-8829222D02*
X3734468Y-8819698D01*
X3734468Y-8819698D02*
X3715420Y-8810174D01*
X3715420Y-8810174D02*
X3677325Y-8810174D01*
X3677325Y-8810174D02*
X3658277Y-8819698D01*
X3658277Y-8819698D02*
X3648753Y-8829222D01*
X3648753Y-8829222D02*
X3639229Y-8848270D01*
X3820182Y-8733984D02*
X3953515Y-8733984D01*
X3953515Y-8733984D02*
X3867801Y-8933984D01*
X4182087Y-8933984D02*
X4182087Y-8733984D01*
X4267801Y-8933984D02*
X4267801Y-8829222D01*
X4267801Y-8829222D02*
X4258277Y-8810174D01*
X4258277Y-8810174D02*
X4239230Y-8800650D01*
X4239230Y-8800650D02*
X4210658Y-8800650D01*
X4210658Y-8800650D02*
X4191610Y-8810174D01*
X4191610Y-8810174D02*
X4182087Y-8819698D01*
X4391611Y-8933984D02*
X4372563Y-8924460D01*
X4372563Y-8924460D02*
X4363039Y-8914936D01*
X4363039Y-8914936D02*
X4353515Y-8895889D01*
X4353515Y-8895889D02*
X4353515Y-8838746D01*
X4353515Y-8838746D02*
X4363039Y-8819698D01*
X4363039Y-8819698D02*
X4372563Y-8810174D01*
X4372563Y-8810174D02*
X4391611Y-8800650D01*
X4391611Y-8800650D02*
X4420182Y-8800650D01*
X4420182Y-8800650D02*
X4439230Y-8810174D01*
X4439230Y-8810174D02*
X4448753Y-8819698D01*
X4448753Y-8819698D02*
X4458277Y-8838746D01*
X4458277Y-8838746D02*
X4458277Y-8895889D01*
X4458277Y-8895889D02*
X4448753Y-8914936D01*
X4448753Y-8914936D02*
X4439230Y-8924460D01*
X4439230Y-8924460D02*
X4420182Y-8933984D01*
X4420182Y-8933984D02*
X4391611Y-8933984D01*
X4572563Y-8933984D02*
X4553515Y-8924460D01*
X4553515Y-8924460D02*
X4543992Y-8905412D01*
X4543992Y-8905412D02*
X4543992Y-8733984D01*
X4724944Y-8924460D02*
X4705896Y-8933984D01*
X4705896Y-8933984D02*
X4667801Y-8933984D01*
X4667801Y-8933984D02*
X4648753Y-8924460D01*
X4648753Y-8924460D02*
X4639230Y-8905412D01*
X4639230Y-8905412D02*
X4639230Y-8829222D01*
X4639230Y-8829222D02*
X4648753Y-8810174D01*
X4648753Y-8810174D02*
X4667801Y-8800650D01*
X4667801Y-8800650D02*
X4705896Y-8800650D01*
X4705896Y-8800650D02*
X4724944Y-8810174D01*
X4724944Y-8810174D02*
X4734468Y-8829222D01*
X4734468Y-8829222D02*
X4734468Y-8848270D01*
X4734468Y-8848270D02*
X4639230Y-8867317D01*
X4810658Y-8924460D02*
X4829706Y-8933984D01*
X4829706Y-8933984D02*
X4867801Y-8933984D01*
X4867801Y-8933984D02*
X4886849Y-8924460D01*
X4886849Y-8924460D02*
X4896373Y-8905412D01*
X4896373Y-8905412D02*
X4896373Y-8895889D01*
X4896373Y-8895889D02*
X4886849Y-8876841D01*
X4886849Y-8876841D02*
X4867801Y-8867317D01*
X4867801Y-8867317D02*
X4839230Y-8867317D01*
X4839230Y-8867317D02*
X4820182Y-8857793D01*
X4820182Y-8857793D02*
X4810658Y-8838746D01*
X4810658Y-8838746D02*
X4810658Y-8829222D01*
X4810658Y-8829222D02*
X4820182Y-8810174D01*
X4820182Y-8810174D02*
X4839230Y-8800650D01*
X4839230Y-8800650D02*
X4867801Y-8800650D01*
X4867801Y-8800650D02*
X4886849Y-8810174D01*
X4963039Y-9010174D02*
X4972563Y-9000650D01*
X4972563Y-9000650D02*
X4991611Y-8972079D01*
X4991611Y-8972079D02*
X5001134Y-8953031D01*
X5001134Y-8953031D02*
X5010658Y-8924460D01*
X5010658Y-8924460D02*
X5020182Y-8876841D01*
X5020182Y-8876841D02*
X5020182Y-8838746D01*
X5020182Y-8838746D02*
X5010658Y-8791127D01*
X5010658Y-8791127D02*
X5001134Y-8762555D01*
X5001134Y-8762555D02*
X4991611Y-8743508D01*
X4991611Y-8743508D02*
X4972563Y-8714936D01*
X4972563Y-8714936D02*
X4963039Y-8705412D01*
D12*
X-2500Y-9106500D02*
G75*
G02*
X-97500Y-9106500I-47500J0D01*
G01*
X-97500Y-9106500D02*
G75*
G02*
X-2500Y-9106500I47500J0D01*
G01*
D11*
X296372Y-8997984D02*
X315420Y-8997984D01*
X315420Y-8997984D02*
X334467Y-9007508D01*
X334467Y-9007508D02*
X343991Y-9017031D01*
X343991Y-9017031D02*
X353515Y-9036079D01*
X353515Y-9036079D02*
X363039Y-9074174D01*
X363039Y-9074174D02*
X363039Y-9121793D01*
X363039Y-9121793D02*
X353515Y-9159889D01*
X353515Y-9159889D02*
X343991Y-9178936D01*
X343991Y-9178936D02*
X334467Y-9188460D01*
X334467Y-9188460D02*
X315420Y-9197984D01*
X315420Y-9197984D02*
X296372Y-9197984D01*
X296372Y-9197984D02*
X277324Y-9188460D01*
X277324Y-9188460D02*
X267801Y-9178936D01*
X267801Y-9178936D02*
X258277Y-9159889D01*
X258277Y-9159889D02*
X248753Y-9121793D01*
X248753Y-9121793D02*
X248753Y-9074174D01*
X248753Y-9074174D02*
X258277Y-9036079D01*
X258277Y-9036079D02*
X267801Y-9017031D01*
X267801Y-9017031D02*
X277324Y-9007508D01*
X277324Y-9007508D02*
X296372Y-8997984D01*
X448753Y-9178936D02*
X458277Y-9188460D01*
X458277Y-9188460D02*
X448753Y-9197984D01*
X448753Y-9197984D02*
X439229Y-9188460D01*
X439229Y-9188460D02*
X448753Y-9178936D01*
X448753Y-9178936D02*
X448753Y-9197984D01*
X553515Y-9197984D02*
X591610Y-9197984D01*
X591610Y-9197984D02*
X610658Y-9188460D01*
X610658Y-9188460D02*
X620182Y-9178936D01*
X620182Y-9178936D02*
X639229Y-9150365D01*
X639229Y-9150365D02*
X648753Y-9112270D01*
X648753Y-9112270D02*
X648753Y-9036079D01*
X648753Y-9036079D02*
X639229Y-9017031D01*
X639229Y-9017031D02*
X629705Y-9007508D01*
X629705Y-9007508D02*
X610658Y-8997984D01*
X610658Y-8997984D02*
X572563Y-8997984D01*
X572563Y-8997984D02*
X553515Y-9007508D01*
X553515Y-9007508D02*
X543991Y-9017031D01*
X543991Y-9017031D02*
X534467Y-9036079D01*
X534467Y-9036079D02*
X534467Y-9083698D01*
X534467Y-9083698D02*
X543991Y-9102746D01*
X543991Y-9102746D02*
X553515Y-9112270D01*
X553515Y-9112270D02*
X572563Y-9121793D01*
X572563Y-9121793D02*
X610658Y-9121793D01*
X610658Y-9121793D02*
X629705Y-9112270D01*
X629705Y-9112270D02*
X639229Y-9102746D01*
X639229Y-9102746D02*
X648753Y-9083698D01*
X829705Y-8997984D02*
X734467Y-8997984D01*
X734467Y-8997984D02*
X724943Y-9093222D01*
X724943Y-9093222D02*
X734467Y-9083698D01*
X734467Y-9083698D02*
X753515Y-9074174D01*
X753515Y-9074174D02*
X801134Y-9074174D01*
X801134Y-9074174D02*
X820182Y-9083698D01*
X820182Y-9083698D02*
X829705Y-9093222D01*
X829705Y-9093222D02*
X839229Y-9112270D01*
X839229Y-9112270D02*
X839229Y-9159889D01*
X839229Y-9159889D02*
X829705Y-9178936D01*
X829705Y-9178936D02*
X820182Y-9188460D01*
X820182Y-9188460D02*
X801134Y-9197984D01*
X801134Y-9197984D02*
X753515Y-9197984D01*
X753515Y-9197984D02*
X734467Y-9188460D01*
X734467Y-9188460D02*
X724943Y-9178936D01*
X963039Y-8997984D02*
X982086Y-8997984D01*
X982086Y-8997984D02*
X1001134Y-9007508D01*
X1001134Y-9007508D02*
X1010658Y-9017031D01*
X1010658Y-9017031D02*
X1020182Y-9036079D01*
X1020182Y-9036079D02*
X1029705Y-9074174D01*
X1029705Y-9074174D02*
X1029705Y-9121793D01*
X1029705Y-9121793D02*
X1020182Y-9159889D01*
X1020182Y-9159889D02*
X1010658Y-9178936D01*
X1010658Y-9178936D02*
X1001134Y-9188460D01*
X1001134Y-9188460D02*
X982086Y-9197984D01*
X982086Y-9197984D02*
X963039Y-9197984D01*
X963039Y-9197984D02*
X943991Y-9188460D01*
X943991Y-9188460D02*
X934467Y-9178936D01*
X934467Y-9178936D02*
X924943Y-9159889D01*
X924943Y-9159889D02*
X915420Y-9121793D01*
X915420Y-9121793D02*
X915420Y-9074174D01*
X915420Y-9074174D02*
X924943Y-9036079D01*
X924943Y-9036079D02*
X934467Y-9017031D01*
X934467Y-9017031D02*
X943991Y-9007508D01*
X943991Y-9007508D02*
X963039Y-8997984D01*
X1115420Y-9197984D02*
X1115420Y-9064650D01*
X1115420Y-9083698D02*
X1124944Y-9074174D01*
X1124944Y-9074174D02*
X1143991Y-9064650D01*
X1143991Y-9064650D02*
X1172563Y-9064650D01*
X1172563Y-9064650D02*
X1191610Y-9074174D01*
X1191610Y-9074174D02*
X1201134Y-9093222D01*
X1201134Y-9093222D02*
X1201134Y-9197984D01*
X1201134Y-9093222D02*
X1210658Y-9074174D01*
X1210658Y-9074174D02*
X1229705Y-9064650D01*
X1229705Y-9064650D02*
X1258277Y-9064650D01*
X1258277Y-9064650D02*
X1277325Y-9074174D01*
X1277325Y-9074174D02*
X1286848Y-9093222D01*
X1286848Y-9093222D02*
X1286848Y-9197984D01*
X1382086Y-9197984D02*
X1382086Y-9064650D01*
X1382086Y-9083698D02*
X1391610Y-9074174D01*
X1391610Y-9074174D02*
X1410658Y-9064650D01*
X1410658Y-9064650D02*
X1439229Y-9064650D01*
X1439229Y-9064650D02*
X1458277Y-9074174D01*
X1458277Y-9074174D02*
X1467801Y-9093222D01*
X1467801Y-9093222D02*
X1467801Y-9197984D01*
X1467801Y-9093222D02*
X1477324Y-9074174D01*
X1477324Y-9074174D02*
X1496372Y-9064650D01*
X1496372Y-9064650D02*
X1524943Y-9064650D01*
X1524943Y-9064650D02*
X1543991Y-9074174D01*
X1543991Y-9074174D02*
X1553515Y-9093222D01*
X1553515Y-9093222D02*
X1553515Y-9197984D01*
X1943991Y-8988460D02*
X1772563Y-9245603D01*
X2201134Y-8997984D02*
X2220182Y-8997984D01*
X2220182Y-8997984D02*
X2239229Y-9007508D01*
X2239229Y-9007508D02*
X2248753Y-9017031D01*
X2248753Y-9017031D02*
X2258277Y-9036079D01*
X2258277Y-9036079D02*
X2267801Y-9074174D01*
X2267801Y-9074174D02*
X2267801Y-9121793D01*
X2267801Y-9121793D02*
X2258277Y-9159889D01*
X2258277Y-9159889D02*
X2248753Y-9178936D01*
X2248753Y-9178936D02*
X2239229Y-9188460D01*
X2239229Y-9188460D02*
X2220182Y-9197984D01*
X2220182Y-9197984D02*
X2201134Y-9197984D01*
X2201134Y-9197984D02*
X2182087Y-9188460D01*
X2182087Y-9188460D02*
X2172563Y-9178936D01*
X2172563Y-9178936D02*
X2163039Y-9159889D01*
X2163039Y-9159889D02*
X2153515Y-9121793D01*
X2153515Y-9121793D02*
X2153515Y-9074174D01*
X2153515Y-9074174D02*
X2163039Y-9036079D01*
X2163039Y-9036079D02*
X2172563Y-9017031D01*
X2172563Y-9017031D02*
X2182087Y-9007508D01*
X2182087Y-9007508D02*
X2201134Y-8997984D01*
X2353515Y-9178936D02*
X2363039Y-9188460D01*
X2363039Y-9188460D02*
X2353515Y-9197984D01*
X2353515Y-9197984D02*
X2343991Y-9188460D01*
X2343991Y-9188460D02*
X2353515Y-9178936D01*
X2353515Y-9178936D02*
X2353515Y-9197984D01*
X2486848Y-8997984D02*
X2505896Y-8997984D01*
X2505896Y-8997984D02*
X2524944Y-9007508D01*
X2524944Y-9007508D02*
X2534468Y-9017031D01*
X2534468Y-9017031D02*
X2543991Y-9036079D01*
X2543991Y-9036079D02*
X2553515Y-9074174D01*
X2553515Y-9074174D02*
X2553515Y-9121793D01*
X2553515Y-9121793D02*
X2543991Y-9159889D01*
X2543991Y-9159889D02*
X2534468Y-9178936D01*
X2534468Y-9178936D02*
X2524944Y-9188460D01*
X2524944Y-9188460D02*
X2505896Y-9197984D01*
X2505896Y-9197984D02*
X2486848Y-9197984D01*
X2486848Y-9197984D02*
X2467801Y-9188460D01*
X2467801Y-9188460D02*
X2458277Y-9178936D01*
X2458277Y-9178936D02*
X2448753Y-9159889D01*
X2448753Y-9159889D02*
X2439229Y-9121793D01*
X2439229Y-9121793D02*
X2439229Y-9074174D01*
X2439229Y-9074174D02*
X2448753Y-9036079D01*
X2448753Y-9036079D02*
X2458277Y-9017031D01*
X2458277Y-9017031D02*
X2467801Y-9007508D01*
X2467801Y-9007508D02*
X2486848Y-8997984D01*
X2620182Y-8997984D02*
X2743991Y-8997984D01*
X2743991Y-8997984D02*
X2677325Y-9074174D01*
X2677325Y-9074174D02*
X2705896Y-9074174D01*
X2705896Y-9074174D02*
X2724944Y-9083698D01*
X2724944Y-9083698D02*
X2734468Y-9093222D01*
X2734468Y-9093222D02*
X2743991Y-9112270D01*
X2743991Y-9112270D02*
X2743991Y-9159889D01*
X2743991Y-9159889D02*
X2734468Y-9178936D01*
X2734468Y-9178936D02*
X2724944Y-9188460D01*
X2724944Y-9188460D02*
X2705896Y-9197984D01*
X2705896Y-9197984D02*
X2648753Y-9197984D01*
X2648753Y-9197984D02*
X2629706Y-9188460D01*
X2629706Y-9188460D02*
X2620182Y-9178936D01*
X2810658Y-8997984D02*
X2943991Y-8997984D01*
X2943991Y-8997984D02*
X2858277Y-9197984D01*
X3105896Y-9064650D02*
X3105896Y-9197984D01*
X3058277Y-8988460D02*
X3010658Y-9131317D01*
X3010658Y-9131317D02*
X3134467Y-9131317D01*
X3201134Y-8997984D02*
X3201134Y-9036079D01*
X3277325Y-8997984D02*
X3277325Y-9036079D01*
X3572563Y-9274174D02*
X3563039Y-9264650D01*
X3563039Y-9264650D02*
X3543991Y-9236079D01*
X3543991Y-9236079D02*
X3534468Y-9217031D01*
X3534468Y-9217031D02*
X3524944Y-9188460D01*
X3524944Y-9188460D02*
X3515420Y-9140841D01*
X3515420Y-9140841D02*
X3515420Y-9102746D01*
X3515420Y-9102746D02*
X3524944Y-9055127D01*
X3524944Y-9055127D02*
X3534468Y-9026555D01*
X3534468Y-9026555D02*
X3543991Y-9007508D01*
X3543991Y-9007508D02*
X3563039Y-8978936D01*
X3563039Y-8978936D02*
X3572563Y-8969412D01*
X3629706Y-8997984D02*
X3753515Y-8997984D01*
X3753515Y-8997984D02*
X3686848Y-9074174D01*
X3686848Y-9074174D02*
X3715420Y-9074174D01*
X3715420Y-9074174D02*
X3734468Y-9083698D01*
X3734468Y-9083698D02*
X3743991Y-9093222D01*
X3743991Y-9093222D02*
X3753515Y-9112270D01*
X3753515Y-9112270D02*
X3753515Y-9159889D01*
X3753515Y-9159889D02*
X3743991Y-9178936D01*
X3743991Y-9178936D02*
X3734468Y-9188460D01*
X3734468Y-9188460D02*
X3715420Y-9197984D01*
X3715420Y-9197984D02*
X3658277Y-9197984D01*
X3658277Y-9197984D02*
X3639229Y-9188460D01*
X3639229Y-9188460D02*
X3629706Y-9178936D01*
X3991610Y-9197984D02*
X3991610Y-8997984D01*
X4077325Y-9197984D02*
X4077325Y-9093222D01*
X4077325Y-9093222D02*
X4067801Y-9074174D01*
X4067801Y-9074174D02*
X4048753Y-9064650D01*
X4048753Y-9064650D02*
X4020182Y-9064650D01*
X4020182Y-9064650D02*
X4001134Y-9074174D01*
X4001134Y-9074174D02*
X3991610Y-9083698D01*
X4201134Y-9197984D02*
X4182087Y-9188460D01*
X4182087Y-9188460D02*
X4172563Y-9178936D01*
X4172563Y-9178936D02*
X4163039Y-9159889D01*
X4163039Y-9159889D02*
X4163039Y-9102746D01*
X4163039Y-9102746D02*
X4172563Y-9083698D01*
X4172563Y-9083698D02*
X4182087Y-9074174D01*
X4182087Y-9074174D02*
X4201134Y-9064650D01*
X4201134Y-9064650D02*
X4229706Y-9064650D01*
X4229706Y-9064650D02*
X4248753Y-9074174D01*
X4248753Y-9074174D02*
X4258277Y-9083698D01*
X4258277Y-9083698D02*
X4267801Y-9102746D01*
X4267801Y-9102746D02*
X4267801Y-9159889D01*
X4267801Y-9159889D02*
X4258277Y-9178936D01*
X4258277Y-9178936D02*
X4248753Y-9188460D01*
X4248753Y-9188460D02*
X4229706Y-9197984D01*
X4229706Y-9197984D02*
X4201134Y-9197984D01*
X4382087Y-9197984D02*
X4363039Y-9188460D01*
X4363039Y-9188460D02*
X4353515Y-9169412D01*
X4353515Y-9169412D02*
X4353515Y-8997984D01*
X4534468Y-9188460D02*
X4515420Y-9197984D01*
X4515420Y-9197984D02*
X4477325Y-9197984D01*
X4477325Y-9197984D02*
X4458277Y-9188460D01*
X4458277Y-9188460D02*
X4448753Y-9169412D01*
X4448753Y-9169412D02*
X4448753Y-9093222D01*
X4448753Y-9093222D02*
X4458277Y-9074174D01*
X4458277Y-9074174D02*
X4477325Y-9064650D01*
X4477325Y-9064650D02*
X4515420Y-9064650D01*
X4515420Y-9064650D02*
X4534468Y-9074174D01*
X4534468Y-9074174D02*
X4543992Y-9093222D01*
X4543992Y-9093222D02*
X4543992Y-9112270D01*
X4543992Y-9112270D02*
X4448753Y-9131317D01*
X4620182Y-9188460D02*
X4639230Y-9197984D01*
X4639230Y-9197984D02*
X4677325Y-9197984D01*
X4677325Y-9197984D02*
X4696373Y-9188460D01*
X4696373Y-9188460D02*
X4705896Y-9169412D01*
X4705896Y-9169412D02*
X4705896Y-9159889D01*
X4705896Y-9159889D02*
X4696373Y-9140841D01*
X4696373Y-9140841D02*
X4677325Y-9131317D01*
X4677325Y-9131317D02*
X4648753Y-9131317D01*
X4648753Y-9131317D02*
X4629706Y-9121793D01*
X4629706Y-9121793D02*
X4620182Y-9102746D01*
X4620182Y-9102746D02*
X4620182Y-9093222D01*
X4620182Y-9093222D02*
X4629706Y-9074174D01*
X4629706Y-9074174D02*
X4648753Y-9064650D01*
X4648753Y-9064650D02*
X4677325Y-9064650D01*
X4677325Y-9064650D02*
X4696373Y-9074174D01*
X4772563Y-9274174D02*
X4782087Y-9264650D01*
X4782087Y-9264650D02*
X4801134Y-9236079D01*
X4801134Y-9236079D02*
X4810658Y-9217031D01*
X4810658Y-9217031D02*
X4820182Y-9188460D01*
X4820182Y-9188460D02*
X4829706Y-9140841D01*
X4829706Y-9140841D02*
X4829706Y-9102746D01*
X4829706Y-9102746D02*
X4820182Y-9055127D01*
X4820182Y-9055127D02*
X4810658Y-9026555D01*
X4810658Y-9026555D02*
X4801134Y-9007508D01*
X4801134Y-9007508D02*
X4782087Y-8978936D01*
X4782087Y-8978936D02*
X4772563Y-8969412D01*
X-102500Y-9270500D02*
X-102500Y-9470500D01*
X-202500Y-9370500D02*
X-2500Y-9370500D01*
X343991Y-9328650D02*
X343991Y-9461984D01*
X296372Y-9252460D02*
X248753Y-9395317D01*
X248753Y-9395317D02*
X372562Y-9395317D01*
X448753Y-9442936D02*
X458277Y-9452460D01*
X458277Y-9452460D02*
X448753Y-9461984D01*
X448753Y-9461984D02*
X439229Y-9452460D01*
X439229Y-9452460D02*
X448753Y-9442936D01*
X448753Y-9442936D02*
X448753Y-9461984D01*
X524944Y-9261984D02*
X648753Y-9261984D01*
X648753Y-9261984D02*
X582086Y-9338174D01*
X582086Y-9338174D02*
X610658Y-9338174D01*
X610658Y-9338174D02*
X629705Y-9347698D01*
X629705Y-9347698D02*
X639229Y-9357222D01*
X639229Y-9357222D02*
X648753Y-9376270D01*
X648753Y-9376270D02*
X648753Y-9423889D01*
X648753Y-9423889D02*
X639229Y-9442936D01*
X639229Y-9442936D02*
X629705Y-9452460D01*
X629705Y-9452460D02*
X610658Y-9461984D01*
X610658Y-9461984D02*
X553515Y-9461984D01*
X553515Y-9461984D02*
X534467Y-9452460D01*
X534467Y-9452460D02*
X524944Y-9442936D01*
X772562Y-9261984D02*
X791610Y-9261984D01*
X791610Y-9261984D02*
X810658Y-9271508D01*
X810658Y-9271508D02*
X820182Y-9281031D01*
X820182Y-9281031D02*
X829705Y-9300079D01*
X829705Y-9300079D02*
X839229Y-9338174D01*
X839229Y-9338174D02*
X839229Y-9385793D01*
X839229Y-9385793D02*
X829705Y-9423889D01*
X829705Y-9423889D02*
X820182Y-9442936D01*
X820182Y-9442936D02*
X810658Y-9452460D01*
X810658Y-9452460D02*
X791610Y-9461984D01*
X791610Y-9461984D02*
X772562Y-9461984D01*
X772562Y-9461984D02*
X753515Y-9452460D01*
X753515Y-9452460D02*
X743991Y-9442936D01*
X743991Y-9442936D02*
X734467Y-9423889D01*
X734467Y-9423889D02*
X724943Y-9385793D01*
X724943Y-9385793D02*
X724943Y-9338174D01*
X724943Y-9338174D02*
X734467Y-9300079D01*
X734467Y-9300079D02*
X743991Y-9281031D01*
X743991Y-9281031D02*
X753515Y-9271508D01*
X753515Y-9271508D02*
X772562Y-9261984D01*
X963039Y-9261984D02*
X982086Y-9261984D01*
X982086Y-9261984D02*
X1001134Y-9271508D01*
X1001134Y-9271508D02*
X1010658Y-9281031D01*
X1010658Y-9281031D02*
X1020182Y-9300079D01*
X1020182Y-9300079D02*
X1029705Y-9338174D01*
X1029705Y-9338174D02*
X1029705Y-9385793D01*
X1029705Y-9385793D02*
X1020182Y-9423889D01*
X1020182Y-9423889D02*
X1010658Y-9442936D01*
X1010658Y-9442936D02*
X1001134Y-9452460D01*
X1001134Y-9452460D02*
X982086Y-9461984D01*
X982086Y-9461984D02*
X963039Y-9461984D01*
X963039Y-9461984D02*
X943991Y-9452460D01*
X943991Y-9452460D02*
X934467Y-9442936D01*
X934467Y-9442936D02*
X924943Y-9423889D01*
X924943Y-9423889D02*
X915420Y-9385793D01*
X915420Y-9385793D02*
X915420Y-9338174D01*
X915420Y-9338174D02*
X924943Y-9300079D01*
X924943Y-9300079D02*
X934467Y-9281031D01*
X934467Y-9281031D02*
X943991Y-9271508D01*
X943991Y-9271508D02*
X963039Y-9261984D01*
X1115420Y-9461984D02*
X1115420Y-9328650D01*
X1115420Y-9347698D02*
X1124944Y-9338174D01*
X1124944Y-9338174D02*
X1143991Y-9328650D01*
X1143991Y-9328650D02*
X1172563Y-9328650D01*
X1172563Y-9328650D02*
X1191610Y-9338174D01*
X1191610Y-9338174D02*
X1201134Y-9357222D01*
X1201134Y-9357222D02*
X1201134Y-9461984D01*
X1201134Y-9357222D02*
X1210658Y-9338174D01*
X1210658Y-9338174D02*
X1229705Y-9328650D01*
X1229705Y-9328650D02*
X1258277Y-9328650D01*
X1258277Y-9328650D02*
X1277325Y-9338174D01*
X1277325Y-9338174D02*
X1286848Y-9357222D01*
X1286848Y-9357222D02*
X1286848Y-9461984D01*
X1382086Y-9461984D02*
X1382086Y-9328650D01*
X1382086Y-9347698D02*
X1391610Y-9338174D01*
X1391610Y-9338174D02*
X1410658Y-9328650D01*
X1410658Y-9328650D02*
X1439229Y-9328650D01*
X1439229Y-9328650D02*
X1458277Y-9338174D01*
X1458277Y-9338174D02*
X1467801Y-9357222D01*
X1467801Y-9357222D02*
X1467801Y-9461984D01*
X1467801Y-9357222D02*
X1477324Y-9338174D01*
X1477324Y-9338174D02*
X1496372Y-9328650D01*
X1496372Y-9328650D02*
X1524943Y-9328650D01*
X1524943Y-9328650D02*
X1543991Y-9338174D01*
X1543991Y-9338174D02*
X1553515Y-9357222D01*
X1553515Y-9357222D02*
X1553515Y-9461984D01*
X1943991Y-9252460D02*
X1772563Y-9509603D01*
X2201134Y-9261984D02*
X2220182Y-9261984D01*
X2220182Y-9261984D02*
X2239229Y-9271508D01*
X2239229Y-9271508D02*
X2248753Y-9281031D01*
X2248753Y-9281031D02*
X2258277Y-9300079D01*
X2258277Y-9300079D02*
X2267801Y-9338174D01*
X2267801Y-9338174D02*
X2267801Y-9385793D01*
X2267801Y-9385793D02*
X2258277Y-9423889D01*
X2258277Y-9423889D02*
X2248753Y-9442936D01*
X2248753Y-9442936D02*
X2239229Y-9452460D01*
X2239229Y-9452460D02*
X2220182Y-9461984D01*
X2220182Y-9461984D02*
X2201134Y-9461984D01*
X2201134Y-9461984D02*
X2182087Y-9452460D01*
X2182087Y-9452460D02*
X2172563Y-9442936D01*
X2172563Y-9442936D02*
X2163039Y-9423889D01*
X2163039Y-9423889D02*
X2153515Y-9385793D01*
X2153515Y-9385793D02*
X2153515Y-9338174D01*
X2153515Y-9338174D02*
X2163039Y-9300079D01*
X2163039Y-9300079D02*
X2172563Y-9281031D01*
X2172563Y-9281031D02*
X2182087Y-9271508D01*
X2182087Y-9271508D02*
X2201134Y-9261984D01*
X2353515Y-9442936D02*
X2363039Y-9452460D01*
X2363039Y-9452460D02*
X2353515Y-9461984D01*
X2353515Y-9461984D02*
X2343991Y-9452460D01*
X2343991Y-9452460D02*
X2353515Y-9442936D01*
X2353515Y-9442936D02*
X2353515Y-9461984D01*
X2553515Y-9461984D02*
X2439229Y-9461984D01*
X2496372Y-9461984D02*
X2496372Y-9261984D01*
X2496372Y-9261984D02*
X2477325Y-9290555D01*
X2477325Y-9290555D02*
X2458277Y-9309603D01*
X2458277Y-9309603D02*
X2439229Y-9319127D01*
X2724944Y-9261984D02*
X2686848Y-9261984D01*
X2686848Y-9261984D02*
X2667801Y-9271508D01*
X2667801Y-9271508D02*
X2658277Y-9281031D01*
X2658277Y-9281031D02*
X2639229Y-9309603D01*
X2639229Y-9309603D02*
X2629706Y-9347698D01*
X2629706Y-9347698D02*
X2629706Y-9423889D01*
X2629706Y-9423889D02*
X2639229Y-9442936D01*
X2639229Y-9442936D02*
X2648753Y-9452460D01*
X2648753Y-9452460D02*
X2667801Y-9461984D01*
X2667801Y-9461984D02*
X2705896Y-9461984D01*
X2705896Y-9461984D02*
X2724944Y-9452460D01*
X2724944Y-9452460D02*
X2734468Y-9442936D01*
X2734468Y-9442936D02*
X2743991Y-9423889D01*
X2743991Y-9423889D02*
X2743991Y-9376270D01*
X2743991Y-9376270D02*
X2734468Y-9357222D01*
X2734468Y-9357222D02*
X2724944Y-9347698D01*
X2724944Y-9347698D02*
X2705896Y-9338174D01*
X2705896Y-9338174D02*
X2667801Y-9338174D01*
X2667801Y-9338174D02*
X2648753Y-9347698D01*
X2648753Y-9347698D02*
X2639229Y-9357222D01*
X2639229Y-9357222D02*
X2629706Y-9376270D01*
X2839229Y-9461984D02*
X2877325Y-9461984D01*
X2877325Y-9461984D02*
X2896372Y-9452460D01*
X2896372Y-9452460D02*
X2905896Y-9442936D01*
X2905896Y-9442936D02*
X2924944Y-9414365D01*
X2924944Y-9414365D02*
X2934467Y-9376270D01*
X2934467Y-9376270D02*
X2934467Y-9300079D01*
X2934467Y-9300079D02*
X2924944Y-9281031D01*
X2924944Y-9281031D02*
X2915420Y-9271508D01*
X2915420Y-9271508D02*
X2896372Y-9261984D01*
X2896372Y-9261984D02*
X2858277Y-9261984D01*
X2858277Y-9261984D02*
X2839229Y-9271508D01*
X2839229Y-9271508D02*
X2829706Y-9281031D01*
X2829706Y-9281031D02*
X2820182Y-9300079D01*
X2820182Y-9300079D02*
X2820182Y-9347698D01*
X2820182Y-9347698D02*
X2829706Y-9366746D01*
X2829706Y-9366746D02*
X2839229Y-9376270D01*
X2839229Y-9376270D02*
X2858277Y-9385793D01*
X2858277Y-9385793D02*
X2896372Y-9385793D01*
X2896372Y-9385793D02*
X2915420Y-9376270D01*
X2915420Y-9376270D02*
X2924944Y-9366746D01*
X2924944Y-9366746D02*
X2934467Y-9347698D01*
X3001134Y-9261984D02*
X3124944Y-9261984D01*
X3124944Y-9261984D02*
X3058277Y-9338174D01*
X3058277Y-9338174D02*
X3086848Y-9338174D01*
X3086848Y-9338174D02*
X3105896Y-9347698D01*
X3105896Y-9347698D02*
X3115420Y-9357222D01*
X3115420Y-9357222D02*
X3124944Y-9376270D01*
X3124944Y-9376270D02*
X3124944Y-9423889D01*
X3124944Y-9423889D02*
X3115420Y-9442936D01*
X3115420Y-9442936D02*
X3105896Y-9452460D01*
X3105896Y-9452460D02*
X3086848Y-9461984D01*
X3086848Y-9461984D02*
X3029706Y-9461984D01*
X3029706Y-9461984D02*
X3010658Y-9452460D01*
X3010658Y-9452460D02*
X3001134Y-9442936D01*
X3201134Y-9261984D02*
X3201134Y-9300079D01*
X3277325Y-9261984D02*
X3277325Y-9300079D01*
X3572563Y-9538174D02*
X3563039Y-9528650D01*
X3563039Y-9528650D02*
X3543991Y-9500079D01*
X3543991Y-9500079D02*
X3534468Y-9481031D01*
X3534468Y-9481031D02*
X3524944Y-9452460D01*
X3524944Y-9452460D02*
X3515420Y-9404841D01*
X3515420Y-9404841D02*
X3515420Y-9366746D01*
X3515420Y-9366746D02*
X3524944Y-9319127D01*
X3524944Y-9319127D02*
X3534468Y-9290555D01*
X3534468Y-9290555D02*
X3543991Y-9271508D01*
X3543991Y-9271508D02*
X3563039Y-9242936D01*
X3563039Y-9242936D02*
X3572563Y-9233412D01*
X3734468Y-9328650D02*
X3734468Y-9461984D01*
X3686848Y-9252460D02*
X3639229Y-9395317D01*
X3639229Y-9395317D02*
X3763039Y-9395317D01*
X3991610Y-9461984D02*
X3991610Y-9261984D01*
X4077325Y-9461984D02*
X4077325Y-9357222D01*
X4077325Y-9357222D02*
X4067801Y-9338174D01*
X4067801Y-9338174D02*
X4048753Y-9328650D01*
X4048753Y-9328650D02*
X4020182Y-9328650D01*
X4020182Y-9328650D02*
X4001134Y-9338174D01*
X4001134Y-9338174D02*
X3991610Y-9347698D01*
X4201134Y-9461984D02*
X4182087Y-9452460D01*
X4182087Y-9452460D02*
X4172563Y-9442936D01*
X4172563Y-9442936D02*
X4163039Y-9423889D01*
X4163039Y-9423889D02*
X4163039Y-9366746D01*
X4163039Y-9366746D02*
X4172563Y-9347698D01*
X4172563Y-9347698D02*
X4182087Y-9338174D01*
X4182087Y-9338174D02*
X4201134Y-9328650D01*
X4201134Y-9328650D02*
X4229706Y-9328650D01*
X4229706Y-9328650D02*
X4248753Y-9338174D01*
X4248753Y-9338174D02*
X4258277Y-9347698D01*
X4258277Y-9347698D02*
X4267801Y-9366746D01*
X4267801Y-9366746D02*
X4267801Y-9423889D01*
X4267801Y-9423889D02*
X4258277Y-9442936D01*
X4258277Y-9442936D02*
X4248753Y-9452460D01*
X4248753Y-9452460D02*
X4229706Y-9461984D01*
X4229706Y-9461984D02*
X4201134Y-9461984D01*
X4382087Y-9461984D02*
X4363039Y-9452460D01*
X4363039Y-9452460D02*
X4353515Y-9433412D01*
X4353515Y-9433412D02*
X4353515Y-9261984D01*
X4534468Y-9452460D02*
X4515420Y-9461984D01*
X4515420Y-9461984D02*
X4477325Y-9461984D01*
X4477325Y-9461984D02*
X4458277Y-9452460D01*
X4458277Y-9452460D02*
X4448753Y-9433412D01*
X4448753Y-9433412D02*
X4448753Y-9357222D01*
X4448753Y-9357222D02*
X4458277Y-9338174D01*
X4458277Y-9338174D02*
X4477325Y-9328650D01*
X4477325Y-9328650D02*
X4515420Y-9328650D01*
X4515420Y-9328650D02*
X4534468Y-9338174D01*
X4534468Y-9338174D02*
X4543992Y-9357222D01*
X4543992Y-9357222D02*
X4543992Y-9376270D01*
X4543992Y-9376270D02*
X4448753Y-9395317D01*
X4620182Y-9452460D02*
X4639230Y-9461984D01*
X4639230Y-9461984D02*
X4677325Y-9461984D01*
X4677325Y-9461984D02*
X4696373Y-9452460D01*
X4696373Y-9452460D02*
X4705896Y-9433412D01*
X4705896Y-9433412D02*
X4705896Y-9423889D01*
X4705896Y-9423889D02*
X4696373Y-9404841D01*
X4696373Y-9404841D02*
X4677325Y-9395317D01*
X4677325Y-9395317D02*
X4648753Y-9395317D01*
X4648753Y-9395317D02*
X4629706Y-9385793D01*
X4629706Y-9385793D02*
X4620182Y-9366746D01*
X4620182Y-9366746D02*
X4620182Y-9357222D01*
X4620182Y-9357222D02*
X4629706Y-9338174D01*
X4629706Y-9338174D02*
X4648753Y-9328650D01*
X4648753Y-9328650D02*
X4677325Y-9328650D01*
X4677325Y-9328650D02*
X4696373Y-9338174D01*
X4772563Y-9538174D02*
X4782087Y-9528650D01*
X4782087Y-9528650D02*
X4801134Y-9500079D01*
X4801134Y-9500079D02*
X4810658Y-9481031D01*
X4810658Y-9481031D02*
X4820182Y-9452460D01*
X4820182Y-9452460D02*
X4829706Y-9404841D01*
X4829706Y-9404841D02*
X4829706Y-9366746D01*
X4829706Y-9366746D02*
X4820182Y-9319127D01*
X4820182Y-9319127D02*
X4810658Y-9290555D01*
X4810658Y-9290555D02*
X4801134Y-9271508D01*
X4801134Y-9271508D02*
X4782087Y-9242936D01*
X4782087Y-9242936D02*
X4772563Y-9233412D01*
M02*
