ISO-10303-21;
HEADER;
/* Generated by software containing ST-Developer
 * from STEP Tools, Inc. (www.steptools.com) 
 */

FILE_DESCRIPTION(
/* description */ (''),
/* implementation_level */ '2;1');

FILE_NAME(
/* name */ 'usb-c-vertical.step',
/* time_stamp */ '2026-08-18T17:07:25-07:00',
/* author */ (''),
/* organization */ (''),
/* preprocessor_version */ 'ST-DEVELOPER v20.1',
/* originating_system */ 'Autodesk Translation Framework v15.8.0.0',
/* authorisation */ '');

FILE_SCHEMA (('AUTOMOTIVE_DESIGN { 1 0 10303 214 3 1 1 }'));
ENDSEC;

DATA;
#10=MECHANICAL_DESIGN_GEOMETRIC_PRESENTATION_REPRESENTATION('',(#13),#1301);
#11=SHAPE_REPRESENTATION_RELATIONSHIP('SRR','None',#1308,#12);
#12=ADVANCED_BREP_SHAPE_REPRESENTATION('',(#14),#1300);
#13=STYLED_ITEM('',(#1317),#14);
#14=MANIFOLD_SOLID_BREP('Body1',#733);
#15=FACE_BOUND('',#109,.T.);
#16=PLANE('',#750);
#17=PLANE('',#754);
#18=PLANE('',#755);
#19=PLANE('',#761);
#20=PLANE('',#764);
#21=PLANE('',#768);
#22=PLANE('',#776);
#23=PLANE('',#777);
#24=PLANE('',#783);
#25=PLANE('',#786);
#26=PLANE('',#787);
#27=PLANE('',#792);
#28=PLANE('',#801);
#29=PLANE('',#810);
#30=PLANE('',#811);
#31=PLANE('',#812);
#32=PLANE('',#815);
#33=PLANE('',#816);
#34=PLANE('',#819);
#35=FACE_OUTER_BOUND('',#72,.T.);
#36=FACE_OUTER_BOUND('',#73,.T.);
#37=FACE_OUTER_BOUND('',#74,.T.);
#38=FACE_OUTER_BOUND('',#75,.T.);
#39=FACE_OUTER_BOUND('',#76,.T.);
#40=FACE_OUTER_BOUND('',#77,.T.);
#41=FACE_OUTER_BOUND('',#78,.T.);
#42=FACE_OUTER_BOUND('',#79,.T.);
#43=FACE_OUTER_BOUND('',#80,.T.);
#44=FACE_OUTER_BOUND('',#81,.T.);
#45=FACE_OUTER_BOUND('',#82,.T.);
#46=FACE_OUTER_BOUND('',#83,.T.);
#47=FACE_OUTER_BOUND('',#84,.T.);
#48=FACE_OUTER_BOUND('',#85,.T.);
#49=FACE_OUTER_BOUND('',#86,.T.);
#50=FACE_OUTER_BOUND('',#87,.T.);
#51=FACE_OUTER_BOUND('',#88,.T.);
#52=FACE_OUTER_BOUND('',#89,.T.);
#53=FACE_OUTER_BOUND('',#90,.T.);
#54=FACE_OUTER_BOUND('',#91,.T.);
#55=FACE_OUTER_BOUND('',#92,.T.);
#56=FACE_OUTER_BOUND('',#93,.T.);
#57=FACE_OUTER_BOUND('',#94,.T.);
#58=FACE_OUTER_BOUND('',#95,.T.);
#59=FACE_OUTER_BOUND('',#96,.T.);
#60=FACE_OUTER_BOUND('',#97,.T.);
#61=FACE_OUTER_BOUND('',#98,.T.);
#62=FACE_OUTER_BOUND('',#99,.T.);
#63=FACE_OUTER_BOUND('',#100,.T.);
#64=FACE_OUTER_BOUND('',#101,.T.);
#65=FACE_OUTER_BOUND('',#102,.T.);
#66=FACE_OUTER_BOUND('',#103,.T.);
#67=FACE_OUTER_BOUND('',#104,.T.);
#68=FACE_OUTER_BOUND('',#105,.T.);
#69=FACE_OUTER_BOUND('',#106,.T.);
#70=FACE_OUTER_BOUND('',#107,.T.);
#71=FACE_OUTER_BOUND('',#108,.T.);
#72=EDGE_LOOP('',(#462,#463,#464,#465,#466,#467));
#73=EDGE_LOOP('',(#468,#469,#470,#471));
#74=EDGE_LOOP('',(#472,#473,#474,#475));
#75=EDGE_LOOP('',(#476,#477,#478,#479));
#76=EDGE_LOOP('',(#480,#481,#482,#483,#484,#485,#486,#487,#488,#489,#490,
#491));
#77=EDGE_LOOP('',(#492,#493,#494,#495));
#78=EDGE_LOOP('',(#496,#497,#498,#499));
#79=EDGE_LOOP('',(#500,#501,#502,#503));
#80=EDGE_LOOP('',(#504,#505,#506,#507));
#81=EDGE_LOOP('',(#508,#509,#510,#511,#512,#513));
#82=EDGE_LOOP('',(#514,#515,#516,#517,#518,#519,#520,#521));
#83=EDGE_LOOP('',(#522,#523,#524,#525));
#84=EDGE_LOOP('',(#526,#527,#528,#529));
#85=EDGE_LOOP('',(#530,#531,#532,#533,#534,#535,#536,#537,#538,#539,#540,
#541));
#86=EDGE_LOOP('',(#542,#543,#544,#545));
#87=EDGE_LOOP('',(#546,#547,#548,#549));
#88=EDGE_LOOP('',(#550,#551,#552,#553));
#89=EDGE_LOOP('',(#554,#555,#556,#557));
#90=EDGE_LOOP('',(#558,#559,#560,#561));
#91=EDGE_LOOP('',(#562,#563,#564,#565,#566,#567));
#92=EDGE_LOOP('',(#568,#569,#570,#571,#572,#573));
#93=EDGE_LOOP('',(#574,#575,#576,#577,#578,#579,#580,#581));
#94=EDGE_LOOP('',(#582,#583,#584,#585,#586));
#95=EDGE_LOOP('',(#587,#588,#589,#590,#591));
#96=EDGE_LOOP('',(#592,#593,#594,#595));
#97=EDGE_LOOP('',(#596,#597,#598,#599,#600));
#98=EDGE_LOOP('',(#601,#602,#603,#604,#605));
#99=EDGE_LOOP('',(#606,#607,#608,#609,#610));
#100=EDGE_LOOP('',(#611,#612,#613,#614,#615));
#101=EDGE_LOOP('',(#616,#617,#618,#619,#620,#621,#622,#623,#624,#625,#626,
#627));
#102=EDGE_LOOP('',(#628,#629,#630,#631));
#103=EDGE_LOOP('',(#632,#633,#634,#635,#636,#637,#638,#639,#640,#641,#642,
#643));
#104=EDGE_LOOP('',(#644,#645,#646,#647,#648));
#105=EDGE_LOOP('',(#649,#650,#651,#652));
#106=EDGE_LOOP('',(#653,#654,#655,#656));
#107=EDGE_LOOP('',(#657,#658,#659,#660,#661));
#108=EDGE_LOOP('',(#662,#663,#664,#665,#666,#667,#668,#669));
#109=EDGE_LOOP('',(#670,#671,#672,#673,#674,#675,#676,#677));
#110=CIRCLE('',#748,0.15);
#111=CIRCLE('',#749,0.15);
#112=CIRCLE('',#752,0.15);
#113=CIRCLE('',#753,0.15);
#114=CIRCLE('',#756,0.175);
#115=CIRCLE('',#757,0.15);
#116=CIRCLE('',#758,0.15);
#117=CIRCLE('',#760,0.15);
#118=CIRCLE('',#763,0.15);
#119=CIRCLE('',#766,0.15);
#120=CIRCLE('',#767,0.15);
#121=CIRCLE('',#769,1.3);
#122=CIRCLE('',#770,1.3);
#123=CIRCLE('',#771,1.);
#124=CIRCLE('',#772,1.);
#125=CIRCLE('',#774,0.15);
#126=CIRCLE('',#775,0.15);
#127=CIRCLE('',#778,0.175);
#128=CIRCLE('',#779,0.15);
#129=CIRCLE('',#780,0.15);
#130=CIRCLE('',#782,0.15);
#131=CIRCLE('',#785,0.15);
#132=CIRCLE('',#789,0.175);
#133=CIRCLE('',#791,0.175);
#134=CIRCLE('',#793,1.);
#135=CIRCLE('',#794,1.);
#136=CIRCLE('',#795,1.3);
#137=CIRCLE('',#796,1.3);
#138=CIRCLE('',#798,1.);
#139=CIRCLE('',#800,1.3);
#140=CIRCLE('',#803,1.3);
#141=CIRCLE('',#805,1.);
#142=CIRCLE('',#807,1.3);
#143=CIRCLE('',#809,1.);
#144=CIRCLE('',#814,1.3);
#145=CIRCLE('',#818,1.);
#146=LINE('',#1043,#210);
#147=LINE('',#1054,#211);
#148=LINE('',#1058,#212);
#149=LINE('',#1060,#213);
#150=LINE('',#1061,#214);
#151=LINE('',#1066,#215);
#152=LINE('',#1070,#216);
#153=LINE('',#1072,#217);
#154=LINE('',#1073,#218);
#155=LINE('',#1076,#219);
#156=LINE('',#1078,#220);
#157=LINE('',#1080,#221);
#158=LINE('',#1084,#222);
#159=LINE('',#1088,#223);
#160=LINE('',#1092,#224);
#161=LINE('',#1096,#225);
#162=LINE('',#1097,#226);
#163=LINE('',#1100,#227);
#164=LINE('',#1104,#228);
#165=LINE('',#1105,#229);
#166=LINE('',#1111,#230);
#167=LINE('',#1122,#231);
#168=LINE('',#1133,#232);
#169=LINE('',#1138,#233);
#170=LINE('',#1145,#234);
#171=LINE('',#1148,#235);
#172=LINE('',#1151,#236);
#173=LINE('',#1153,#237);
#174=LINE('',#1154,#238);
#175=LINE('',#1156,#239);
#176=LINE('',#1158,#240);
#177=LINE('',#1160,#241);
#178=LINE('',#1162,#242);
#179=LINE('',#1166,#243);
#180=LINE('',#1170,#244);
#181=LINE('',#1175,#245);
#182=LINE('',#1178,#246);
#183=LINE('',#1179,#247);
#184=LINE('',#1183,#248);
#185=LINE('',#1186,#249);
#186=LINE('',#1187,#250);
#187=LINE('',#1189,#251);
#188=LINE('',#1211,#252);
#189=LINE('',#1223,#253);
#190=LINE('',#1238,#254);
#191=LINE('',#1243,#255);
#192=LINE('',#1248,#256);
#193=LINE('',#1251,#257);
#194=LINE('',#1254,#258);
#195=LINE('',#1257,#259);
#196=LINE('',#1258,#260);
#197=LINE('',#1263,#261);
#198=LINE('',#1266,#262);
#199=LINE('',#1269,#263);
#200=LINE('',#1273,#264);
#201=LINE('',#1276,#265);
#202=LINE('',#1278,#266);
#203=LINE('',#1280,#267);
#204=LINE('',#1283,#268);
#205=LINE('',#1284,#269);
#206=LINE('',#1288,#270);
#207=LINE('',#1290,#271);
#208=LINE('',#1293,#272);
#209=LINE('',#1294,#273);
#210=VECTOR('',#824,10.);
#211=VECTOR('',#827,10.);
#212=VECTOR('',#832,10.);
#213=VECTOR('',#833,10.);
#214=VECTOR('',#834,10.);
#215=VECTOR('',#839,10.);
#216=VECTOR('',#844,10.);
#217=VECTOR('',#845,10.);
#218=VECTOR('',#846,10.);
#219=VECTOR('',#849,10.);
#220=VECTOR('',#850,10.);
#221=VECTOR('',#851,10.);
#222=VECTOR('',#854,10.);
#223=VECTOR('',#857,10.);
#224=VECTOR('',#862,10.);
#225=VECTOR('',#867,10.);
#226=VECTOR('',#868,10.);
#227=VECTOR('',#871,10.);
#228=VECTOR('',#876,10.);
#229=VECTOR('',#877,10.);
#230=VECTOR('',#882,10.);
#231=VECTOR('',#885,10.);
#232=VECTOR('',#890,10.);
#233=VECTOR('',#895,10.);
#234=VECTOR('',#902,10.);
#235=VECTOR('',#905,10.);
#236=VECTOR('',#908,10.);
#237=VECTOR('',#909,10.);
#238=VECTOR('',#910,10.);
#239=VECTOR('',#913,10.);
#240=VECTOR('',#914,10.);
#241=VECTOR('',#915,10.);
#242=VECTOR('',#916,10.);
#243=VECTOR('',#919,10.);
#244=VECTOR('',#922,10.);
#245=VECTOR('',#929,10.);
#246=VECTOR('',#932,10.);
#247=VECTOR('',#933,10.);
#248=VECTOR('',#938,10.);
#249=VECTOR('',#941,10.);
#250=VECTOR('',#942,10.);
#251=VECTOR('',#945,10.);
#252=VECTOR('',#950,10.);
#253=VECTOR('',#953,10.);
#254=VECTOR('',#960,10.);
#255=VECTOR('',#965,10.);
#256=VECTOR('',#972,10.);
#257=VECTOR('',#975,10.);
#258=VECTOR('',#978,10.);
#259=VECTOR('',#981,10.);
#260=VECTOR('',#982,10.);
#261=VECTOR('',#989,10.);
#262=VECTOR('',#992,10.);
#263=VECTOR('',#995,10.);
#264=VECTOR('',#1000,10.);
#265=VECTOR('',#1003,10.);
#266=VECTOR('',#1006,10.);
#267=VECTOR('',#1009,10.);
#268=VECTOR('',#1012,10.);
#269=VECTOR('',#1013,10.);
#270=VECTOR('',#1018,10.);
#271=VECTOR('',#1021,10.);
#272=VECTOR('',#1024,10.);
#273=VECTOR('',#1025,10.);
#274=B_SPLINE_CURVE_WITH_KNOTS('',3,(#1036,#1037,#1038,#1039,#1040,#1041),
 .UNSPECIFIED.,.F.,.F.,(4,2,4),(0.0156420903176416,0.0169584661324077,0.0226091347145922),
 .UNSPECIFIED.);
#275=B_SPLINE_CURVE_WITH_KNOTS('',3,(#1045,#1046,#1047,#1048,#1049,#1050),
 .UNSPECIFIED.,.F.,.F.,(4,2,4),(0.0680519792113073,0.0737029020080999,0.0750222474704352),
 .UNSPECIFIED.);
#276=B_SPLINE_CURVE_WITH_KNOTS('',3,(#1115,#1116,#1117,#1118,#1119,#1120),
 .UNSPECIFIED.,.F.,.F.,(4,2,4),(0.0609776549657403,0.0622970004280756,0.0679479232248682),
 .UNSPECIFIED.);
#277=B_SPLINE_CURVE_WITH_KNOTS('',3,(#1123,#1124,#1125,#1126,#1127,#1128),
 .UNSPECIFIED.,.F.,.F.,(4,2,4),(0.0226700227483263,0.0283206913305109,0.0296370671393387),
 .UNSPECIFIED.);
#278=B_SPLINE_CURVE_WITH_KNOTS('',3,(#1193,#1194,#1195,#1196,#1197,#1198,
#1199,#1200),.UNSPECIFIED.,.F.,.F.,(4,2,2,4),(0.0660788555544021,0.0662571221830209,
0.0728673162284012,0.0794775102737814),.UNSPECIFIED.);
#279=B_SPLINE_CURVE_WITH_KNOTS('',3,(#1203,#1204,#1205,#1206,#1207,#1208,
#1209,#1210),.UNSPECIFIED.,.F.,.F.,(4,2,2,4),(0.0265406728942513,0.0331402150730454,
0.0397397572518396,0.0399243644892695),.UNSPECIFIED.);
#280=B_SPLINE_CURVE_WITH_KNOTS('',3,(#1214,#1215,#1216,#1217,#1218,#1219,
#1220,#1221),.UNSPECIFIED.,.F.,.F.,(4,2,2,4),(0.0797371017579615,0.0863472958033417,
0.092957489848722,0.0931357564773408),.UNSPECIFIED.);
#281=B_SPLINE_CURVE_WITH_KNOTS('',3,(#1225,#1226,#1227,#1228,#1229,#1230,
#1231,#1232),.UNSPECIFIED.,.F.,.F.,(4,2,2,4),(0.0130067361688889,0.0131913434063189,
0.0197908855851131,0.0263904277639073),.UNSPECIFIED.);
#282=VERTEX_POINT('',#1034);
#283=VERTEX_POINT('',#1035);
#284=VERTEX_POINT('',#1042);
#285=VERTEX_POINT('',#1044);
#286=VERTEX_POINT('',#1051);
#287=VERTEX_POINT('',#1053);
#288=VERTEX_POINT('',#1057);
#289=VERTEX_POINT('',#1059);
#290=VERTEX_POINT('',#1063);
#291=VERTEX_POINT('',#1065);
#292=VERTEX_POINT('',#1069);
#293=VERTEX_POINT('',#1071);
#294=VERTEX_POINT('',#1075);
#295=VERTEX_POINT('',#1077);
#296=VERTEX_POINT('',#1079);
#297=VERTEX_POINT('',#1081);
#298=VERTEX_POINT('',#1083);
#299=VERTEX_POINT('',#1085);
#300=VERTEX_POINT('',#1087);
#301=VERTEX_POINT('',#1091);
#302=VERTEX_POINT('',#1095);
#303=VERTEX_POINT('',#1099);
#304=VERTEX_POINT('',#1103);
#305=VERTEX_POINT('',#1107);
#306=VERTEX_POINT('',#1108);
#307=VERTEX_POINT('',#1110);
#308=VERTEX_POINT('',#1112);
#309=VERTEX_POINT('',#1114);
#310=VERTEX_POINT('',#1121);
#311=VERTEX_POINT('',#1130);
#312=VERTEX_POINT('',#1132);
#313=VERTEX_POINT('',#1135);
#314=VERTEX_POINT('',#1137);
#315=VERTEX_POINT('',#1141);
#316=VERTEX_POINT('',#1142);
#317=VERTEX_POINT('',#1144);
#318=VERTEX_POINT('',#1146);
#319=VERTEX_POINT('',#1150);
#320=VERTEX_POINT('',#1152);
#321=VERTEX_POINT('',#1157);
#322=VERTEX_POINT('',#1159);
#323=VERTEX_POINT('',#1161);
#324=VERTEX_POINT('',#1163);
#325=VERTEX_POINT('',#1165);
#326=VERTEX_POINT('',#1167);
#327=VERTEX_POINT('',#1169);
#328=VERTEX_POINT('',#1173);
#329=VERTEX_POINT('',#1177);
#330=VERTEX_POINT('',#1181);
#331=VERTEX_POINT('',#1185);
#332=VERTEX_POINT('',#1191);
#333=VERTEX_POINT('',#1192);
#334=VERTEX_POINT('',#1202);
#335=VERTEX_POINT('',#1213);
#336=VERTEX_POINT('',#1222);
#337=VERTEX_POINT('',#1224);
#338=VERTEX_POINT('',#1235);
#339=VERTEX_POINT('',#1237);
#340=VERTEX_POINT('',#1240);
#341=VERTEX_POINT('',#1242);
#342=VERTEX_POINT('',#1246);
#343=VERTEX_POINT('',#1250);
#344=VERTEX_POINT('',#1252);
#345=VERTEX_POINT('',#1256);
#346=VERTEX_POINT('',#1262);
#347=VERTEX_POINT('',#1264);
#348=VERTEX_POINT('',#1268);
#349=VERTEX_POINT('',#1272);
#350=VERTEX_POINT('',#1274);
#351=VERTEX_POINT('',#1282);
#352=VERTEX_POINT('',#1286);
#353=VERTEX_POINT('',#1292);
#354=EDGE_CURVE('',#282,#283,#274,.F.);
#355=EDGE_CURVE('',#282,#284,#146,.T.);
#356=EDGE_CURVE('',#284,#285,#275,.T.);
#357=EDGE_CURVE('',#285,#286,#110,.T.);
#358=EDGE_CURVE('',#286,#287,#147,.T.);
#359=EDGE_CURVE('',#287,#283,#111,.T.);
#360=EDGE_CURVE('',#286,#288,#148,.T.);
#361=EDGE_CURVE('',#289,#288,#149,.T.);
#362=EDGE_CURVE('',#287,#289,#150,.T.);
#363=EDGE_CURVE('',#288,#290,#112,.T.);
#364=EDGE_CURVE('',#290,#291,#151,.T.);
#365=EDGE_CURVE('',#291,#289,#113,.T.);
#366=EDGE_CURVE('',#290,#292,#152,.T.);
#367=EDGE_CURVE('',#293,#292,#153,.T.);
#368=EDGE_CURVE('',#291,#293,#154,.T.);
#369=EDGE_CURVE('',#285,#294,#155,.T.);
#370=EDGE_CURVE('',#294,#295,#156,.T.);
#371=EDGE_CURVE('',#296,#295,#157,.T.);
#372=EDGE_CURVE('',#296,#297,#114,.T.);
#373=EDGE_CURVE('',#298,#297,#158,.T.);
#374=EDGE_CURVE('',#299,#298,#115,.T.);
#375=EDGE_CURVE('',#300,#299,#159,.T.);
#376=EDGE_CURVE('',#292,#300,#116,.T.);
#377=EDGE_CURVE('',#300,#301,#160,.T.);
#378=EDGE_CURVE('',#301,#293,#117,.T.);
#379=EDGE_CURVE('',#302,#299,#161,.T.);
#380=EDGE_CURVE('',#301,#302,#162,.T.);
#381=EDGE_CURVE('',#298,#303,#163,.T.);
#382=EDGE_CURVE('',#303,#302,#118,.T.);
#383=EDGE_CURVE('',#304,#297,#164,.T.);
#384=EDGE_CURVE('',#303,#304,#165,.T.);
#385=EDGE_CURVE('',#305,#306,#119,.F.);
#386=EDGE_CURVE('',#305,#307,#166,.T.);
#387=EDGE_CURVE('',#308,#307,#120,.F.);
#388=EDGE_CURVE('',#309,#308,#276,.F.);
#389=EDGE_CURVE('',#309,#310,#167,.T.);
#390=EDGE_CURVE('',#306,#310,#277,.F.);
#391=EDGE_CURVE('',#311,#282,#121,.T.);
#392=EDGE_CURVE('',#311,#312,#168,.T.);
#393=EDGE_CURVE('',#312,#310,#122,.T.);
#394=EDGE_CURVE('',#313,#309,#123,.T.);
#395=EDGE_CURVE('',#313,#314,#169,.T.);
#396=EDGE_CURVE('',#314,#284,#124,.T.);
#397=EDGE_CURVE('',#315,#316,#125,.T.);
#398=EDGE_CURVE('',#316,#317,#170,.T.);
#399=EDGE_CURVE('',#317,#318,#126,.T.);
#400=EDGE_CURVE('',#318,#315,#171,.T.);
#401=EDGE_CURVE('',#318,#319,#172,.T.);
#402=EDGE_CURVE('',#320,#319,#173,.T.);
#403=EDGE_CURVE('',#315,#320,#174,.T.);
#404=EDGE_CURVE('',#305,#317,#175,.T.);
#405=EDGE_CURVE('',#306,#321,#176,.T.);
#406=EDGE_CURVE('',#321,#322,#177,.T.);
#407=EDGE_CURVE('',#323,#322,#178,.T.);
#408=EDGE_CURVE('',#323,#324,#127,.T.);
#409=EDGE_CURVE('',#325,#324,#179,.T.);
#410=EDGE_CURVE('',#326,#325,#128,.T.);
#411=EDGE_CURVE('',#327,#326,#180,.T.);
#412=EDGE_CURVE('',#319,#327,#129,.T.);
#413=EDGE_CURVE('',#328,#320,#130,.T.);
#414=EDGE_CURVE('',#327,#328,#181,.T.);
#415=EDGE_CURVE('',#329,#326,#182,.T.);
#416=EDGE_CURVE('',#328,#329,#183,.T.);
#417=EDGE_CURVE('',#330,#329,#131,.T.);
#418=EDGE_CURVE('',#325,#330,#184,.T.);
#419=EDGE_CURVE('',#324,#331,#185,.T.);
#420=EDGE_CURVE('',#330,#331,#186,.T.);
#421=EDGE_CURVE('',#307,#316,#187,.T.);
#422=EDGE_CURVE('',#332,#333,#278,.T.);
#423=EDGE_CURVE('',#331,#332,#132,.T.);
#424=EDGE_CURVE('',#334,#323,#279,.T.);
#425=EDGE_CURVE('',#334,#333,#188,.T.);
#426=EDGE_CURVE('',#335,#296,#280,.T.);
#427=EDGE_CURVE('',#335,#336,#189,.T.);
#428=EDGE_CURVE('',#337,#336,#281,.T.);
#429=EDGE_CURVE('',#304,#337,#133,.T.);
#430=EDGE_CURVE('',#338,#335,#134,.T.);
#431=EDGE_CURVE('',#339,#338,#190,.T.);
#432=EDGE_CURVE('',#333,#339,#135,.T.);
#433=EDGE_CURVE('',#340,#334,#136,.T.);
#434=EDGE_CURVE('',#341,#340,#191,.T.);
#435=EDGE_CURVE('',#336,#341,#137,.T.);
#436=EDGE_CURVE('',#295,#342,#138,.T.);
#437=EDGE_CURVE('',#338,#342,#192,.T.);
#438=EDGE_CURVE('',#341,#343,#193,.T.);
#439=EDGE_CURVE('',#343,#344,#139,.T.);
#440=EDGE_CURVE('',#337,#344,#194,.T.);
#441=EDGE_CURVE('',#340,#345,#195,.T.);
#442=EDGE_CURVE('',#343,#345,#196,.T.);
#443=EDGE_CURVE('',#345,#322,#140,.T.);
#444=EDGE_CURVE('',#339,#346,#197,.T.);
#445=EDGE_CURVE('',#347,#346,#141,.T.);
#446=EDGE_CURVE('',#332,#347,#198,.T.);
#447=EDGE_CURVE('',#312,#348,#199,.T.);
#448=EDGE_CURVE('',#348,#321,#142,.T.);
#449=EDGE_CURVE('',#308,#349,#200,.T.);
#450=EDGE_CURVE('',#349,#350,#143,.T.);
#451=EDGE_CURVE('',#313,#350,#201,.T.);
#452=EDGE_CURVE('',#349,#347,#202,.T.);
#453=EDGE_CURVE('',#342,#346,#203,.T.);
#454=EDGE_CURVE('',#351,#344,#204,.T.);
#455=EDGE_CURVE('',#283,#351,#205,.T.);
#456=EDGE_CURVE('',#352,#351,#144,.T.);
#457=EDGE_CURVE('',#311,#352,#206,.T.);
#458=EDGE_CURVE('',#352,#348,#207,.T.);
#459=EDGE_CURVE('',#353,#350,#208,.T.);
#460=EDGE_CURVE('',#314,#353,#209,.T.);
#461=EDGE_CURVE('',#294,#353,#145,.T.);
#462=ORIENTED_EDGE('',*,*,#354,.F.);
#463=ORIENTED_EDGE('',*,*,#355,.T.);
#464=ORIENTED_EDGE('',*,*,#356,.T.);
#465=ORIENTED_EDGE('',*,*,#357,.T.);
#466=ORIENTED_EDGE('',*,*,#358,.T.);
#467=ORIENTED_EDGE('',*,*,#359,.T.);
#468=ORIENTED_EDGE('',*,*,#358,.F.);
#469=ORIENTED_EDGE('',*,*,#360,.T.);
#470=ORIENTED_EDGE('',*,*,#361,.F.);
#471=ORIENTED_EDGE('',*,*,#362,.F.);
#472=ORIENTED_EDGE('',*,*,#363,.T.);
#473=ORIENTED_EDGE('',*,*,#364,.T.);
#474=ORIENTED_EDGE('',*,*,#365,.T.);
#475=ORIENTED_EDGE('',*,*,#361,.T.);
#476=ORIENTED_EDGE('',*,*,#364,.F.);
#477=ORIENTED_EDGE('',*,*,#366,.T.);
#478=ORIENTED_EDGE('',*,*,#367,.F.);
#479=ORIENTED_EDGE('',*,*,#368,.F.);
#480=ORIENTED_EDGE('',*,*,#363,.F.);
#481=ORIENTED_EDGE('',*,*,#360,.F.);
#482=ORIENTED_EDGE('',*,*,#357,.F.);
#483=ORIENTED_EDGE('',*,*,#369,.T.);
#484=ORIENTED_EDGE('',*,*,#370,.T.);
#485=ORIENTED_EDGE('',*,*,#371,.F.);
#486=ORIENTED_EDGE('',*,*,#372,.T.);
#487=ORIENTED_EDGE('',*,*,#373,.F.);
#488=ORIENTED_EDGE('',*,*,#374,.F.);
#489=ORIENTED_EDGE('',*,*,#375,.F.);
#490=ORIENTED_EDGE('',*,*,#376,.F.);
#491=ORIENTED_EDGE('',*,*,#366,.F.);
#492=ORIENTED_EDGE('',*,*,#376,.T.);
#493=ORIENTED_EDGE('',*,*,#377,.T.);
#494=ORIENTED_EDGE('',*,*,#378,.T.);
#495=ORIENTED_EDGE('',*,*,#367,.T.);
#496=ORIENTED_EDGE('',*,*,#377,.F.);
#497=ORIENTED_EDGE('',*,*,#375,.T.);
#498=ORIENTED_EDGE('',*,*,#379,.F.);
#499=ORIENTED_EDGE('',*,*,#380,.F.);
#500=ORIENTED_EDGE('',*,*,#374,.T.);
#501=ORIENTED_EDGE('',*,*,#381,.T.);
#502=ORIENTED_EDGE('',*,*,#382,.T.);
#503=ORIENTED_EDGE('',*,*,#379,.T.);
#504=ORIENTED_EDGE('',*,*,#381,.F.);
#505=ORIENTED_EDGE('',*,*,#373,.T.);
#506=ORIENTED_EDGE('',*,*,#383,.F.);
#507=ORIENTED_EDGE('',*,*,#384,.F.);
#508=ORIENTED_EDGE('',*,*,#385,.F.);
#509=ORIENTED_EDGE('',*,*,#386,.T.);
#510=ORIENTED_EDGE('',*,*,#387,.F.);
#511=ORIENTED_EDGE('',*,*,#388,.F.);
#512=ORIENTED_EDGE('',*,*,#389,.T.);
#513=ORIENTED_EDGE('',*,*,#390,.F.);
#514=ORIENTED_EDGE('',*,*,#355,.F.);
#515=ORIENTED_EDGE('',*,*,#391,.F.);
#516=ORIENTED_EDGE('',*,*,#392,.T.);
#517=ORIENTED_EDGE('',*,*,#393,.T.);
#518=ORIENTED_EDGE('',*,*,#389,.F.);
#519=ORIENTED_EDGE('',*,*,#394,.F.);
#520=ORIENTED_EDGE('',*,*,#395,.T.);
#521=ORIENTED_EDGE('',*,*,#396,.T.);
#522=ORIENTED_EDGE('',*,*,#397,.T.);
#523=ORIENTED_EDGE('',*,*,#398,.T.);
#524=ORIENTED_EDGE('',*,*,#399,.T.);
#525=ORIENTED_EDGE('',*,*,#400,.T.);
#526=ORIENTED_EDGE('',*,*,#400,.F.);
#527=ORIENTED_EDGE('',*,*,#401,.T.);
#528=ORIENTED_EDGE('',*,*,#402,.F.);
#529=ORIENTED_EDGE('',*,*,#403,.F.);
#530=ORIENTED_EDGE('',*,*,#399,.F.);
#531=ORIENTED_EDGE('',*,*,#404,.F.);
#532=ORIENTED_EDGE('',*,*,#385,.T.);
#533=ORIENTED_EDGE('',*,*,#405,.T.);
#534=ORIENTED_EDGE('',*,*,#406,.T.);
#535=ORIENTED_EDGE('',*,*,#407,.F.);
#536=ORIENTED_EDGE('',*,*,#408,.T.);
#537=ORIENTED_EDGE('',*,*,#409,.F.);
#538=ORIENTED_EDGE('',*,*,#410,.F.);
#539=ORIENTED_EDGE('',*,*,#411,.F.);
#540=ORIENTED_EDGE('',*,*,#412,.F.);
#541=ORIENTED_EDGE('',*,*,#401,.F.);
#542=ORIENTED_EDGE('',*,*,#413,.T.);
#543=ORIENTED_EDGE('',*,*,#402,.T.);
#544=ORIENTED_EDGE('',*,*,#412,.T.);
#545=ORIENTED_EDGE('',*,*,#414,.T.);
#546=ORIENTED_EDGE('',*,*,#414,.F.);
#547=ORIENTED_EDGE('',*,*,#411,.T.);
#548=ORIENTED_EDGE('',*,*,#415,.F.);
#549=ORIENTED_EDGE('',*,*,#416,.F.);
#550=ORIENTED_EDGE('',*,*,#417,.T.);
#551=ORIENTED_EDGE('',*,*,#415,.T.);
#552=ORIENTED_EDGE('',*,*,#410,.T.);
#553=ORIENTED_EDGE('',*,*,#418,.T.);
#554=ORIENTED_EDGE('',*,*,#418,.F.);
#555=ORIENTED_EDGE('',*,*,#409,.T.);
#556=ORIENTED_EDGE('',*,*,#419,.T.);
#557=ORIENTED_EDGE('',*,*,#420,.F.);
#558=ORIENTED_EDGE('',*,*,#386,.F.);
#559=ORIENTED_EDGE('',*,*,#404,.T.);
#560=ORIENTED_EDGE('',*,*,#398,.F.);
#561=ORIENTED_EDGE('',*,*,#421,.F.);
#562=ORIENTED_EDGE('',*,*,#422,.F.);
#563=ORIENTED_EDGE('',*,*,#423,.F.);
#564=ORIENTED_EDGE('',*,*,#419,.F.);
#565=ORIENTED_EDGE('',*,*,#408,.F.);
#566=ORIENTED_EDGE('',*,*,#424,.F.);
#567=ORIENTED_EDGE('',*,*,#425,.T.);
#568=ORIENTED_EDGE('',*,*,#426,.F.);
#569=ORIENTED_EDGE('',*,*,#427,.T.);
#570=ORIENTED_EDGE('',*,*,#428,.F.);
#571=ORIENTED_EDGE('',*,*,#429,.F.);
#572=ORIENTED_EDGE('',*,*,#383,.T.);
#573=ORIENTED_EDGE('',*,*,#372,.F.);
#574=ORIENTED_EDGE('',*,*,#430,.F.);
#575=ORIENTED_EDGE('',*,*,#431,.F.);
#576=ORIENTED_EDGE('',*,*,#432,.F.);
#577=ORIENTED_EDGE('',*,*,#425,.F.);
#578=ORIENTED_EDGE('',*,*,#433,.F.);
#579=ORIENTED_EDGE('',*,*,#434,.F.);
#580=ORIENTED_EDGE('',*,*,#435,.F.);
#581=ORIENTED_EDGE('',*,*,#427,.F.);
#582=ORIENTED_EDGE('',*,*,#430,.T.);
#583=ORIENTED_EDGE('',*,*,#426,.T.);
#584=ORIENTED_EDGE('',*,*,#371,.T.);
#585=ORIENTED_EDGE('',*,*,#436,.T.);
#586=ORIENTED_EDGE('',*,*,#437,.F.);
#587=ORIENTED_EDGE('',*,*,#428,.T.);
#588=ORIENTED_EDGE('',*,*,#435,.T.);
#589=ORIENTED_EDGE('',*,*,#438,.T.);
#590=ORIENTED_EDGE('',*,*,#439,.T.);
#591=ORIENTED_EDGE('',*,*,#440,.F.);
#592=ORIENTED_EDGE('',*,*,#434,.T.);
#593=ORIENTED_EDGE('',*,*,#441,.T.);
#594=ORIENTED_EDGE('',*,*,#442,.F.);
#595=ORIENTED_EDGE('',*,*,#438,.F.);
#596=ORIENTED_EDGE('',*,*,#424,.T.);
#597=ORIENTED_EDGE('',*,*,#407,.T.);
#598=ORIENTED_EDGE('',*,*,#443,.F.);
#599=ORIENTED_EDGE('',*,*,#441,.F.);
#600=ORIENTED_EDGE('',*,*,#433,.T.);
#601=ORIENTED_EDGE('',*,*,#432,.T.);
#602=ORIENTED_EDGE('',*,*,#444,.T.);
#603=ORIENTED_EDGE('',*,*,#445,.F.);
#604=ORIENTED_EDGE('',*,*,#446,.F.);
#605=ORIENTED_EDGE('',*,*,#422,.T.);
#606=ORIENTED_EDGE('',*,*,#393,.F.);
#607=ORIENTED_EDGE('',*,*,#447,.T.);
#608=ORIENTED_EDGE('',*,*,#448,.T.);
#609=ORIENTED_EDGE('',*,*,#405,.F.);
#610=ORIENTED_EDGE('',*,*,#390,.T.);
#611=ORIENTED_EDGE('',*,*,#394,.T.);
#612=ORIENTED_EDGE('',*,*,#388,.T.);
#613=ORIENTED_EDGE('',*,*,#449,.T.);
#614=ORIENTED_EDGE('',*,*,#450,.T.);
#615=ORIENTED_EDGE('',*,*,#451,.F.);
#616=ORIENTED_EDGE('',*,*,#397,.F.);
#617=ORIENTED_EDGE('',*,*,#403,.T.);
#618=ORIENTED_EDGE('',*,*,#413,.F.);
#619=ORIENTED_EDGE('',*,*,#416,.T.);
#620=ORIENTED_EDGE('',*,*,#417,.F.);
#621=ORIENTED_EDGE('',*,*,#420,.T.);
#622=ORIENTED_EDGE('',*,*,#423,.T.);
#623=ORIENTED_EDGE('',*,*,#446,.T.);
#624=ORIENTED_EDGE('',*,*,#452,.F.);
#625=ORIENTED_EDGE('',*,*,#449,.F.);
#626=ORIENTED_EDGE('',*,*,#387,.T.);
#627=ORIENTED_EDGE('',*,*,#421,.T.);
#628=ORIENTED_EDGE('',*,*,#431,.T.);
#629=ORIENTED_EDGE('',*,*,#437,.T.);
#630=ORIENTED_EDGE('',*,*,#453,.T.);
#631=ORIENTED_EDGE('',*,*,#444,.F.);
#632=ORIENTED_EDGE('',*,*,#365,.F.);
#633=ORIENTED_EDGE('',*,*,#368,.T.);
#634=ORIENTED_EDGE('',*,*,#378,.F.);
#635=ORIENTED_EDGE('',*,*,#380,.T.);
#636=ORIENTED_EDGE('',*,*,#382,.F.);
#637=ORIENTED_EDGE('',*,*,#384,.T.);
#638=ORIENTED_EDGE('',*,*,#429,.T.);
#639=ORIENTED_EDGE('',*,*,#440,.T.);
#640=ORIENTED_EDGE('',*,*,#454,.F.);
#641=ORIENTED_EDGE('',*,*,#455,.F.);
#642=ORIENTED_EDGE('',*,*,#359,.F.);
#643=ORIENTED_EDGE('',*,*,#362,.T.);
#644=ORIENTED_EDGE('',*,*,#391,.T.);
#645=ORIENTED_EDGE('',*,*,#354,.T.);
#646=ORIENTED_EDGE('',*,*,#455,.T.);
#647=ORIENTED_EDGE('',*,*,#456,.F.);
#648=ORIENTED_EDGE('',*,*,#457,.F.);
#649=ORIENTED_EDGE('',*,*,#392,.F.);
#650=ORIENTED_EDGE('',*,*,#457,.T.);
#651=ORIENTED_EDGE('',*,*,#458,.T.);
#652=ORIENTED_EDGE('',*,*,#447,.F.);
#653=ORIENTED_EDGE('',*,*,#395,.F.);
#654=ORIENTED_EDGE('',*,*,#451,.T.);
#655=ORIENTED_EDGE('',*,*,#459,.F.);
#656=ORIENTED_EDGE('',*,*,#460,.F.);
#657=ORIENTED_EDGE('',*,*,#396,.F.);
#658=ORIENTED_EDGE('',*,*,#460,.T.);
#659=ORIENTED_EDGE('',*,*,#461,.F.);
#660=ORIENTED_EDGE('',*,*,#369,.F.);
#661=ORIENTED_EDGE('',*,*,#356,.F.);
#662=ORIENTED_EDGE('',*,*,#442,.T.);
#663=ORIENTED_EDGE('',*,*,#443,.T.);
#664=ORIENTED_EDGE('',*,*,#406,.F.);
#665=ORIENTED_EDGE('',*,*,#448,.F.);
#666=ORIENTED_EDGE('',*,*,#458,.F.);
#667=ORIENTED_EDGE('',*,*,#456,.T.);
#668=ORIENTED_EDGE('',*,*,#454,.T.);
#669=ORIENTED_EDGE('',*,*,#439,.F.);
#670=ORIENTED_EDGE('',*,*,#453,.F.);
#671=ORIENTED_EDGE('',*,*,#436,.F.);
#672=ORIENTED_EDGE('',*,*,#370,.F.);
#673=ORIENTED_EDGE('',*,*,#461,.T.);
#674=ORIENTED_EDGE('',*,*,#459,.T.);
#675=ORIENTED_EDGE('',*,*,#450,.F.);
#676=ORIENTED_EDGE('',*,*,#452,.T.);
#677=ORIENTED_EDGE('',*,*,#445,.T.);
#678=CYLINDRICAL_SURFACE('',#747,0.15);
#679=CYLINDRICAL_SURFACE('',#751,0.15);
#680=CYLINDRICAL_SURFACE('',#759,0.15);
#681=CYLINDRICAL_SURFACE('',#762,0.15);
#682=CYLINDRICAL_SURFACE('',#765,0.15);
#683=CYLINDRICAL_SURFACE('',#773,0.15);
#684=CYLINDRICAL_SURFACE('',#781,0.15);
#685=CYLINDRICAL_SURFACE('',#784,0.15);
#686=CYLINDRICAL_SURFACE('',#788,0.175);
#687=CYLINDRICAL_SURFACE('',#790,0.175);
#688=CYLINDRICAL_SURFACE('',#797,1.);
#689=CYLINDRICAL_SURFACE('',#799,1.3);
#690=CYLINDRICAL_SURFACE('',#802,1.3);
#691=CYLINDRICAL_SURFACE('',#804,1.);
#692=CYLINDRICAL_SURFACE('',#806,1.3);
#693=CYLINDRICAL_SURFACE('',#808,1.);
#694=CYLINDRICAL_SURFACE('',#813,1.3);
#695=CYLINDRICAL_SURFACE('',#817,1.);
#696=ADVANCED_FACE('',(#35),#678,.F.);
#697=ADVANCED_FACE('',(#36),#16,.F.);
#698=ADVANCED_FACE('',(#37),#679,.T.);
#699=ADVANCED_FACE('',(#38),#17,.F.);
#700=ADVANCED_FACE('',(#39),#18,.T.);
#701=ADVANCED_FACE('',(#40),#680,.T.);
#702=ADVANCED_FACE('',(#41),#19,.F.);
#703=ADVANCED_FACE('',(#42),#681,.T.);
#704=ADVANCED_FACE('',(#43),#20,.F.);
#705=ADVANCED_FACE('',(#44),#682,.F.);
#706=ADVANCED_FACE('',(#45),#21,.F.);
#707=ADVANCED_FACE('',(#46),#683,.T.);
#708=ADVANCED_FACE('',(#47),#22,.T.);
#709=ADVANCED_FACE('',(#48),#23,.F.);
#710=ADVANCED_FACE('',(#49),#684,.T.);
#711=ADVANCED_FACE('',(#50),#24,.T.);
#712=ADVANCED_FACE('',(#51),#685,.T.);
#713=ADVANCED_FACE('',(#52),#25,.T.);
#714=ADVANCED_FACE('',(#53),#26,.T.);
#715=ADVANCED_FACE('',(#54),#686,.F.);
#716=ADVANCED_FACE('',(#55),#687,.F.);
#717=ADVANCED_FACE('',(#56),#27,.F.);
#718=ADVANCED_FACE('',(#57),#688,.F.);
#719=ADVANCED_FACE('',(#58),#689,.T.);
#720=ADVANCED_FACE('',(#59),#28,.F.);
#721=ADVANCED_FACE('',(#60),#690,.T.);
#722=ADVANCED_FACE('',(#61),#691,.F.);
#723=ADVANCED_FACE('',(#62),#692,.T.);
#724=ADVANCED_FACE('',(#63),#693,.F.);
#725=ADVANCED_FACE('',(#64),#29,.F.);
#726=ADVANCED_FACE('',(#65),#30,.F.);
#727=ADVANCED_FACE('',(#66),#31,.T.);
#728=ADVANCED_FACE('',(#67),#694,.T.);
#729=ADVANCED_FACE('',(#68),#32,.T.);
#730=ADVANCED_FACE('',(#69),#33,.T.);
#731=ADVANCED_FACE('',(#70),#695,.F.);
#732=ADVANCED_FACE('',(#71,#15),#34,.T.);
#733=CLOSED_SHELL('',(#696,#697,#698,#699,#700,#701,#702,#703,#704,#705,
#706,#707,#708,#709,#710,#711,#712,#713,#714,#715,#716,#717,#718,#719,#720,
#721,#722,#723,#724,#725,#726,#727,#728,#729,#730,#731,#732));
#734=DERIVED_UNIT_ELEMENT(#736,1.);
#735=DERIVED_UNIT_ELEMENT(#1303,-3.);
#736=(
MASS_UNIT()
NAMED_UNIT(*)
SI_UNIT(.KILO.,.GRAM.)
);
#737=DERIVED_UNIT((#734,#735));
#738=MEASURE_REPRESENTATION_ITEM('density measure',
POSITIVE_RATIO_MEASURE(7850.),#737);
#739=PROPERTY_DEFINITION_REPRESENTATION(#744,#741);
#740=PROPERTY_DEFINITION_REPRESENTATION(#745,#742);
#741=REPRESENTATION('material name',(#743),#1300);
#742=REPRESENTATION('density',(#738),#1300);
#743=DESCRIPTIVE_REPRESENTATION_ITEM('Steel','Steel');
#744=PROPERTY_DEFINITION('material property','material name',#1310);
#745=PROPERTY_DEFINITION('material property','density of part',#1310);
#746=AXIS2_PLACEMENT_3D('',#1032,#820,#821);
#747=AXIS2_PLACEMENT_3D('',#1033,#822,#823);
#748=AXIS2_PLACEMENT_3D('',#1052,#825,#826);
#749=AXIS2_PLACEMENT_3D('',#1055,#828,#829);
#750=AXIS2_PLACEMENT_3D('',#1056,#830,#831);
#751=AXIS2_PLACEMENT_3D('',#1062,#835,#836);
#752=AXIS2_PLACEMENT_3D('',#1064,#837,#838);
#753=AXIS2_PLACEMENT_3D('',#1067,#840,#841);
#754=AXIS2_PLACEMENT_3D('',#1068,#842,#843);
#755=AXIS2_PLACEMENT_3D('',#1074,#847,#848);
#756=AXIS2_PLACEMENT_3D('',#1082,#852,#853);
#757=AXIS2_PLACEMENT_3D('',#1086,#855,#856);
#758=AXIS2_PLACEMENT_3D('',#1089,#858,#859);
#759=AXIS2_PLACEMENT_3D('',#1090,#860,#861);
#760=AXIS2_PLACEMENT_3D('',#1093,#863,#864);
#761=AXIS2_PLACEMENT_3D('',#1094,#865,#866);
#762=AXIS2_PLACEMENT_3D('',#1098,#869,#870);
#763=AXIS2_PLACEMENT_3D('',#1101,#872,#873);
#764=AXIS2_PLACEMENT_3D('',#1102,#874,#875);
#765=AXIS2_PLACEMENT_3D('',#1106,#878,#879);
#766=AXIS2_PLACEMENT_3D('',#1109,#880,#881);
#767=AXIS2_PLACEMENT_3D('',#1113,#883,#884);
#768=AXIS2_PLACEMENT_3D('',#1129,#886,#887);
#769=AXIS2_PLACEMENT_3D('',#1131,#888,#889);
#770=AXIS2_PLACEMENT_3D('',#1134,#891,#892);
#771=AXIS2_PLACEMENT_3D('',#1136,#893,#894);
#772=AXIS2_PLACEMENT_3D('',#1139,#896,#897);
#773=AXIS2_PLACEMENT_3D('',#1140,#898,#899);
#774=AXIS2_PLACEMENT_3D('',#1143,#900,#901);
#775=AXIS2_PLACEMENT_3D('',#1147,#903,#904);
#776=AXIS2_PLACEMENT_3D('',#1149,#906,#907);
#777=AXIS2_PLACEMENT_3D('',#1155,#911,#912);
#778=AXIS2_PLACEMENT_3D('',#1164,#917,#918);
#779=AXIS2_PLACEMENT_3D('',#1168,#920,#921);
#780=AXIS2_PLACEMENT_3D('',#1171,#923,#924);
#781=AXIS2_PLACEMENT_3D('',#1172,#925,#926);
#782=AXIS2_PLACEMENT_3D('',#1174,#927,#928);
#783=AXIS2_PLACEMENT_3D('',#1176,#930,#931);
#784=AXIS2_PLACEMENT_3D('',#1180,#934,#935);
#785=AXIS2_PLACEMENT_3D('',#1182,#936,#937);
#786=AXIS2_PLACEMENT_3D('',#1184,#939,#940);
#787=AXIS2_PLACEMENT_3D('',#1188,#943,#944);
#788=AXIS2_PLACEMENT_3D('',#1190,#946,#947);
#789=AXIS2_PLACEMENT_3D('',#1201,#948,#949);
#790=AXIS2_PLACEMENT_3D('',#1212,#951,#952);
#791=AXIS2_PLACEMENT_3D('',#1233,#954,#955);
#792=AXIS2_PLACEMENT_3D('',#1234,#956,#957);
#793=AXIS2_PLACEMENT_3D('',#1236,#958,#959);
#794=AXIS2_PLACEMENT_3D('',#1239,#961,#962);
#795=AXIS2_PLACEMENT_3D('',#1241,#963,#964);
#796=AXIS2_PLACEMENT_3D('',#1244,#966,#967);
#797=AXIS2_PLACEMENT_3D('',#1245,#968,#969);
#798=AXIS2_PLACEMENT_3D('',#1247,#970,#971);
#799=AXIS2_PLACEMENT_3D('',#1249,#973,#974);
#800=AXIS2_PLACEMENT_3D('',#1253,#976,#977);
#801=AXIS2_PLACEMENT_3D('',#1255,#979,#980);
#802=AXIS2_PLACEMENT_3D('',#1259,#983,#984);
#803=AXIS2_PLACEMENT_3D('',#1260,#985,#986);
#804=AXIS2_PLACEMENT_3D('',#1261,#987,#988);
#805=AXIS2_PLACEMENT_3D('',#1265,#990,#991);
#806=AXIS2_PLACEMENT_3D('',#1267,#993,#994);
#807=AXIS2_PLACEMENT_3D('',#1270,#996,#997);
#808=AXIS2_PLACEMENT_3D('',#1271,#998,#999);
#809=AXIS2_PLACEMENT_3D('',#1275,#1001,#1002);
#810=AXIS2_PLACEMENT_3D('',#1277,#1004,#1005);
#811=AXIS2_PLACEMENT_3D('',#1279,#1007,#1008);
#812=AXIS2_PLACEMENT_3D('',#1281,#1010,#1011);
#813=AXIS2_PLACEMENT_3D('',#1285,#1014,#1015);
#814=AXIS2_PLACEMENT_3D('',#1287,#1016,#1017);
#815=AXIS2_PLACEMENT_3D('',#1289,#1019,#1020);
#816=AXIS2_PLACEMENT_3D('',#1291,#1022,#1023);
#817=AXIS2_PLACEMENT_3D('',#1295,#1026,#1027);
#818=AXIS2_PLACEMENT_3D('',#1296,#1028,#1029);
#819=AXIS2_PLACEMENT_3D('',#1297,#1030,#1031);
#820=DIRECTION('axis',(0.,0.,1.));
#821=DIRECTION('refdir',(1.,0.,0.));
#822=DIRECTION('center_axis',(-1.,0.,0.));
#823=DIRECTION('ref_axis',(0.,-0.707106781186548,0.707106781186548));
#824=DIRECTION('',(1.,0.,0.));
#825=DIRECTION('center_axis',(1.,0.,0.));
#826=DIRECTION('ref_axis',(0.,-0.707106781186548,0.707106781186548));
#827=DIRECTION('',(-1.,0.,0.));
#828=DIRECTION('center_axis',(-1.,0.,0.));
#829=DIRECTION('ref_axis',(0.,-0.707106781186548,0.707106781186548));
#830=DIRECTION('center_axis',(0.,-1.,0.));
#831=DIRECTION('ref_axis',(0.,0.,-1.));
#832=DIRECTION('',(0.,0.,-1.));
#833=DIRECTION('',(1.,0.,0.));
#834=DIRECTION('',(0.,0.,-1.));
#835=DIRECTION('center_axis',(1.,0.,0.));
#836=DIRECTION('ref_axis',(0.,0.707106781186547,-0.707106781186548));
#837=DIRECTION('center_axis',(-1.,0.,0.));
#838=DIRECTION('ref_axis',(0.,0.707106781186547,-0.707106781186548));
#839=DIRECTION('',(-1.,0.,0.));
#840=DIRECTION('center_axis',(1.,0.,0.));
#841=DIRECTION('ref_axis',(0.,0.707106781186547,-0.707106781186548));
#842=DIRECTION('center_axis',(0.,0.,1.));
#843=DIRECTION('ref_axis',(0.,-1.,0.));
#844=DIRECTION('',(0.,-1.,0.));
#845=DIRECTION('',(1.,0.,0.));
#846=DIRECTION('',(0.,-1.,0.));
#847=DIRECTION('center_axis',(1.,0.,0.));
#848=DIRECTION('ref_axis',(0.,1.,0.));
#849=DIRECTION('',(0.,0.,1.));
#850=DIRECTION('',(0.,-1.,0.));
#851=DIRECTION('',(0.,0.,1.));
#852=DIRECTION('center_axis',(-1.,0.,0.));
#853=DIRECTION('ref_axis',(0.,3.96508223080413E-16,-1.));
#854=DIRECTION('',(0.,1.,0.));
#855=DIRECTION('center_axis',(-1.,0.,0.));
#856=DIRECTION('ref_axis',(0.,-0.707106781186547,0.707106781186547));
#857=DIRECTION('',(0.,0.,1.));
#858=DIRECTION('center_axis',(-1.,0.,0.));
#859=DIRECTION('ref_axis',(0.,-0.707106781186547,-0.707106781186547));
#860=DIRECTION('center_axis',(1.,0.,0.));
#861=DIRECTION('ref_axis',(0.,-0.707106781186547,-0.707106781186547));
#862=DIRECTION('',(-1.,0.,0.));
#863=DIRECTION('center_axis',(1.,0.,0.));
#864=DIRECTION('ref_axis',(0.,-0.707106781186547,-0.707106781186547));
#865=DIRECTION('center_axis',(0.,1.,0.));
#866=DIRECTION('ref_axis',(0.,0.,1.));
#867=DIRECTION('',(1.,0.,0.));
#868=DIRECTION('',(0.,0.,1.));
#869=DIRECTION('center_axis',(1.,0.,0.));
#870=DIRECTION('ref_axis',(0.,-0.707106781186547,0.707106781186547));
#871=DIRECTION('',(-1.,0.,0.));
#872=DIRECTION('center_axis',(1.,0.,0.));
#873=DIRECTION('ref_axis',(0.,-0.707106781186547,0.707106781186547));
#874=DIRECTION('center_axis',(0.,0.,-1.));
#875=DIRECTION('ref_axis',(0.,1.,0.));
#876=DIRECTION('',(1.,0.,0.));
#877=DIRECTION('',(0.,1.,0.));
#878=DIRECTION('center_axis',(-1.,0.,0.));
#879=DIRECTION('ref_axis',(0.,-0.707106781186548,0.707106781186548));
#880=DIRECTION('center_axis',(1.,0.,0.));
#881=DIRECTION('ref_axis',(0.,-0.707106781186548,0.707106781186548));
#882=DIRECTION('',(-1.,0.,0.));
#883=DIRECTION('center_axis',(-1.,0.,0.));
#884=DIRECTION('ref_axis',(0.,-0.707106781186548,0.707106781186548));
#885=DIRECTION('',(1.,0.,0.));
#886=DIRECTION('center_axis',(0.,0.,1.));
#887=DIRECTION('ref_axis',(1.,0.,0.));
#888=DIRECTION('center_axis',(0.,0.,1.));
#889=DIRECTION('ref_axis',(0.,1.,0.));
#890=DIRECTION('',(1.,0.,0.));
#891=DIRECTION('center_axis',(0.,0.,-1.));
#892=DIRECTION('ref_axis',(0.,1.,0.));
#893=DIRECTION('center_axis',(0.,0.,-1.));
#894=DIRECTION('ref_axis',(0.,1.,0.));
#895=DIRECTION('',(-1.,0.,0.));
#896=DIRECTION('center_axis',(0.,0.,1.));
#897=DIRECTION('ref_axis',(0.,1.,0.));
#898=DIRECTION('center_axis',(-1.,0.,0.));
#899=DIRECTION('ref_axis',(0.,0.707106781186547,-0.707106781186548));
#900=DIRECTION('center_axis',(1.,0.,0.));
#901=DIRECTION('ref_axis',(0.,0.707106781186547,-0.707106781186548));
#902=DIRECTION('',(1.,0.,0.));
#903=DIRECTION('center_axis',(-1.,0.,0.));
#904=DIRECTION('ref_axis',(0.,0.707106781186547,-0.707106781186548));
#905=DIRECTION('',(-1.,0.,0.));
#906=DIRECTION('center_axis',(0.,0.,-1.));
#907=DIRECTION('ref_axis',(0.,-1.,0.));
#908=DIRECTION('',(0.,-1.,0.));
#909=DIRECTION('',(1.,0.,0.));
#910=DIRECTION('',(0.,-1.,0.));
#911=DIRECTION('center_axis',(-1.,0.,0.));
#912=DIRECTION('ref_axis',(0.,-1.,0.));
#913=DIRECTION('',(0.,0.,-1.));
#914=DIRECTION('',(0.,0.,1.));
#915=DIRECTION('',(0.,-1.,0.));
#916=DIRECTION('',(0.,0.,1.));
#917=DIRECTION('center_axis',(-1.,0.,0.));
#918=DIRECTION('ref_axis',(0.,3.96508223080413E-16,-1.));
#919=DIRECTION('',(0.,1.,0.));
#920=DIRECTION('center_axis',(-1.,0.,0.));
#921=DIRECTION('ref_axis',(0.,-0.707106781186547,0.707106781186547));
#922=DIRECTION('',(0.,0.,1.));
#923=DIRECTION('center_axis',(-1.,0.,0.));
#924=DIRECTION('ref_axis',(0.,-0.707106781186547,-0.707106781186547));
#925=DIRECTION('center_axis',(-1.,0.,0.));
#926=DIRECTION('ref_axis',(0.,-0.707106781186547,-0.707106781186547));
#927=DIRECTION('center_axis',(1.,0.,0.));
#928=DIRECTION('ref_axis',(0.,-0.707106781186547,-0.707106781186547));
#929=DIRECTION('',(-1.,0.,0.));
#930=DIRECTION('center_axis',(0.,-1.,0.));
#931=DIRECTION('ref_axis',(0.,0.,1.));
#932=DIRECTION('',(1.,0.,0.));
#933=DIRECTION('',(0.,0.,1.));
#934=DIRECTION('center_axis',(-1.,0.,0.));
#935=DIRECTION('ref_axis',(0.,-0.707106781186547,0.707106781186547));
#936=DIRECTION('center_axis',(1.,0.,0.));
#937=DIRECTION('ref_axis',(0.,-0.707106781186547,0.707106781186547));
#938=DIRECTION('',(-1.,0.,0.));
#939=DIRECTION('center_axis',(0.,0.,1.));
#940=DIRECTION('ref_axis',(0.,1.,0.));
#941=DIRECTION('',(-1.,0.,0.));
#942=DIRECTION('',(0.,1.,0.));
#943=DIRECTION('center_axis',(0.,1.,0.));
#944=DIRECTION('ref_axis',(0.,0.,-1.));
#945=DIRECTION('',(0.,0.,-1.));
#946=DIRECTION('center_axis',(-1.,0.,0.));
#947=DIRECTION('ref_axis',(0.,3.96508223080413E-16,-1.));
#948=DIRECTION('center_axis',(1.,0.,0.));
#949=DIRECTION('ref_axis',(0.,3.96508223080413E-16,-1.));
#950=DIRECTION('',(-1.,0.,0.));
#951=DIRECTION('center_axis',(-1.,0.,0.));
#952=DIRECTION('ref_axis',(0.,3.96508223080413E-16,-1.));
#953=DIRECTION('',(-1.,0.,0.));
#954=DIRECTION('center_axis',(1.,0.,0.));
#955=DIRECTION('ref_axis',(0.,3.96508223080413E-16,-1.));
#956=DIRECTION('center_axis',(0.,1.18108832406932E-16,1.));
#957=DIRECTION('ref_axis',(0.,1.,-1.18108832406932E-16));
#958=DIRECTION('center_axis',(0.,-1.18108832406932E-16,-1.));
#959=DIRECTION('ref_axis',(0.,-1.,0.));
#960=DIRECTION('',(-1.,0.,0.));
#961=DIRECTION('center_axis',(0.,-1.18108832406932E-16,-1.));
#962=DIRECTION('ref_axis',(0.,-1.,0.));
#963=DIRECTION('center_axis',(0.,1.18108832406932E-16,1.));
#964=DIRECTION('ref_axis',(0.,-1.,0.));
#965=DIRECTION('',(1.,0.,0.));
#966=DIRECTION('center_axis',(0.,1.18108832406932E-16,1.));
#967=DIRECTION('ref_axis',(0.,-1.,0.));
#968=DIRECTION('center_axis',(0.,0.,-1.));
#969=DIRECTION('ref_axis',(0.,-1.,0.));
#970=DIRECTION('center_axis',(0.,0.,1.));
#971=DIRECTION('ref_axis',(0.,-1.,0.));
#972=DIRECTION('',(0.,0.,1.));
#973=DIRECTION('center_axis',(0.,0.,-1.));
#974=DIRECTION('ref_axis',(0.,-1.,0.));
#975=DIRECTION('',(0.,0.,1.));
#976=DIRECTION('center_axis',(0.,0.,-1.));
#977=DIRECTION('ref_axis',(0.,-1.,0.));
#978=DIRECTION('',(0.,0.,1.));
#979=DIRECTION('center_axis',(0.,1.,0.));
#980=DIRECTION('ref_axis',(-1.,0.,0.));
#981=DIRECTION('',(0.,0.,1.));
#982=DIRECTION('',(1.,0.,0.));
#983=DIRECTION('center_axis',(0.,0.,1.));
#984=DIRECTION('ref_axis',(0.,-1.,0.));
#985=DIRECTION('center_axis',(0.,0.,1.));
#986=DIRECTION('ref_axis',(0.,-1.,0.));
#987=DIRECTION('center_axis',(0.,0.,1.));
#988=DIRECTION('ref_axis',(0.,-1.,0.));
#989=DIRECTION('',(0.,0.,1.));
#990=DIRECTION('center_axis',(0.,0.,-1.));
#991=DIRECTION('ref_axis',(0.,-1.,0.));
#992=DIRECTION('',(0.,0.,1.));
#993=DIRECTION('center_axis',(0.,0.,-1.));
#994=DIRECTION('ref_axis',(0.,1.,0.));
#995=DIRECTION('',(0.,0.,1.));
#996=DIRECTION('center_axis',(0.,0.,-1.));
#997=DIRECTION('ref_axis',(0.,1.,0.));
#998=DIRECTION('center_axis',(0.,0.,-1.));
#999=DIRECTION('ref_axis',(0.,1.,0.));
#1000=DIRECTION('',(0.,0.,1.));
#1001=DIRECTION('center_axis',(0.,0.,1.));
#1002=DIRECTION('ref_axis',(0.,1.,0.));
#1003=DIRECTION('',(0.,0.,1.));
#1004=DIRECTION('center_axis',(1.,0.,0.));
#1005=DIRECTION('ref_axis',(0.,1.,0.));
#1006=DIRECTION('',(0.,-1.,0.));
#1007=DIRECTION('center_axis',(0.,-1.,0.));
#1008=DIRECTION('ref_axis',(1.,0.,0.));
#1009=DIRECTION('',(1.,0.,0.));
#1010=DIRECTION('center_axis',(-1.,0.,0.));
#1011=DIRECTION('ref_axis',(0.,-1.,0.));
#1012=DIRECTION('',(0.,-1.,0.));
#1013=DIRECTION('',(0.,0.,1.));
#1014=DIRECTION('center_axis',(0.,0.,1.));
#1015=DIRECTION('ref_axis',(0.,1.,0.));
#1016=DIRECTION('center_axis',(0.,0.,1.));
#1017=DIRECTION('ref_axis',(0.,1.,0.));
#1018=DIRECTION('',(0.,0.,1.));
#1019=DIRECTION('center_axis',(0.,1.,0.));
#1020=DIRECTION('ref_axis',(-1.,0.,0.));
#1021=DIRECTION('',(1.,0.,0.));
#1022=DIRECTION('center_axis',(0.,-1.,0.));
#1023=DIRECTION('ref_axis',(1.,0.,0.));
#1024=DIRECTION('',(1.,0.,0.));
#1025=DIRECTION('',(0.,0.,1.));
#1026=DIRECTION('center_axis',(0.,0.,1.));
#1027=DIRECTION('ref_axis',(0.,1.,0.));
#1028=DIRECTION('center_axis',(0.,0.,-1.));
#1029=DIRECTION('ref_axis',(0.,1.,0.));
#1030=DIRECTION('center_axis',(0.,0.,1.));
#1031=DIRECTION('ref_axis',(1.,0.,0.));
#1032=CARTESIAN_POINT('',(0.,0.,0.));
#1033=CARTESIAN_POINT('Origin',(-3.3525,0.35,-0.15));
#1034=CARTESIAN_POINT('',(-4.46811401656403,0.35,0.));
#1035=CARTESIAN_POINT('',(-4.47,0.279999999999999,-0.0173350083857843));
#1036=CARTESIAN_POINT('Ctrl Pts',(-4.47,0.279999999999997,-0.0173350083857854));
#1037=CARTESIAN_POINT('Ctrl Pts',(-4.47,0.284109838567465,-0.0151664732189547));
#1038=CARTESIAN_POINT('Ctrl Pts',(-4.46998121822438,0.28833199651247,-0.0131835244724358));
#1039=CARTESIAN_POINT('Ctrl Pts',(-4.4697556984067,0.311111750342323,-0.00375511978416696));
#1040=CARTESIAN_POINT('Ctrl Pts',(-4.46912823913006,0.331191763873098,-8.64667775948758E-18));
#1041=CARTESIAN_POINT('Ctrl Pts',(-4.46811401656403,0.35,-1.73472347597681E-17));
#1042=CARTESIAN_POINT('',(-4.16754699137434,0.35,0.));
#1043=CARTESIAN_POINT('',(-3.3525,0.35,0.));
#1044=CARTESIAN_POINT('',(-4.17,0.279999999999991,-0.0173350083857889));
#1045=CARTESIAN_POINT('Ctrl Pts',(-4.16754699137434,0.35,-8.67361737988404E-18));
#1046=CARTESIAN_POINT('Ctrl Pts',(-4.16886554002693,0.331209796551903,-9.76014428121052E-18));
#1047=CARTESIAN_POINT('Ctrl Pts',(-4.16968157865735,0.311136504860002,-0.0037489557094316));
#1048=CARTESIAN_POINT('Ctrl Pts',(-4.16997548216014,0.288349604225721,-0.0131752877010815));
#1049=CARTESIAN_POINT('Ctrl Pts',(-4.17,0.284118448095306,-0.015161930445902));
#1050=CARTESIAN_POINT('Ctrl Pts',(-4.17,0.279999999999989,-0.0173350083857899));
#1051=CARTESIAN_POINT('',(-4.17,0.2,-0.15));
#1052=CARTESIAN_POINT('Origin',(-4.17,0.35,-0.15));
#1053=CARTESIAN_POINT('',(-4.47,0.2,-0.15));
#1054=CARTESIAN_POINT('',(-3.3525,0.2,-0.15));
#1055=CARTESIAN_POINT('Origin',(-4.47,0.35,-0.15));
#1056=CARTESIAN_POINT('Origin',(-4.47,0.2,0.79));
#1057=CARTESIAN_POINT('',(-4.17,0.2,-0.75));
#1058=CARTESIAN_POINT('',(-4.17,0.2,0.79));
#1059=CARTESIAN_POINT('',(-4.47,0.2,-0.75));
#1060=CARTESIAN_POINT('',(-4.47,0.2,-0.75));
#1061=CARTESIAN_POINT('',(-4.47,0.2,0.79));
#1062=CARTESIAN_POINT('Origin',(-4.47,0.05,-0.75));
#1063=CARTESIAN_POINT('',(-4.17,0.05,-0.9));
#1064=CARTESIAN_POINT('Origin',(-4.17,0.05,-0.75));
#1065=CARTESIAN_POINT('',(-4.47,0.05,-0.9));
#1066=CARTESIAN_POINT('',(-4.47,0.05,-0.9));
#1067=CARTESIAN_POINT('Origin',(-4.47,0.05,-0.75));
#1068=CARTESIAN_POINT('Origin',(-4.47,0.2,-0.9));
#1069=CARTESIAN_POINT('',(-4.17,-0.65,-0.9));
#1070=CARTESIAN_POINT('',(-4.17,0.2,-0.9));
#1071=CARTESIAN_POINT('',(-4.47,-0.65,-0.9));
#1072=CARTESIAN_POINT('',(-4.47,-0.65,-0.9));
#1073=CARTESIAN_POINT('',(-4.47,0.2,-0.9));
#1074=CARTESIAN_POINT('Origin',(-4.17,2.55338857622223E-16,0.));
#1075=CARTESIAN_POINT('',(-4.17,0.28,6.85));
#1076=CARTESIAN_POINT('',(-4.17,0.28,0.));
#1077=CARTESIAN_POINT('',(-4.17,-0.28,6.85));
#1078=CARTESIAN_POINT('',(-4.17,-2.55338857622223E-16,6.85));
#1079=CARTESIAN_POINT('',(-4.17,-0.28,1.08747448713916));
#1080=CARTESIAN_POINT('',(-4.17,-0.28,0.));
#1081=CARTESIAN_POINT('',(-4.17,-0.405,0.79));
#1082=CARTESIAN_POINT('Origin',(-4.17,-0.405,0.965));
#1083=CARTESIAN_POINT('',(-4.17,-0.65,0.79));
#1084=CARTESIAN_POINT('',(-4.17,-0.8,0.79));
#1085=CARTESIAN_POINT('',(-4.17,-0.8,0.64));
#1086=CARTESIAN_POINT('Origin',(-4.17,-0.65,0.64));
#1087=CARTESIAN_POINT('',(-4.17,-0.8,-0.75));
#1088=CARTESIAN_POINT('',(-4.17,-0.8,-0.9));
#1089=CARTESIAN_POINT('Origin',(-4.17,-0.65,-0.75));
#1090=CARTESIAN_POINT('Origin',(-4.47,-0.65,-0.75));
#1091=CARTESIAN_POINT('',(-4.47,-0.8,-0.75));
#1092=CARTESIAN_POINT('',(-4.47,-0.8,-0.75));
#1093=CARTESIAN_POINT('Origin',(-4.47,-0.65,-0.75));
#1094=CARTESIAN_POINT('Origin',(-4.47,-0.8,-0.9));
#1095=CARTESIAN_POINT('',(-4.47,-0.8,0.64));
#1096=CARTESIAN_POINT('',(-4.47,-0.8,0.64));
#1097=CARTESIAN_POINT('',(-4.47,-0.8,-0.9));
#1098=CARTESIAN_POINT('Origin',(-4.47,-0.65,0.64));
#1099=CARTESIAN_POINT('',(-4.47,-0.65,0.79));
#1100=CARTESIAN_POINT('',(-4.47,-0.65,0.79));
#1101=CARTESIAN_POINT('Origin',(-4.47,-0.65,0.64));
#1102=CARTESIAN_POINT('Origin',(-4.47,-0.8,0.79));
#1103=CARTESIAN_POINT('',(-4.47,-0.405,0.79));
#1104=CARTESIAN_POINT('',(-4.47,-0.405,0.79));
#1105=CARTESIAN_POINT('',(-4.47,-0.8,0.79));
#1106=CARTESIAN_POINT('Origin',(1.1175,0.35,-0.15));
#1107=CARTESIAN_POINT('',(4.47,0.2,-0.15));
#1108=CARTESIAN_POINT('',(4.47,0.280000000055626,-0.0173350083564335));
#1109=CARTESIAN_POINT('Origin',(4.47,0.35,-0.15));
#1110=CARTESIAN_POINT('',(4.17,0.2,-0.15));
#1111=CARTESIAN_POINT('',(1.1175,0.2,-0.15));
#1112=CARTESIAN_POINT('',(4.17,0.279999999999991,-0.0173350083857889));
#1113=CARTESIAN_POINT('Origin',(4.17,0.35,-0.15));
#1114=CARTESIAN_POINT('',(4.16754699137434,0.35,0.));
#1115=CARTESIAN_POINT('Ctrl Pts',(4.17,0.279999999999989,-0.0173350083857899));
#1116=CARTESIAN_POINT('Ctrl Pts',(4.17,0.284118448095306,-0.015161930445902));
#1117=CARTESIAN_POINT('Ctrl Pts',(4.16997548216014,0.288349604225721,-0.0131752877010816));
#1118=CARTESIAN_POINT('Ctrl Pts',(4.16968157865735,0.311136504860001,-0.00374895570943161));
#1119=CARTESIAN_POINT('Ctrl Pts',(4.16886554002693,0.331209796551903,-3.47316651809919E-17));
#1120=CARTESIAN_POINT('Ctrl Pts',(4.16754699137434,0.35,-1.73472347597681E-17));
#1121=CARTESIAN_POINT('',(4.46811401656403,0.35,0.));
#1122=CARTESIAN_POINT('',(1.1175,0.35,0.));
#1123=CARTESIAN_POINT('Ctrl Pts',(4.46811401656403,0.35,-1.73472347597681E-17));
#1124=CARTESIAN_POINT('Ctrl Pts',(4.46912823913006,0.331191763873098,-1.84348043848031E-17));
#1125=CARTESIAN_POINT('Ctrl Pts',(4.4697556984067,0.311111750342323,-0.00375511978416696));
#1126=CARTESIAN_POINT('Ctrl Pts',(4.46998121822419,0.288331996531886,-0.0131835244643998));
#1127=CARTESIAN_POINT('Ctrl Pts',(4.46999999999982,0.284109838605559,-0.0151664732010577));
#1128=CARTESIAN_POINT('Ctrl Pts',(4.47,0.280000000055624,-0.0173350083564346));
#1129=CARTESIAN_POINT('Origin',(-2.235,0.79,0.));
#1130=CARTESIAN_POINT('',(-3.17,1.58,0.));
#1131=CARTESIAN_POINT('Origin',(-3.17,0.28,0.));
#1132=CARTESIAN_POINT('',(3.17,1.58,0.));
#1133=CARTESIAN_POINT('',(0.,1.58,0.));
#1134=CARTESIAN_POINT('Origin',(3.17,0.28,0.));
#1135=CARTESIAN_POINT('',(3.17,1.28,0.));
#1136=CARTESIAN_POINT('Origin',(3.17,0.28,0.));
#1137=CARTESIAN_POINT('',(-3.17,1.28,0.));
#1138=CARTESIAN_POINT('',(0.,1.28,0.));
#1139=CARTESIAN_POINT('Origin',(-3.17,0.28,0.));
#1140=CARTESIAN_POINT('Origin',(4.47,0.05,-0.75));
#1141=CARTESIAN_POINT('',(4.17,0.05,-0.9));
#1142=CARTESIAN_POINT('',(4.17,0.2,-0.75));
#1143=CARTESIAN_POINT('Origin',(4.17,0.05,-0.75));
#1144=CARTESIAN_POINT('',(4.47,0.2,-0.75));
#1145=CARTESIAN_POINT('',(4.47,0.2,-0.75));
#1146=CARTESIAN_POINT('',(4.47,0.05,-0.9));
#1147=CARTESIAN_POINT('Origin',(4.47,0.05,-0.75));
#1148=CARTESIAN_POINT('',(4.47,0.05,-0.9));
#1149=CARTESIAN_POINT('Origin',(4.47,0.2,-0.9));
#1150=CARTESIAN_POINT('',(4.47,-0.65,-0.9));
#1151=CARTESIAN_POINT('',(4.47,0.2,-0.9));
#1152=CARTESIAN_POINT('',(4.17,-0.65,-0.9));
#1153=CARTESIAN_POINT('',(4.47,-0.65,-0.9));
#1154=CARTESIAN_POINT('',(4.17,0.2,-0.9));
#1155=CARTESIAN_POINT('Origin',(4.47,0.28,0.));
#1156=CARTESIAN_POINT('',(4.47,0.2,0.79));
#1157=CARTESIAN_POINT('',(4.47,0.28,6.85));
#1158=CARTESIAN_POINT('',(4.47,0.28,0.));
#1159=CARTESIAN_POINT('',(4.47,-0.28,6.85));
#1160=CARTESIAN_POINT('',(4.47,2.55338857622223E-16,6.85));
#1161=CARTESIAN_POINT('',(4.47,-0.280000000000001,1.08747448713916));
#1162=CARTESIAN_POINT('',(4.47,-0.28,0.));
#1163=CARTESIAN_POINT('',(4.47,-0.405,0.79));
#1164=CARTESIAN_POINT('Origin',(4.47,-0.405,0.965));
#1165=CARTESIAN_POINT('',(4.47,-0.65,0.79));
#1166=CARTESIAN_POINT('',(4.47,-0.8,0.79));
#1167=CARTESIAN_POINT('',(4.47,-0.8,0.64));
#1168=CARTESIAN_POINT('Origin',(4.47,-0.65,0.64));
#1169=CARTESIAN_POINT('',(4.47,-0.8,-0.75));
#1170=CARTESIAN_POINT('',(4.47,-0.8,-0.9));
#1171=CARTESIAN_POINT('Origin',(4.47,-0.65,-0.75));
#1172=CARTESIAN_POINT('Origin',(4.47,-0.65,-0.75));
#1173=CARTESIAN_POINT('',(4.17,-0.8,-0.75));
#1174=CARTESIAN_POINT('Origin',(4.17,-0.65,-0.75));
#1175=CARTESIAN_POINT('',(4.47,-0.8,-0.75));
#1176=CARTESIAN_POINT('Origin',(4.47,-0.8,-0.9));
#1177=CARTESIAN_POINT('',(4.17,-0.8,0.64));
#1178=CARTESIAN_POINT('',(4.47,-0.8,0.64));
#1179=CARTESIAN_POINT('',(4.17,-0.8,-0.9));
#1180=CARTESIAN_POINT('Origin',(4.47,-0.65,0.64));
#1181=CARTESIAN_POINT('',(4.17,-0.65,0.79));
#1182=CARTESIAN_POINT('Origin',(4.17,-0.65,0.64));
#1183=CARTESIAN_POINT('',(4.47,-0.65,0.79));
#1184=CARTESIAN_POINT('Origin',(4.47,-0.8,0.79));
#1185=CARTESIAN_POINT('',(4.17,-0.405,0.79));
#1186=CARTESIAN_POINT('',(4.47,-0.405,0.79));
#1187=CARTESIAN_POINT('',(4.17,-0.8,0.79));
#1188=CARTESIAN_POINT('Origin',(4.47,0.2,0.79));
#1189=CARTESIAN_POINT('',(4.17,0.2,0.79));
#1190=CARTESIAN_POINT('Origin',(4.47,-0.405,0.965));
#1191=CARTESIAN_POINT('',(4.17,-0.28,1.08747448713916));
#1192=CARTESIAN_POINT('',(4.16215674164922,-0.405,1.14));
#1193=CARTESIAN_POINT('Ctrl Pts',(4.17,-0.28,1.08747448713916));
#1194=CARTESIAN_POINT('Ctrl Pts',(4.17,-0.280417340679233,1.08790043368625));
#1195=CARTESIAN_POINT('Ctrl Pts',(4.16999973871415,-0.280836134984963,1.08832350840025));
#1196=CARTESIAN_POINT('Ctrl Pts',(4.16997963699597,-0.296836683926122,1.10432405734141));
#1197=CARTESIAN_POINT('Ctrl Pts',(4.16957062471855,-0.316574870879394,1.11780905786982));
#1198=CARTESIAN_POINT('Ctrl Pts',(4.16704511486016,-0.359726013215408,1.13564812133732));
#1199=CARTESIAN_POINT('Ctrl Pts',(4.16491098916813,-0.383138838047555,1.14));
#1200=CARTESIAN_POINT('Ctrl Pts',(4.16215674164922,-0.405,1.14));
#1201=CARTESIAN_POINT('Origin',(4.17,-0.405,0.965));
#1202=CARTESIAN_POINT('',(4.46397642946075,-0.405,1.14));
#1203=CARTESIAN_POINT('Ctrl Pts',(4.46397642946075,-0.405,1.14));
#1204=CARTESIAN_POINT('Ctrl Pts',(4.46609166733857,-0.383103456347201,1.14));
#1205=CARTESIAN_POINT('Ctrl Pts',(4.46773008885243,-0.359690916380579,1.13563613620922));
#1206=CARTESIAN_POINT('Ctrl Pts',(4.46966931008759,-0.316570268933046,1.11780463051023));
#1207=CARTESIAN_POINT('Ctrl Pts',(4.46998377195929,-0.296862240869716,1.10433828498609));
#1208=CARTESIAN_POINT('Ctrl Pts',(4.46999978440339,-0.280866037718006,1.0883537112242));
#1209=CARTESIAN_POINT('Ctrl Pts',(4.47,-0.280432238859777,1.0879156390781));
#1210=CARTESIAN_POINT('Ctrl Pts',(4.47,-0.28,1.08747448713916));
#1211=CARTESIAN_POINT('',(4.47,-0.405,1.14));
#1212=CARTESIAN_POINT('Origin',(4.47,-0.405,0.965));
#1213=CARTESIAN_POINT('',(-4.16215674164922,-0.405,1.14));
#1214=CARTESIAN_POINT('Ctrl Pts',(-4.16215674164922,-0.405,1.14));
#1215=CARTESIAN_POINT('Ctrl Pts',(-4.16491098916813,-0.383138838047555,
1.14));
#1216=CARTESIAN_POINT('Ctrl Pts',(-4.16704511486016,-0.359726013215408,
1.13564812133732));
#1217=CARTESIAN_POINT('Ctrl Pts',(-4.16957062471855,-0.316574870879394,
1.11780905786982));
#1218=CARTESIAN_POINT('Ctrl Pts',(-4.16997963699597,-0.296836683926122,
1.10432405734141));
#1219=CARTESIAN_POINT('Ctrl Pts',(-4.16999973871415,-0.280836134984963,
1.08832350840025));
#1220=CARTESIAN_POINT('Ctrl Pts',(-4.17,-0.280417340679233,1.08790043368625));
#1221=CARTESIAN_POINT('Ctrl Pts',(-4.17,-0.28,1.08747448713916));
#1222=CARTESIAN_POINT('',(-4.46397642946075,-0.405,1.14));
#1223=CARTESIAN_POINT('',(4.47,-0.405,1.14));
#1224=CARTESIAN_POINT('',(-4.47,-0.28,1.08747448713916));
#1225=CARTESIAN_POINT('Ctrl Pts',(-4.47,-0.28,1.08747448713916));
#1226=CARTESIAN_POINT('Ctrl Pts',(-4.47,-0.280432238859777,1.0879156390781));
#1227=CARTESIAN_POINT('Ctrl Pts',(-4.46999978440339,-0.280866037718006,
1.0883537112242));
#1228=CARTESIAN_POINT('Ctrl Pts',(-4.46998377195929,-0.296862240869716,
1.10433828498609));
#1229=CARTESIAN_POINT('Ctrl Pts',(-4.46966931008759,-0.316570268933046,
1.11780463051023));
#1230=CARTESIAN_POINT('Ctrl Pts',(-4.46773008885243,-0.359690916380579,
1.13563613620922));
#1231=CARTESIAN_POINT('Ctrl Pts',(-4.46609166733857,-0.383103456347201,
1.14));
#1232=CARTESIAN_POINT('Ctrl Pts',(-4.46397642946075,-0.405,1.14));
#1233=CARTESIAN_POINT('Origin',(-4.47,-0.405,0.965));
#1234=CARTESIAN_POINT('Origin',(4.47,-1.58,1.14));
#1235=CARTESIAN_POINT('',(-3.17,-1.28,1.14));
#1236=CARTESIAN_POINT('Origin',(-3.17,-0.28,1.14));
#1237=CARTESIAN_POINT('',(3.17,-1.28,1.14));
#1238=CARTESIAN_POINT('',(0.65,-1.28,1.14));
#1239=CARTESIAN_POINT('Origin',(3.17,-0.28,1.14));
#1240=CARTESIAN_POINT('',(3.17,-1.58,1.14));
#1241=CARTESIAN_POINT('Origin',(3.17,-0.28,1.14));
#1242=CARTESIAN_POINT('',(-3.17,-1.58,1.14));
#1243=CARTESIAN_POINT('',(2.235,-1.58,1.14));
#1244=CARTESIAN_POINT('Origin',(-3.17,-0.28,1.14));
#1245=CARTESIAN_POINT('Origin',(-3.17,-0.28,0.));
#1246=CARTESIAN_POINT('',(-3.17,-1.28,6.85));
#1247=CARTESIAN_POINT('Origin',(-3.17,-0.28,6.85));
#1248=CARTESIAN_POINT('',(-3.17,-1.28,0.));
#1249=CARTESIAN_POINT('Origin',(-3.17,-0.28,0.));
#1250=CARTESIAN_POINT('',(-3.17,-1.58,6.85));
#1251=CARTESIAN_POINT('',(-3.17,-1.58,0.));
#1252=CARTESIAN_POINT('',(-4.47,-0.28,6.85));
#1253=CARTESIAN_POINT('Origin',(-3.17,-0.28,6.85));
#1254=CARTESIAN_POINT('',(-4.47,-0.28,0.));
#1255=CARTESIAN_POINT('Origin',(0.,-1.58,0.));
#1256=CARTESIAN_POINT('',(3.17,-1.58,6.85));
#1257=CARTESIAN_POINT('',(3.17,-1.58,0.));
#1258=CARTESIAN_POINT('',(0.,-1.58,6.85));
#1259=CARTESIAN_POINT('Origin',(3.17,-0.28,0.));
#1260=CARTESIAN_POINT('Origin',(3.17,-0.28,6.85));
#1261=CARTESIAN_POINT('Origin',(3.17,-0.28,0.));
#1262=CARTESIAN_POINT('',(3.17,-1.28,6.85));
#1263=CARTESIAN_POINT('',(3.17,-1.28,0.));
#1264=CARTESIAN_POINT('',(4.17,-0.28,6.85));
#1265=CARTESIAN_POINT('Origin',(3.17,-0.28,6.85));
#1266=CARTESIAN_POINT('',(4.17,-0.28,0.));
#1267=CARTESIAN_POINT('Origin',(3.17,0.28,0.));
#1268=CARTESIAN_POINT('',(3.17,1.58,6.85));
#1269=CARTESIAN_POINT('',(3.17,1.58,0.));
#1270=CARTESIAN_POINT('Origin',(3.17,0.28,6.85));
#1271=CARTESIAN_POINT('Origin',(3.17,0.28,0.));
#1272=CARTESIAN_POINT('',(4.17,0.28,6.85));
#1273=CARTESIAN_POINT('',(4.17,0.28,0.));
#1274=CARTESIAN_POINT('',(3.17,1.28,6.85));
#1275=CARTESIAN_POINT('Origin',(3.17,0.28,6.85));
#1276=CARTESIAN_POINT('',(3.17,1.28,0.));
#1277=CARTESIAN_POINT('Origin',(4.17,2.55338857622223E-16,0.));
#1278=CARTESIAN_POINT('',(4.17,-2.55338857622223E-16,6.85));
#1279=CARTESIAN_POINT('Origin',(-3.17,-1.28,0.));
#1280=CARTESIAN_POINT('',(0.,-1.28,6.85));
#1281=CARTESIAN_POINT('Origin',(-4.47,0.28,0.));
#1282=CARTESIAN_POINT('',(-4.47,0.28,6.85));
#1283=CARTESIAN_POINT('',(-4.47,2.55338857622223E-16,6.85));
#1284=CARTESIAN_POINT('',(-4.47,0.28,0.));
#1285=CARTESIAN_POINT('Origin',(-3.17,0.28,0.));
#1286=CARTESIAN_POINT('',(-3.17,1.58,6.85));
#1287=CARTESIAN_POINT('Origin',(-3.17,0.28,6.85));
#1288=CARTESIAN_POINT('',(-3.17,1.58,0.));
#1289=CARTESIAN_POINT('Origin',(0.,1.58,0.));
#1290=CARTESIAN_POINT('',(0.,1.58,6.85));
#1291=CARTESIAN_POINT('Origin',(-3.17,1.28,0.));
#1292=CARTESIAN_POINT('',(-3.17,1.28,6.85));
#1293=CARTESIAN_POINT('',(0.,1.28,6.85));
#1294=CARTESIAN_POINT('',(-3.17,1.28,0.));
#1295=CARTESIAN_POINT('Origin',(-3.17,0.28,0.));
#1296=CARTESIAN_POINT('Origin',(-3.17,0.28,6.85));
#1297=CARTESIAN_POINT('Origin',(-2.235,0.79,6.85));
#1298=UNCERTAINTY_MEASURE_WITH_UNIT(LENGTH_MEASURE(0.01),#1302,
'DISTANCE_ACCURACY_VALUE',
'Maximum model space distance between geometric entities at asserted c
onnectivities');
#1299=UNCERTAINTY_MEASURE_WITH_UNIT(LENGTH_MEASURE(0.01),#1302,
'DISTANCE_ACCURACY_VALUE',
'Maximum model space distance between geometric entities at asserted c
onnectivities');
#1300=(
GEOMETRIC_REPRESENTATION_CONTEXT(3)
GLOBAL_UNCERTAINTY_ASSIGNED_CONTEXT((#1298))
GLOBAL_UNIT_ASSIGNED_CONTEXT((#1302,#1304,#1305))
REPRESENTATION_CONTEXT('','3D')
);
#1301=(
GEOMETRIC_REPRESENTATION_CONTEXT(3)
GLOBAL_UNCERTAINTY_ASSIGNED_CONTEXT((#1299))
GLOBAL_UNIT_ASSIGNED_CONTEXT((#1302,#1304,#1305))
REPRESENTATION_CONTEXT('','3D')
);
#1302=(
LENGTH_UNIT()
NAMED_UNIT(*)
SI_UNIT(.MILLI.,.METRE.)
);
#1303=(
LENGTH_UNIT()
NAMED_UNIT(*)
SI_UNIT($,.METRE.)
);
#1304=(
NAMED_UNIT(*)
PLANE_ANGLE_UNIT()
SI_UNIT($,.RADIAN.)
);
#1305=(
NAMED_UNIT(*)
SI_UNIT($,.STERADIAN.)
SOLID_ANGLE_UNIT()
);
#1306=SHAPE_DEFINITION_REPRESENTATION(#1307,#1308);
#1307=PRODUCT_DEFINITION_SHAPE('',$,#1310);
#1308=SHAPE_REPRESENTATION('',(#746),#1300);
#1309=PRODUCT_DEFINITION_CONTEXT('part definition',#1314,'design');
#1310=PRODUCT_DEFINITION('2026-08-18-16-33-10-745','usb-c-vertical',#1311,
#1309);
#1311=PRODUCT_DEFINITION_FORMATION('',$,#1316);
#1312=PRODUCT_RELATED_PRODUCT_CATEGORY('usb-c-vertical',
'usb-c-vertical',(#1316));
#1313=APPLICATION_PROTOCOL_DEFINITION('international standard',
'automotive_design',2009,#1314);
#1314=APPLICATION_CONTEXT(
'Core Data for Automotive Mechanical Design Process');
#1315=PRODUCT_CONTEXT('part definition',#1314,'mechanical');
#1316=PRODUCT('2026-08-18-16-33-10-745','usb-c-vertical',$,(#1315));
#1317=PRESENTATION_STYLE_ASSIGNMENT((#1318));
#1318=SURFACE_STYLE_USAGE(.BOTH.,#1319);
#1319=SURFACE_SIDE_STYLE('',(#1320));
#1320=SURFACE_STYLE_FILL_AREA(#1321);
#1321=FILL_AREA_STYLE('Steel - Satin',(#1322));
#1322=FILL_AREA_STYLE_COLOUR('Steel - Satin',#1323);
#1323=COLOUR_RGB('Steel - Satin',0.627450980392157,0.627450980392157,0.627450980392157);
ENDSEC;
END-ISO-10303-21;
